G04*
G04 #@! TF.GenerationSoftware,Altium Limited,Altium Designer,23.5.1 (21)*
G04*
G04 Layer_Physical_Order=1*
G04 Layer_Color=255*
%FSLAX44Y44*%
%MOMM*%
G71*
G04*
G04 #@! TF.SameCoordinates,E96301ED-D8BF-4372-B2D1-DF9899262BC6*
G04*
G04*
G04 #@! TF.FilePolarity,Positive*
G04*
G01*
G75*
%ADD14C,0.2540*%
%ADD16C,1.5700*%
%ADD17R,1.3500X1.3500*%
%ADD18C,1.3500*%
%ADD19R,1.4000X1.4000*%
%ADD20C,1.4000*%
%ADD21C,1.2000*%
%ADD22R,1.2000X1.2000*%
%ADD23C,1.5000*%
%ADD24R,1.5000X1.5000*%
%ADD25C,1.3000*%
%ADD26R,1.3000X1.3000*%
%ADD27R,1.3500X1.3500*%
%ADD28R,1.2000X1.2000*%
%ADD29C,1.6000*%
G04:AMPARAMS|DCode=30|XSize=1.6mm|YSize=1.6mm|CornerRadius=0.4mm|HoleSize=0mm|Usage=FLASHONLY|Rotation=0.000|XOffset=0mm|YOffset=0mm|HoleType=Round|Shape=RoundedRectangle|*
%AMROUNDEDRECTD30*
21,1,1.6000,0.8000,0,0,0.0*
21,1,0.8000,1.6000,0,0,0.0*
1,1,0.8000,0.4000,-0.4000*
1,1,0.8000,-0.4000,-0.4000*
1,1,0.8000,-0.4000,0.4000*
1,1,0.8000,0.4000,0.4000*
%
%ADD30ROUNDEDRECTD30*%
%ADD31R,1.3000X1.3000*%
%ADD32C,1.7000*%
%ADD33R,1.7000X1.7000*%
%ADD34C,1.4500*%
%ADD35C,0.3050*%
D14*
X45038Y280040D02*
X41706D01*
X40040Y281706D01*
Y285038D01*
X41706Y286705D01*
X45038D01*
X46705Y285038D01*
Y283372D01*
X40040D01*
X50037Y280040D02*
Y286705D01*
X55035D01*
X56701Y285038D01*
Y280040D01*
X61700Y286705D02*
X65032D01*
X66698Y285038D01*
Y280040D01*
X61700D01*
X60034Y281706D01*
X61700Y283372D01*
X66698D01*
X70030Y280040D02*
X75029D01*
X76695Y281706D01*
X75029Y283372D01*
X71697D01*
X70030Y285038D01*
X71697Y286705D01*
X76695D01*
X86692Y280040D02*
X80027D01*
X86692Y286705D01*
Y288371D01*
X85026Y290037D01*
X81693D01*
X80027Y288371D01*
X90024D02*
X91690Y290037D01*
X95022D01*
X96688Y288371D01*
Y281706D01*
X95022Y280040D01*
X91690D01*
X90024Y281706D01*
Y288371D01*
X100021D02*
X101687Y290037D01*
X105019D01*
X106685Y288371D01*
Y281706D01*
X105019Y280040D01*
X101687D01*
X100021Y281706D01*
Y288371D01*
X110017Y280040D02*
X113350D01*
X111684D01*
Y290037D01*
X110017Y288371D01*
X45038Y300040D02*
X41706D01*
X40040Y301706D01*
Y305038D01*
X41706Y306705D01*
X45038D01*
X46705Y305038D01*
Y303372D01*
X40040D01*
X51703Y308371D02*
Y306705D01*
X50037D01*
X53369D01*
X51703D01*
Y301706D01*
X53369Y300040D01*
X58367Y310037D02*
Y300040D01*
Y305038D01*
X60034Y306705D01*
X63366D01*
X65032Y305038D01*
Y300040D01*
X70030Y306705D02*
X73363D01*
X75029Y305038D01*
Y300040D01*
X70030D01*
X68364Y301706D01*
X70030Y303372D01*
X75029D01*
X78361Y300040D02*
Y306705D01*
X83359D01*
X85026Y305038D01*
Y300040D01*
X88358Y310037D02*
X95022D01*
Y308371D01*
X88358Y301706D01*
Y300040D01*
X105019D02*
X98355D01*
X105019Y306705D01*
Y308371D01*
X103353Y310037D01*
X100021D01*
X98355Y308371D01*
X115016Y300040D02*
X108351D01*
X115016Y306705D01*
Y308371D01*
X113350Y310037D01*
X110017D01*
X108351Y308371D01*
D16*
X710000Y217500D02*
D03*
X260000Y215000D02*
D03*
D17*
X200000Y205000D02*
D03*
X50000Y25000D02*
D03*
X90000D02*
D03*
X650000Y165000D02*
D03*
X680000Y65000D02*
D03*
X390000Y35000D02*
D03*
Y145000D02*
D03*
D18*
X200000Y115000D02*
D03*
X50000Y115000D02*
D03*
X90000D02*
D03*
X365000Y60000D02*
D03*
Y90000D02*
D03*
X605000Y290000D02*
D03*
X650000Y255000D02*
D03*
X680000Y155000D02*
D03*
X525000Y240000D02*
D03*
X390000Y125000D02*
D03*
Y235000D02*
D03*
X385000Y290000D02*
D03*
Y260000D02*
D03*
D19*
X630000Y84600D02*
D03*
D20*
Y135400D02*
D03*
D21*
X430000Y157500D02*
D03*
Y77500D02*
D03*
X200000Y47500D02*
D03*
X547500Y290000D02*
D03*
X555000Y250000D02*
D03*
X470000Y145000D02*
D03*
Y65000D02*
D03*
X240000Y70000D02*
D03*
D22*
X430000Y182500D02*
D03*
Y102500D02*
D03*
X200000Y97500D02*
D03*
X470000Y195000D02*
D03*
Y115000D02*
D03*
X240000Y95000D02*
D03*
D23*
X286900Y121900D02*
D03*
X312300D02*
D03*
X337700D02*
D03*
X363100D02*
D03*
X286900Y198100D02*
D03*
X312300D02*
D03*
X337700D02*
D03*
X580000Y185500D02*
D03*
D24*
X363100Y198100D02*
D03*
X580000Y134500D02*
D03*
D25*
X127500Y30000D02*
D03*
X540000Y90000D02*
D03*
X527500Y187500D02*
D03*
D26*
X147500Y30000D02*
D03*
D27*
X275000Y60000D02*
D03*
Y90000D02*
D03*
X695000Y290000D02*
D03*
X435000Y240000D02*
D03*
X295000Y290000D02*
D03*
Y260000D02*
D03*
D28*
X572500Y290000D02*
D03*
X605000Y250000D02*
D03*
D29*
X624600Y30000D02*
D03*
X650000D02*
D03*
X675400D02*
D03*
D30*
X599200D02*
D03*
D31*
X540000Y55000D02*
D03*
X527500Y152500D02*
D03*
D32*
X262700Y160000D02*
D03*
D33*
X237300D02*
D03*
D34*
X67206Y172700D02*
D03*
X79906Y160000D02*
D03*
X67206Y147300D02*
D03*
D35*
X355690Y12500D02*
X657900D01*
X350000Y18190D02*
X355690Y12500D01*
X657900D02*
X675400Y30000D01*
X159310Y18190D02*
X350000D01*
X675400Y30000D02*
Y60400D01*
X281900Y121900D02*
X297500Y137500D01*
X377500D02*
X390000Y125000D01*
X297500Y137500D02*
X377500D01*
X350000Y89934D02*
X352915Y92849D01*
Y111715D02*
X363100Y121900D01*
X352915Y92849D02*
Y111715D01*
X127500Y65000D02*
X192500Y130000D01*
X232700D01*
X262700Y160000D01*
X127500Y30000D02*
Y65000D01*
X281900Y172700D02*
X284200Y175000D01*
X307300Y198100D01*
X67206Y172700D02*
X69397Y174891D01*
X74608D01*
X74718Y175000D01*
X284200D01*
X525000Y285000D02*
X545000Y305000D01*
X695000Y290000D02*
Y303213D01*
X545000Y305000D02*
X693213D01*
X695000Y303213D01*
Y249500D02*
Y290000D01*
X525000Y240000D02*
Y285000D01*
X281900Y198100D02*
X284377Y200578D01*
Y203384D01*
X281900Y297945D02*
X286040Y302085D01*
X281900Y205862D02*
X284377Y203384D01*
X281900Y205862D02*
Y297945D01*
X390006Y302085D02*
X397085Y295006D01*
X286040Y302085D02*
X390006D01*
X397085Y292849D02*
X409447Y280487D01*
X397085Y292849D02*
Y295006D01*
X527500Y152500D02*
X530000D01*
X477500D02*
X527500D01*
X210000Y215000D02*
X260000D01*
X200000Y205000D02*
X210000Y215000D01*
X532500Y97500D02*
Y145000D01*
Y97500D02*
X540000Y90000D01*
X470000Y145000D02*
X477500Y152500D01*
X532500Y145000D02*
Y150000D01*
X530000Y152500D02*
X532500Y150000D01*
Y145000D02*
X535000Y147500D01*
X350000Y18190D02*
Y89934D01*
X547500Y257500D02*
Y290000D01*
Y257500D02*
X555000Y250000D01*
X605000Y250000D02*
Y290000D01*
Y250000D02*
X605000Y250000D01*
X572500Y290000D02*
X605000D01*
X580000Y134500D02*
X695000Y249500D01*
X582500Y187500D02*
X650000Y255000D01*
X409447Y265553D02*
Y280487D01*
Y265553D02*
X435000Y240000D01*
X358100Y233100D02*
X385000Y260000D01*
X358100Y198100D02*
Y233100D01*
X385000Y260000D02*
Y290000D01*
X295000Y260000D02*
X332700Y222300D01*
Y198100D02*
Y222300D01*
X295000Y260000D02*
Y290000D01*
X281900Y121900D02*
Y172700D01*
X185000Y160000D02*
X237300D01*
X50000Y25000D02*
X185000Y160000D01*
X200000Y97500D02*
Y115000D01*
X202500Y95000D02*
X240000D01*
X200000Y97500D02*
X202500Y95000D01*
X250000Y60000D02*
X275000D01*
X240000Y70000D02*
X250000Y60000D01*
X200000Y47500D02*
X217500D01*
X240000Y70000D01*
X272500Y92500D02*
X275000Y90000D01*
Y60000D02*
Y90000D01*
X306900Y121900D02*
X307300D01*
X275000Y90000D02*
X306900Y121900D01*
X147500Y30000D02*
X159310Y18190D01*
X599600Y55000D02*
X624600Y30000D01*
X540000Y55000D02*
X599600D01*
X390000Y35000D02*
X430000Y75000D01*
Y77500D01*
X457500Y157500D02*
X470000Y145000D01*
X477500Y187500D02*
X540000D01*
X79906Y160000D02*
X90000Y149906D01*
Y115000D02*
Y149906D01*
X50000Y115000D02*
X67206Y132206D01*
Y147300D01*
X624600Y30000D02*
Y79200D01*
X630000Y84600D01*
X470000Y65000D02*
X530000D01*
X540000Y55000D01*
X430000Y77500D02*
X457500D01*
X470000Y65000D01*
X390000Y125000D02*
Y145000D01*
X442500Y115000D02*
X470000D01*
X430000Y102500D02*
X442500Y115000D01*
X495000Y90000D02*
X540000D01*
X470000Y115000D02*
X495000Y90000D01*
X430000Y157500D02*
X457500D01*
X390000Y145000D02*
X417500D01*
X430000Y157500D01*
Y182500D02*
Y195000D01*
X390000Y235000D02*
X430000Y195000D01*
X442500Y195000D02*
X470000D01*
X430000Y182500D02*
X442500Y195000D01*
X540000Y187500D02*
X582500D01*
X470000Y195000D02*
X477500Y187500D01*
X650000Y155400D02*
Y165000D01*
X630000Y135400D02*
X650000Y155400D01*
X670000Y165000D02*
X680000Y155000D01*
X650000Y165000D02*
X670000D01*
X675400Y60400D02*
X680000Y65000D01*
M02*
