G04*
G04 #@! TF.GenerationSoftware,Altium Limited,Altium Designer,23.5.1 (21)*
G04*
G04 Layer_Color=65535*
%FSLAX44Y44*%
%MOMM*%
G71*
G04*
G04 #@! TF.SameCoordinates,E96301ED-D8BF-4372-B2D1-DF9899262BC6*
G04*
G04*
G04 #@! TF.FilePolarity,Positive*
G04*
G01*
G75*
%ADD10C,0.2500*%
%ADD11C,0.6000*%
%ADD12C,0.2000*%
%ADD13C,0.1500*%
%ADD14C,0.2540*%
%ADD15C,0.5000*%
G36*
X75441Y315735D02*
X76323D01*
Y315441D01*
X77206D01*
Y315147D01*
X78088D01*
Y314853D01*
X78677D01*
Y314559D01*
X79265D01*
Y314265D01*
X80147D01*
Y313971D01*
X80735D01*
Y313676D01*
X81323D01*
Y313382D01*
X81912D01*
Y313088D01*
X82500D01*
Y312794D01*
X83382D01*
Y312500D01*
X83971D01*
Y312206D01*
X84559D01*
Y311912D01*
X85147D01*
Y311618D01*
X86029D01*
Y311324D01*
X86618D01*
Y311029D01*
X87206D01*
Y310735D01*
X87794D01*
Y310441D01*
X88382D01*
Y310147D01*
X88971D01*
Y309853D01*
X89853D01*
Y309559D01*
X90441D01*
Y309265D01*
X91029D01*
Y308971D01*
X91618D01*
Y308676D01*
X92500D01*
Y308382D01*
X93088D01*
Y308088D01*
X93677D01*
Y307794D01*
X93971D01*
Y307500D01*
X94559D01*
Y307206D01*
X94853D01*
Y306618D01*
X95147D01*
Y306029D01*
X95441D01*
Y304853D01*
X95735D01*
Y298971D01*
X95441D01*
Y295441D01*
X96029D01*
Y295735D01*
X97500D01*
Y295441D01*
X98382D01*
Y295147D01*
X99265D01*
Y294853D01*
X100441D01*
Y294559D01*
X101323D01*
Y294265D01*
X102206D01*
Y293971D01*
X103382D01*
Y293676D01*
X104265D01*
Y293382D01*
X105441D01*
Y293088D01*
X106323D01*
Y292794D01*
X107206D01*
Y292500D01*
X108382D01*
Y292206D01*
X109265D01*
Y291912D01*
X110147D01*
Y291618D01*
X111324D01*
Y291324D01*
X112206D01*
Y291029D01*
X113382D01*
Y290735D01*
X114265D01*
Y290441D01*
X115441D01*
Y290147D01*
X116323D01*
Y289853D01*
X117206D01*
Y289559D01*
X118382D01*
Y289265D01*
X119265D01*
Y288971D01*
X120441D01*
Y288676D01*
X121323D01*
Y288382D01*
X122206D01*
Y288088D01*
X123382D01*
Y287794D01*
X124265D01*
Y287500D01*
X125441D01*
Y287206D01*
X125735D01*
Y286912D01*
X126029D01*
Y286618D01*
X126323D01*
Y286324D01*
X126912D01*
Y286029D01*
X127206D01*
Y285735D01*
X127500D01*
Y285441D01*
X127794D01*
Y285147D01*
X128088D01*
Y284853D01*
X128677D01*
Y284559D01*
X128971D01*
Y284265D01*
X129265D01*
Y283971D01*
X129559D01*
Y283676D01*
X129853D01*
Y283382D01*
X130441D01*
Y283088D01*
X130735D01*
Y282794D01*
X131029D01*
Y282500D01*
X131323D01*
Y282206D01*
X131912D01*
Y281912D01*
X132206D01*
Y281618D01*
X132500D01*
Y281324D01*
X132794D01*
Y281029D01*
X133088D01*
Y280735D01*
X133677D01*
Y280441D01*
X133971D01*
Y280147D01*
X134265D01*
Y279853D01*
X134559D01*
Y279559D01*
X134853D01*
Y279265D01*
X135441D01*
Y278971D01*
X135735D01*
Y278676D01*
X136029D01*
Y278382D01*
X136324D01*
Y278088D01*
X136912D01*
Y277794D01*
X137206D01*
Y277206D01*
X137500D01*
Y276912D01*
X137794D01*
Y276324D01*
X138088D01*
Y275735D01*
X138382D01*
Y275441D01*
X138677D01*
Y274853D01*
X138971D01*
Y274559D01*
X139265D01*
Y273971D01*
X139559D01*
Y273676D01*
X139853D01*
Y273088D01*
X140147D01*
Y272794D01*
X140441D01*
Y272500D01*
X140735D01*
Y271912D01*
X141029D01*
Y271618D01*
X141323D01*
Y271029D01*
X141618D01*
Y270735D01*
X142500D01*
Y270441D01*
X157500D01*
Y270735D01*
X157794D01*
Y270441D01*
X158088D01*
Y270147D01*
X158382D01*
Y269559D01*
X158677D01*
Y268971D01*
X158971D01*
Y268676D01*
X159559D01*
Y268382D01*
X159853D01*
Y268676D01*
X161618D01*
Y268382D01*
X162206D01*
Y268676D01*
X162500D01*
Y268382D01*
X163088D01*
Y268676D01*
X163971D01*
Y268382D01*
X164265D01*
Y268676D01*
X171324D01*
Y268382D01*
X171912D01*
Y268676D01*
X172206D01*
Y268382D01*
X172500D01*
Y268676D01*
X172794D01*
Y268382D01*
X173971D01*
Y268676D01*
X174265D01*
Y268382D01*
X175147D01*
Y268676D01*
X175735D01*
Y268382D01*
X176029D01*
Y268676D01*
X176324D01*
Y268382D01*
X177500D01*
Y268676D01*
X187794D01*
Y268382D01*
X188088D01*
Y268676D01*
X188382D01*
Y268382D01*
X188971D01*
Y268676D01*
X189559D01*
Y268382D01*
X189853D01*
Y268676D01*
X190735D01*
Y268382D01*
X191029D01*
Y268676D01*
X191618D01*
Y268382D01*
X193382D01*
Y268676D01*
X193971D01*
Y268382D01*
X194265D01*
Y268676D01*
X194559D01*
Y268382D01*
X194853D01*
Y268676D01*
X195147D01*
Y268382D01*
X196029D01*
Y268676D01*
X196618D01*
Y268382D01*
X197794D01*
Y268676D01*
X198676D01*
Y268382D01*
X199559D01*
Y268676D01*
X202206D01*
Y268382D01*
X202794D01*
Y268676D01*
X205147D01*
Y268382D01*
X206618D01*
Y268088D01*
X207794D01*
Y267794D01*
X209265D01*
Y267500D01*
X210735D01*
Y267206D01*
X211912D01*
Y266912D01*
X212500D01*
Y266618D01*
X212794D01*
Y266324D01*
X213088D01*
Y266029D01*
X213382D01*
Y265735D01*
X213676D01*
Y265441D01*
X213971D01*
Y265147D01*
X214265D01*
Y264853D01*
X214559D01*
Y264559D01*
X214853D01*
Y264265D01*
X215147D01*
Y263971D01*
X215441D01*
Y270735D01*
X215147D01*
Y271029D01*
X214853D01*
Y271324D01*
X214559D01*
Y271618D01*
X214265D01*
Y271912D01*
X213971D01*
Y272206D01*
X213676D01*
Y272500D01*
X213382D01*
Y272794D01*
X213088D01*
Y273088D01*
X212794D01*
Y273382D01*
X212500D01*
Y273676D01*
X212206D01*
Y273971D01*
X211912D01*
Y274265D01*
X211618D01*
Y274559D01*
X211324D01*
Y274853D01*
X211029D01*
Y275147D01*
X210735D01*
Y275441D01*
X210441D01*
Y276029D01*
X210147D01*
Y276324D01*
X209853D01*
Y276618D01*
X209559D01*
Y276912D01*
X209265D01*
Y277206D01*
X208971D01*
Y277500D01*
X208676D01*
Y277794D01*
X208382D01*
Y278088D01*
X208088D01*
Y278382D01*
X207794D01*
Y278676D01*
X207500D01*
Y279559D01*
X211029D01*
Y279265D01*
X214853D01*
Y278971D01*
X218971D01*
Y278676D01*
X219265D01*
Y278971D01*
X219853D01*
Y278676D01*
X220441D01*
Y278382D01*
X220735D01*
Y278088D01*
X221324D01*
Y277794D01*
X221618D01*
Y277500D01*
X221912D01*
Y277206D01*
X222500D01*
Y276912D01*
X222794D01*
Y276618D01*
X223382D01*
Y276324D01*
X223676D01*
Y276029D01*
X223971D01*
Y275735D01*
X224559D01*
Y275441D01*
X224853D01*
Y275147D01*
X225441D01*
Y274853D01*
X225735D01*
Y274559D01*
X226029D01*
Y274265D01*
X226618D01*
Y273971D01*
X226912D01*
Y273676D01*
X227206D01*
Y273382D01*
X227794D01*
Y273088D01*
X228088D01*
Y272794D01*
X228382D01*
Y272206D01*
X228676D01*
Y272500D01*
X228971D01*
Y271912D01*
X229265D01*
Y271618D01*
X229559D01*
Y271029D01*
X229853D01*
Y270735D01*
X230147D01*
Y270441D01*
X230441D01*
Y269853D01*
X230735D01*
Y269559D01*
X231029D01*
Y269265D01*
X231324D01*
Y268971D01*
X231618D01*
Y268382D01*
X231912D01*
Y268088D01*
X232206D01*
Y267794D01*
X232500D01*
Y267206D01*
X232794D01*
Y266912D01*
X233088D01*
Y266618D01*
X233382D01*
Y266029D01*
X233676D01*
Y265735D01*
X233971D01*
Y265441D01*
X234265D01*
Y264853D01*
X234559D01*
Y264559D01*
X234853D01*
Y264265D01*
X235147D01*
Y263971D01*
X235441D01*
Y264265D01*
X235735D01*
Y264559D01*
X236912D01*
Y264265D01*
X237500D01*
Y263971D01*
X238088D01*
Y263676D01*
X238382D01*
Y263382D01*
X238676D01*
Y263088D01*
X238971D01*
Y262500D01*
X239265D01*
Y261912D01*
X239559D01*
Y261324D01*
X249853D01*
Y261618D01*
X250147D01*
Y261912D01*
X250441D01*
Y262206D01*
X251324D01*
Y262500D01*
X252500D01*
Y262794D01*
X254265D01*
Y263088D01*
X256029D01*
Y262794D01*
X256618D01*
Y262500D01*
X256912D01*
Y262206D01*
X257206D01*
Y282500D01*
X256912D01*
Y284559D01*
X257206D01*
Y285441D01*
X256324D01*
Y285735D01*
X255441D01*
Y286029D01*
X254853D01*
Y286324D01*
X254265D01*
Y286618D01*
X253676D01*
Y286912D01*
X253382D01*
Y287206D01*
X253088D01*
Y287500D01*
X252794D01*
Y287794D01*
X252500D01*
Y288088D01*
X252206D01*
Y288971D01*
X251912D01*
Y292500D01*
X252206D01*
Y294265D01*
X252500D01*
Y295441D01*
X252794D01*
Y296618D01*
X253088D01*
Y297206D01*
X253382D01*
Y298088D01*
X253676D01*
Y298382D01*
X253971D01*
Y298676D01*
X254265D01*
Y298971D01*
X254559D01*
Y299265D01*
X254853D01*
Y299559D01*
X255441D01*
Y299853D01*
X256324D01*
Y300147D01*
X257500D01*
Y300441D01*
X259853D01*
Y300735D01*
X260147D01*
Y300441D01*
X260441D01*
Y300147D01*
X260735D01*
Y299853D01*
X261029D01*
Y299559D01*
X261324D01*
Y299265D01*
X261618D01*
Y298971D01*
X261912D01*
Y298676D01*
X262206D01*
Y298088D01*
X262500D01*
Y297794D01*
X262794D01*
Y297500D01*
X263088D01*
Y296912D01*
X263382D01*
Y296324D01*
X263676D01*
Y295735D01*
X263971D01*
Y291912D01*
X263676D01*
Y290735D01*
X263382D01*
Y289559D01*
X263088D01*
Y288971D01*
X262794D01*
Y288382D01*
X262500D01*
Y287794D01*
X262206D01*
Y287500D01*
X261912D01*
Y287206D01*
X261618D01*
Y286912D01*
X261324D01*
Y286618D01*
X260735D01*
Y286324D01*
X260147D01*
Y286029D01*
X259559D01*
Y285735D01*
X259853D01*
Y285441D01*
X259559D01*
Y284853D01*
X259853D01*
Y284559D01*
X259559D01*
Y284265D01*
X259853D01*
Y283971D01*
X259559D01*
Y283676D01*
X259853D01*
Y270441D01*
X260147D01*
Y259265D01*
X261912D01*
Y259559D01*
X263382D01*
Y259853D01*
X264853D01*
Y260147D01*
X266029D01*
Y260441D01*
X267500D01*
Y260735D01*
X268971D01*
Y261029D01*
X270441D01*
Y261324D01*
X271912D01*
Y261618D01*
X273382D01*
Y261912D01*
X274853D01*
Y262206D01*
X275735D01*
Y261912D01*
X276029D01*
Y260147D01*
X276324D01*
Y258382D01*
X276618D01*
Y256324D01*
X276912D01*
Y253088D01*
X278088D01*
Y253676D01*
X278382D01*
Y253971D01*
X278676D01*
Y254559D01*
X278971D01*
Y254853D01*
X279265D01*
Y255147D01*
X279853D01*
Y255441D01*
X282206D01*
Y255147D01*
X282500D01*
Y254853D01*
X283088D01*
Y254559D01*
X283382D01*
Y253971D01*
X283676D01*
Y253382D01*
X283971D01*
Y250735D01*
X283676D01*
Y249853D01*
X283382D01*
Y249559D01*
X283088D01*
Y249265D01*
X282794D01*
Y248971D01*
X282206D01*
Y248676D01*
X281618D01*
Y248382D01*
X280441D01*
Y248676D01*
X279853D01*
Y248971D01*
X279265D01*
Y249265D01*
X278971D01*
Y249559D01*
X278676D01*
Y249853D01*
X278382D01*
Y250147D01*
X277794D01*
Y249853D01*
X277500D01*
Y250147D01*
X277206D01*
Y249853D01*
X276912D01*
Y249559D01*
X276618D01*
Y247500D01*
X276324D01*
Y246618D01*
X276029D01*
Y245735D01*
X275735D01*
Y244853D01*
X275441D01*
Y244265D01*
X275147D01*
Y243382D01*
X274853D01*
Y242794D01*
X274559D01*
Y242206D01*
X273088D01*
Y242500D01*
X271618D01*
Y242794D01*
X270147D01*
Y243088D01*
X268676D01*
Y243382D01*
X266912D01*
Y243676D01*
X265441D01*
Y243971D01*
X263971D01*
Y244265D01*
X262500D01*
Y244559D01*
X261029D01*
Y244853D01*
X259265D01*
Y245147D01*
X258088D01*
Y245441D01*
X257206D01*
Y245735D01*
X256618D01*
Y246029D01*
X256324D01*
Y246324D01*
X256029D01*
Y246618D01*
X255735D01*
Y246912D01*
X255441D01*
Y246618D01*
X255147D01*
Y246324D01*
X254853D01*
Y245735D01*
X254559D01*
Y245441D01*
X254265D01*
Y244853D01*
X253971D01*
Y244559D01*
X253676D01*
Y244265D01*
X253382D01*
Y243676D01*
X253088D01*
Y243382D01*
X252500D01*
Y243088D01*
X249559D01*
Y243382D01*
X248971D01*
Y243676D01*
X248382D01*
Y243971D01*
X248088D01*
Y244265D01*
X247794D01*
Y244559D01*
X247500D01*
Y244853D01*
X247206D01*
Y245441D01*
X246912D01*
Y246029D01*
X246618D01*
Y247206D01*
X238088D01*
Y246912D01*
X237794D01*
Y246324D01*
X237500D01*
Y246029D01*
X237206D01*
Y245441D01*
X236912D01*
Y245147D01*
X236618D01*
Y244853D01*
X236324D01*
Y244265D01*
X236029D01*
Y243971D01*
X235735D01*
Y243676D01*
X235441D01*
Y243382D01*
X235147D01*
Y243088D01*
X234853D01*
Y242794D01*
X234559D01*
Y242500D01*
X233971D01*
Y242206D01*
X231912D01*
Y242500D01*
X231618D01*
Y242794D01*
X231324D01*
Y243088D01*
X231029D01*
Y243382D01*
X230735D01*
Y243971D01*
X230441D01*
Y244559D01*
X230147D01*
Y245147D01*
X229853D01*
Y245735D01*
X229559D01*
Y246912D01*
X230147D01*
Y246029D01*
X230441D01*
Y245147D01*
X230735D01*
Y244559D01*
X231029D01*
Y244265D01*
X231324D01*
Y243676D01*
X231618D01*
Y243382D01*
X231912D01*
Y243088D01*
X232206D01*
Y242794D01*
X233971D01*
Y243088D01*
X234265D01*
Y243382D01*
X234853D01*
Y243971D01*
X235147D01*
Y244265D01*
X235441D01*
Y244559D01*
X235735D01*
Y244853D01*
X236029D01*
Y245441D01*
X236324D01*
Y245735D01*
X236618D01*
Y246029D01*
X236912D01*
Y246618D01*
X237206D01*
Y246912D01*
X237500D01*
Y247794D01*
X237794D01*
Y248088D01*
X238088D01*
Y248676D01*
X238382D01*
Y249265D01*
X238676D01*
Y249853D01*
X238971D01*
Y250735D01*
X239265D01*
Y252500D01*
X239559D01*
Y256029D01*
X239265D01*
Y259559D01*
X238971D01*
Y261618D01*
X238676D01*
Y262500D01*
X238382D01*
Y262794D01*
X238088D01*
Y263088D01*
X237794D01*
Y263382D01*
X237206D01*
Y263676D01*
X236618D01*
Y263971D01*
X236029D01*
Y263676D01*
X235441D01*
Y263382D01*
X235735D01*
Y263088D01*
X236029D01*
Y262500D01*
X236324D01*
Y262206D01*
X236618D01*
Y261912D01*
X237206D01*
Y260441D01*
X237500D01*
Y259265D01*
X237794D01*
Y257500D01*
X238088D01*
Y252500D01*
X237794D01*
Y251324D01*
X237500D01*
Y250147D01*
X237206D01*
Y249559D01*
X236912D01*
Y248676D01*
X236618D01*
Y248088D01*
X236324D01*
Y247500D01*
X236029D01*
Y247206D01*
X235735D01*
Y246912D01*
X235441D01*
Y246618D01*
X235147D01*
Y246324D01*
X234853D01*
Y246029D01*
X234559D01*
Y245735D01*
X234265D01*
Y245441D01*
X233971D01*
Y245147D01*
X233676D01*
Y244853D01*
X233382D01*
Y244559D01*
X233088D01*
Y244853D01*
X232794D01*
Y245147D01*
X233088D01*
Y245441D01*
X233382D01*
Y245735D01*
X232794D01*
Y246324D01*
X232500D01*
Y247206D01*
X219853D01*
Y246324D01*
X219559D01*
Y245441D01*
X219265D01*
Y244853D01*
X218971D01*
Y244265D01*
X218676D01*
Y243676D01*
X218382D01*
Y243088D01*
X218088D01*
Y242794D01*
X217794D01*
Y242206D01*
X217500D01*
Y241618D01*
X217206D01*
Y241324D01*
X216912D01*
Y241029D01*
X216618D01*
Y240441D01*
X216324D01*
Y240147D01*
X216029D01*
Y239853D01*
X215735D01*
Y239559D01*
X215441D01*
Y238971D01*
X215147D01*
Y238676D01*
X214853D01*
Y238382D01*
X214559D01*
Y238088D01*
X214265D01*
Y237500D01*
X213971D01*
Y237206D01*
X213676D01*
Y236912D01*
X213382D01*
Y236324D01*
X213088D01*
Y236029D01*
X212794D01*
Y235735D01*
X212500D01*
Y235441D01*
X212206D01*
Y234853D01*
X211912D01*
Y234559D01*
X211324D01*
Y234265D01*
X210735D01*
Y233971D01*
X209853D01*
Y233676D01*
X209265D01*
Y233382D01*
X208382D01*
Y233088D01*
X207794D01*
Y232794D01*
X206912D01*
Y232500D01*
X206324D01*
Y232206D01*
X205441D01*
Y231912D01*
X204853D01*
Y231618D01*
X204265D01*
Y231324D01*
X203382D01*
Y231029D01*
X202794D01*
Y231324D01*
X202206D01*
Y231029D01*
X201912D01*
Y231324D01*
X197206D01*
Y231029D01*
X196912D01*
Y231324D01*
X196618D01*
Y231029D01*
X196324D01*
Y231324D01*
X196029D01*
Y231029D01*
X195147D01*
Y228971D01*
X194853D01*
Y227500D01*
X194559D01*
Y226324D01*
X194265D01*
Y225147D01*
X193971D01*
Y223971D01*
X193676D01*
Y223382D01*
X192794D01*
Y223088D01*
X192206D01*
Y222794D01*
X191618D01*
Y222500D01*
X191029D01*
Y222206D01*
X190147D01*
Y221912D01*
X189559D01*
Y221618D01*
X188971D01*
Y221324D01*
X188382D01*
Y221029D01*
X187794D01*
Y220735D01*
X187206D01*
Y220441D01*
X186618D01*
Y220147D01*
X186029D01*
Y219853D01*
X185441D01*
Y219559D01*
X184853D01*
Y219265D01*
X184265D01*
Y218971D01*
X183382D01*
Y218676D01*
X179853D01*
Y218382D01*
X179265D01*
Y216029D01*
X178676D01*
Y215735D01*
X178382D01*
Y216029D01*
X176029D01*
Y215735D01*
X174265D01*
Y214559D01*
X173971D01*
Y213088D01*
X173676D01*
Y211618D01*
X173382D01*
Y210147D01*
X173088D01*
Y208971D01*
X172794D01*
Y207794D01*
X172500D01*
Y206912D01*
X172206D01*
Y205735D01*
X171912D01*
Y204853D01*
X171618D01*
Y204265D01*
X171324D01*
Y203382D01*
X171029D01*
Y202794D01*
X170735D01*
Y201912D01*
X170441D01*
Y201324D01*
X170147D01*
Y200735D01*
X169853D01*
Y199853D01*
X169559D01*
Y199265D01*
X169265D01*
Y198676D01*
X168971D01*
Y198088D01*
X168676D01*
Y197500D01*
X168382D01*
Y197206D01*
X168088D01*
Y196618D01*
X167794D01*
Y196029D01*
X167500D01*
Y195735D01*
X167206D01*
Y195147D01*
X166912D01*
Y194559D01*
X166618D01*
Y194265D01*
X166324D01*
Y193676D01*
X166029D01*
Y193382D01*
X165735D01*
Y192794D01*
X165441D01*
Y192500D01*
X165147D01*
Y191912D01*
X164853D01*
Y191618D01*
X164559D01*
Y191029D01*
X164265D01*
Y190735D01*
X163971D01*
Y190441D01*
X163676D01*
Y190147D01*
X163088D01*
Y189853D01*
X162794D01*
Y189559D01*
X162500D01*
Y189265D01*
X162206D01*
Y188971D01*
X161912D01*
Y188676D01*
X161324D01*
Y188382D01*
X161029D01*
Y188088D01*
X160735D01*
Y187794D01*
X160441D01*
Y187500D01*
X159853D01*
Y187206D01*
X159559D01*
Y186912D01*
X159265D01*
Y186618D01*
X158971D01*
Y186324D01*
X158677D01*
Y186029D01*
X158088D01*
Y185735D01*
X157794D01*
Y185441D01*
X157500D01*
Y185147D01*
X157206D01*
Y184853D01*
X156912D01*
Y184559D01*
X156323D01*
Y184265D01*
X156029D01*
Y183971D01*
X155735D01*
Y183676D01*
X155441D01*
Y183382D01*
X154853D01*
Y183088D01*
X154559D01*
Y182794D01*
X154265D01*
Y182500D01*
X153971D01*
Y182206D01*
X153382D01*
Y181912D01*
X153088D01*
Y181618D01*
X152794D01*
Y181324D01*
X152500D01*
Y181029D01*
X151912D01*
Y180735D01*
X151618D01*
Y180441D01*
X151323D01*
Y180147D01*
X151029D01*
Y179853D01*
X150441D01*
Y179559D01*
X150147D01*
Y179265D01*
X149853D01*
Y178971D01*
X149559D01*
Y178676D01*
X148971D01*
Y178382D01*
X148677D01*
Y178088D01*
X148382D01*
Y177794D01*
X147794D01*
Y177500D01*
X147500D01*
Y177206D01*
X147206D01*
Y176912D01*
X146912D01*
Y176618D01*
X146618D01*
Y176324D01*
X146029D01*
Y176029D01*
X145735D01*
Y175735D01*
X145441D01*
Y175441D01*
X144853D01*
Y175147D01*
X144559D01*
Y174853D01*
X144265D01*
Y174559D01*
X143971D01*
Y174265D01*
X143382D01*
Y173971D01*
X143088D01*
Y173676D01*
X142794D01*
Y173382D01*
X142500D01*
Y173088D01*
X141912D01*
Y172794D01*
X141618D01*
Y172500D01*
X141323D01*
Y172206D01*
X141029D01*
Y171912D01*
X140441D01*
Y171618D01*
X140147D01*
Y171324D01*
X139853D01*
Y171029D01*
X139559D01*
Y170735D01*
X138971D01*
Y170441D01*
X138677D01*
Y170147D01*
X138382D01*
Y169559D01*
X138088D01*
Y168971D01*
X137794D01*
Y168382D01*
X137500D01*
Y167794D01*
X137206D01*
Y167206D01*
X136912D01*
Y166618D01*
X136618D01*
Y165735D01*
X136324D01*
Y165147D01*
X136029D01*
Y164853D01*
X135735D01*
Y164559D01*
X135147D01*
Y164265D01*
X134853D01*
Y163971D01*
X134265D01*
Y163676D01*
X133971D01*
Y163382D01*
X133382D01*
Y163088D01*
X133088D01*
Y162794D01*
X132794D01*
Y162500D01*
X132206D01*
Y162206D01*
X131912D01*
Y161912D01*
X131618D01*
Y161618D01*
X131029D01*
Y161324D01*
X130735D01*
Y161029D01*
X130147D01*
Y160735D01*
X129559D01*
Y160441D01*
X129265D01*
Y160147D01*
X128677D01*
Y159853D01*
X127794D01*
Y159559D01*
X127206D01*
Y159265D01*
X126618D01*
Y158971D01*
X126029D01*
Y158677D01*
X125147D01*
Y158382D01*
X124559D01*
Y158088D01*
X123971D01*
Y157794D01*
X123382D01*
Y157500D01*
X122500D01*
Y157206D01*
X121912D01*
Y156912D01*
X121323D01*
Y156618D01*
X120441D01*
Y156323D01*
X119853D01*
Y156029D01*
X119559D01*
Y155735D01*
X117794D01*
Y155441D01*
X117500D01*
Y155735D01*
X116912D01*
Y155441D01*
X112500D01*
Y155147D01*
X112206D01*
Y155441D01*
X111912D01*
Y155147D01*
X107206D01*
Y154853D01*
X106618D01*
Y155147D01*
X106323D01*
Y154853D01*
X105735D01*
Y155147D01*
X104853D01*
Y155441D01*
X103971D01*
Y155735D01*
X102794D01*
Y156029D01*
X101912D01*
Y156323D01*
X100735D01*
Y156618D01*
X99559D01*
Y156912D01*
X98677D01*
Y157206D01*
X97794D01*
Y157500D01*
X96618D01*
Y157794D01*
X95441D01*
Y158088D01*
X94559D01*
Y158382D01*
X93382D01*
Y158677D01*
X92500D01*
Y158971D01*
X91323D01*
Y159265D01*
X90441D01*
Y159559D01*
X90147D01*
Y160441D01*
X89853D01*
Y161029D01*
X89559D01*
Y161912D01*
X89265D01*
Y162794D01*
X88971D01*
Y163382D01*
X88677D01*
Y164265D01*
X88382D01*
Y164853D01*
X88088D01*
Y165735D01*
X87794D01*
Y166324D01*
X87500D01*
Y167206D01*
X87206D01*
Y168088D01*
X86912D01*
Y168676D01*
X86618D01*
Y170735D01*
X86912D01*
Y171618D01*
X87206D01*
Y172794D01*
X87500D01*
Y173971D01*
X87794D01*
Y174853D01*
X88088D01*
Y176029D01*
X88382D01*
Y176912D01*
X88677D01*
Y178088D01*
X88971D01*
Y179265D01*
X89265D01*
Y180147D01*
X89559D01*
Y181324D01*
X89853D01*
Y182500D01*
X90147D01*
Y183676D01*
X90441D01*
Y184853D01*
X90735D01*
Y186029D01*
X91029D01*
Y187500D01*
X91323D01*
Y188676D01*
X91618D01*
Y190147D01*
X91912D01*
Y191618D01*
X92206D01*
Y193088D01*
X92500D01*
Y194265D01*
X92794D01*
Y195735D01*
X93088D01*
Y196912D01*
X93382D01*
Y198088D01*
X93677D01*
Y198971D01*
X93971D01*
Y200147D01*
X94265D01*
Y201029D01*
X94559D01*
Y201912D01*
X94853D01*
Y202794D01*
X95147D01*
Y203676D01*
X95441D01*
Y203971D01*
Y204559D01*
X95735D01*
Y205441D01*
X96029D01*
Y206324D01*
X96324D01*
Y207206D01*
X96618D01*
Y208088D01*
X96912D01*
Y208971D01*
X97206D01*
Y209853D01*
X97500D01*
Y210441D01*
X97794D01*
Y211324D01*
X98088D01*
Y212206D01*
X98382D01*
Y214853D01*
X98088D01*
Y216912D01*
X97794D01*
Y218971D01*
X97500D01*
Y221029D01*
X97206D01*
Y223088D01*
X96912D01*
Y225147D01*
X96618D01*
Y227206D01*
X95735D01*
Y226912D01*
X94853D01*
Y226618D01*
X94265D01*
Y226324D01*
X93382D01*
Y226029D01*
X92794D01*
Y225735D01*
X91912D01*
Y225441D01*
X91323D01*
Y225147D01*
X90441D01*
Y224853D01*
X89853D01*
Y224559D01*
X88971D01*
Y224265D01*
X88382D01*
Y223971D01*
X87794D01*
Y223676D01*
X86912D01*
Y223382D01*
X86324D01*
Y223088D01*
X82794D01*
Y222794D01*
X81323D01*
Y223088D01*
X80735D01*
Y222794D01*
X80441D01*
Y223088D01*
X80147D01*
Y222794D01*
X78971D01*
Y223088D01*
X76618D01*
Y223382D01*
X74853D01*
Y223676D01*
X73677D01*
Y223971D01*
X72500D01*
Y224265D01*
X71324D01*
Y224559D01*
X70441D01*
Y224853D01*
X69559D01*
Y225147D01*
X68971D01*
Y225441D01*
X68382D01*
Y225735D01*
X67500D01*
Y226029D01*
X66912D01*
Y226324D01*
X66323D01*
Y226618D01*
X65735D01*
Y226912D01*
X65441D01*
Y227206D01*
X64853D01*
Y227500D01*
X64265D01*
Y227794D01*
X63677D01*
Y228088D01*
X63382D01*
Y228382D01*
X62794D01*
Y228676D01*
X62500D01*
Y228971D01*
X62206D01*
Y229265D01*
X61618D01*
Y229559D01*
X61324D01*
Y229853D01*
X61029D01*
Y230147D01*
X60441D01*
Y230441D01*
X60147D01*
Y230735D01*
X59853D01*
Y231029D01*
X59559D01*
Y231324D01*
X59265D01*
Y231618D01*
X58971D01*
Y231912D01*
X58677D01*
Y232206D01*
X58382D01*
Y232500D01*
X58088D01*
Y232794D01*
X57794D01*
Y233088D01*
X57500D01*
Y233382D01*
X57206D01*
Y233676D01*
X56912D01*
Y233971D01*
X56618D01*
Y234265D01*
X56324D01*
Y234559D01*
X56029D01*
Y234853D01*
X55735D01*
Y235147D01*
X55441D01*
Y235735D01*
X55147D01*
Y236029D01*
X54853D01*
Y236324D01*
X54559D01*
Y236618D01*
X54265D01*
Y237206D01*
X53971D01*
Y237500D01*
X53677D01*
Y238088D01*
X53382D01*
Y238382D01*
X53088D01*
Y238971D01*
X52794D01*
Y239265D01*
X52500D01*
Y239853D01*
X52206D01*
Y240441D01*
X51912D01*
Y241029D01*
X51618D01*
Y241324D01*
X51323D01*
Y241912D01*
X51029D01*
Y242794D01*
X50735D01*
Y243382D01*
X50441D01*
Y243971D01*
X50147D01*
Y244559D01*
X49853D01*
Y245441D01*
X49559D01*
Y246324D01*
X49265D01*
Y247206D01*
X48971D01*
Y248088D01*
X48677D01*
Y249265D01*
X48382D01*
Y250441D01*
X48088D01*
Y251912D01*
X47794D01*
Y253676D01*
X47500D01*
Y257206D01*
X47206D01*
Y260147D01*
X47500D01*
Y263382D01*
X47794D01*
Y265441D01*
X48088D01*
Y266324D01*
X47206D01*
Y266618D01*
X46618D01*
Y266912D01*
X45735D01*
Y267206D01*
X44853D01*
Y267500D01*
X44265D01*
Y267794D01*
X43382D01*
Y268088D01*
X42794D01*
Y268382D01*
X41912D01*
Y268676D01*
X41323D01*
Y268971D01*
X40441D01*
Y269265D01*
X39853D01*
Y269559D01*
X38971D01*
Y269853D01*
X38088D01*
Y270147D01*
X37500D01*
Y270441D01*
X36618D01*
Y270735D01*
X36029D01*
Y271324D01*
X35735D01*
Y271618D01*
X35441D01*
Y272794D01*
X35735D01*
Y273088D01*
X36029D01*
Y273382D01*
X36323D01*
Y273676D01*
X39265D01*
Y273382D01*
X40735D01*
Y273088D01*
X41912D01*
Y272794D01*
X43088D01*
Y272500D01*
X44265D01*
Y272206D01*
X45441D01*
Y271912D01*
X46912D01*
Y271618D01*
X48088D01*
Y271324D01*
X48382D01*
Y271618D01*
X49559D01*
Y271912D01*
X49853D01*
Y272500D01*
X50147D01*
Y273382D01*
X50441D01*
Y273971D01*
X50735D01*
Y274559D01*
X51029D01*
Y275147D01*
X51323D01*
Y275735D01*
X51618D01*
Y276324D01*
X51912D01*
Y276912D01*
X52206D01*
Y277500D01*
X52500D01*
Y277794D01*
X52794D01*
Y278382D01*
X53088D01*
Y278676D01*
X53382D01*
Y279265D01*
X53677D01*
Y279559D01*
X53971D01*
Y280147D01*
X54265D01*
Y280441D01*
X54559D01*
Y281029D01*
X54853D01*
Y281324D01*
X55147D01*
Y281618D01*
X54853D01*
Y281912D01*
X54559D01*
Y282206D01*
X54265D01*
Y282500D01*
X53971D01*
Y282794D01*
X53677D01*
Y283382D01*
X53382D01*
Y283676D01*
X52794D01*
Y285147D01*
X52500D01*
Y285441D01*
X52206D01*
Y285735D01*
X51912D01*
Y286029D01*
X51618D01*
Y286324D01*
X51323D01*
Y286618D01*
X51029D01*
Y286912D01*
X50735D01*
Y287206D01*
X50441D01*
Y287500D01*
X50147D01*
Y287794D01*
X49853D01*
Y288088D01*
X49559D01*
Y288382D01*
X49265D01*
Y288676D01*
X48971D01*
Y288971D01*
X48677D01*
Y289265D01*
X48382D01*
Y289559D01*
X48088D01*
Y289853D01*
X47794D01*
Y290147D01*
X47500D01*
Y290441D01*
X47206D01*
Y291029D01*
X46912D01*
Y291324D01*
X46618D01*
Y291618D01*
X46324D01*
Y291912D01*
X45735D01*
Y292500D01*
X45441D01*
Y292794D01*
X45147D01*
Y293088D01*
X44853D01*
Y293382D01*
X44559D01*
Y293676D01*
X44265D01*
Y293971D01*
X43971D01*
Y294265D01*
X43677D01*
Y294559D01*
X43382D01*
Y296912D01*
X43677D01*
Y297206D01*
X43971D01*
Y297500D01*
X44265D01*
Y297794D01*
X44559D01*
Y298088D01*
X45147D01*
Y298382D01*
X46912D01*
Y298088D01*
X47500D01*
Y297794D01*
X48382D01*
Y297500D01*
X49265D01*
Y297206D01*
X49853D01*
Y296912D01*
X50735D01*
Y296618D01*
X51618D01*
Y296324D01*
X52206D01*
Y296029D01*
X53088D01*
Y295735D01*
X53677D01*
Y295441D01*
X54559D01*
Y295147D01*
X55441D01*
Y294853D01*
X56324D01*
Y294559D01*
X56912D01*
Y294265D01*
X57794D01*
Y293971D01*
X58677D01*
Y293676D01*
X59265D01*
Y293382D01*
X60147D01*
Y293088D01*
X60735D01*
Y292794D01*
X61618D01*
Y292500D01*
X62500D01*
Y292206D01*
X63088D01*
Y291912D01*
X63971D01*
Y291618D01*
X64853D01*
Y291324D01*
X65441D01*
Y291029D01*
X66323D01*
Y290735D01*
X66618D01*
Y291029D01*
X67206D01*
Y291324D01*
X67794D01*
Y291618D01*
X68382D01*
Y291912D01*
X69265D01*
Y292206D01*
X69853D01*
Y292500D01*
X70735D01*
Y292794D01*
X71618D01*
Y293088D01*
X72794D01*
Y293382D01*
X73382D01*
Y295147D01*
X73088D01*
Y298088D01*
X73382D01*
Y300147D01*
X73088D01*
Y301912D01*
X72794D01*
Y303676D01*
X72500D01*
Y305441D01*
X72206D01*
Y307206D01*
X71912D01*
Y308971D01*
X71618D01*
Y310735D01*
X71324D01*
Y312794D01*
X71029D01*
Y313971D01*
X71324D01*
Y314853D01*
X71618D01*
Y315147D01*
X71912D01*
Y315441D01*
X72206D01*
Y315735D01*
X72794D01*
Y316029D01*
X75441D01*
Y315735D01*
D02*
G37*
%LPC*%
G36*
X77794Y298676D02*
X77500D01*
Y298382D01*
X77206D01*
Y298676D01*
X75735D01*
Y298382D01*
X74559D01*
Y298088D01*
X73971D01*
Y297794D01*
X73677D01*
Y297206D01*
Y296912D01*
Y295147D01*
X73971D01*
Y293676D01*
X75441D01*
Y293971D01*
X77206D01*
Y294265D01*
X78677D01*
Y295441D01*
X78382D01*
Y297206D01*
X78088D01*
Y298382D01*
X77794D01*
Y298676D01*
D02*
G37*
G36*
X75441Y315441D02*
X73088D01*
Y315147D01*
X72500D01*
Y314853D01*
X72206D01*
Y314559D01*
X71912D01*
Y313971D01*
X71618D01*
Y312794D01*
X71912D01*
Y311324D01*
X72206D01*
Y308971D01*
X72500D01*
Y307206D01*
X72794D01*
Y305441D01*
X73088D01*
Y303676D01*
X73382D01*
Y301912D01*
X73677D01*
Y300147D01*
X73971D01*
Y298676D01*
X74265D01*
Y298971D01*
X76029D01*
Y299265D01*
X76323D01*
Y300735D01*
X76029D01*
Y302500D01*
X75735D01*
Y304265D01*
X75441D01*
Y306324D01*
X75147D01*
Y307794D01*
X74853D01*
Y309853D01*
X74559D01*
Y311618D01*
X74265D01*
Y313382D01*
X73971D01*
Y313676D01*
X74559D01*
Y313382D01*
X74853D01*
Y312500D01*
X75441D01*
Y312206D01*
X76323D01*
Y311912D01*
X77206D01*
Y311618D01*
X77794D01*
Y311324D01*
X78677D01*
Y311029D01*
X79559D01*
Y310735D01*
X80441D01*
Y310441D01*
X81029D01*
Y310147D01*
X81912D01*
Y309853D01*
X82794D01*
Y309559D01*
X83677D01*
Y309265D01*
X84559D01*
Y308971D01*
X85441D01*
Y308676D01*
X86324D01*
Y308382D01*
X86912D01*
Y308088D01*
X87794D01*
Y307794D01*
X88677D01*
Y307500D01*
X89559D01*
Y307206D01*
X90147D01*
Y306912D01*
X90735D01*
Y306618D01*
X91618D01*
Y306324D01*
X92206D01*
Y306029D01*
X92794D01*
Y303971D01*
X93088D01*
Y298088D01*
X93382D01*
Y294853D01*
X94265D01*
Y295147D01*
X94853D01*
Y299265D01*
X95147D01*
Y304853D01*
X94853D01*
Y306029D01*
X94559D01*
Y306618D01*
X94265D01*
Y306912D01*
X93971D01*
Y307206D01*
X93382D01*
Y307500D01*
X92794D01*
Y307794D01*
X92206D01*
Y308088D01*
X91618D01*
Y308382D01*
X91029D01*
Y308676D01*
X90147D01*
Y308971D01*
X89559D01*
Y309265D01*
X88971D01*
Y309559D01*
X88382D01*
Y309853D01*
X87794D01*
Y310147D01*
X87206D01*
Y310441D01*
X86324D01*
Y310735D01*
X85735D01*
Y311029D01*
X85147D01*
Y311324D01*
X84559D01*
Y311618D01*
X83677D01*
Y311912D01*
X83088D01*
Y312206D01*
X82500D01*
Y312500D01*
X81912D01*
Y312794D01*
X81323D01*
Y313088D01*
X80441D01*
Y313382D01*
X79853D01*
Y313676D01*
X79265D01*
Y313971D01*
X78677D01*
Y314265D01*
X77794D01*
Y314559D01*
X77206D01*
Y314853D01*
X76323D01*
Y315147D01*
X75441D01*
Y315441D01*
D02*
G37*
G36*
Y311912D02*
X74853D01*
Y311618D01*
X75147D01*
Y309853D01*
X75441D01*
Y308088D01*
X75735D01*
Y306324D01*
X76029D01*
Y304265D01*
X76323D01*
Y302500D01*
X76618D01*
Y300735D01*
X76912D01*
Y299265D01*
X77794D01*
Y298971D01*
X78382D01*
Y298676D01*
X78677D01*
Y297206D01*
X78971D01*
Y295441D01*
X79265D01*
Y294265D01*
X85147D01*
Y293971D01*
X86912D01*
Y293676D01*
X88382D01*
Y293382D01*
X90441D01*
Y293676D01*
X91029D01*
Y293971D01*
X91912D01*
Y294265D01*
X92794D01*
Y298088D01*
X92500D01*
Y303971D01*
X92206D01*
Y305735D01*
X91323D01*
Y306029D01*
X90735D01*
Y306324D01*
X89853D01*
Y306618D01*
X89265D01*
Y306912D01*
X88382D01*
Y307206D01*
X87794D01*
Y307500D01*
X86912D01*
Y307794D01*
X86029D01*
Y308088D01*
X85147D01*
Y308382D01*
X84559D01*
Y308676D01*
X83677D01*
Y308971D01*
X82794D01*
Y309265D01*
X81912D01*
Y309559D01*
X81029D01*
Y309853D01*
X80147D01*
Y310147D01*
X79265D01*
Y310441D01*
X78677D01*
Y310735D01*
X77794D01*
Y311029D01*
X76912D01*
Y311324D01*
X76323D01*
Y311618D01*
X75441D01*
Y311912D01*
D02*
G37*
G36*
X83088Y291618D02*
X78971D01*
Y291324D01*
X78677D01*
Y291618D01*
X78382D01*
Y291324D01*
X75735D01*
Y291029D01*
X73971D01*
Y290735D01*
X73088D01*
Y290441D01*
X72206D01*
Y290147D01*
X71324D01*
Y289853D01*
X70735D01*
Y289559D01*
X69853D01*
Y289265D01*
X69265D01*
Y288971D01*
X68677D01*
Y288676D01*
X68088D01*
Y288382D01*
X67794D01*
Y288088D01*
X67206D01*
Y287794D01*
X66618D01*
Y287500D01*
X66323D01*
Y287206D01*
X65735D01*
Y286912D01*
X65147D01*
Y286618D01*
X64853D01*
Y286324D01*
X64265D01*
Y286029D01*
X63971D01*
Y285735D01*
X63382D01*
Y285441D01*
X63088D01*
Y285147D01*
X62794D01*
Y284853D01*
X62206D01*
Y284559D01*
X61912D01*
Y284265D01*
X61618D01*
Y283971D01*
X61324D01*
Y283676D01*
X61029D01*
Y283382D01*
X60735D01*
Y283088D01*
X60441D01*
Y282794D01*
X60147D01*
Y282500D01*
X59853D01*
Y282206D01*
X59559D01*
Y281912D01*
X59265D01*
Y281618D01*
X58971D01*
Y281029D01*
X58677D01*
Y280735D01*
X58382D01*
Y280441D01*
X58088D01*
Y280147D01*
X57794D01*
Y279559D01*
X57500D01*
Y279265D01*
X57206D01*
Y278971D01*
X56912D01*
Y278676D01*
X56618D01*
Y278088D01*
X56324D01*
Y277794D01*
X56029D01*
Y277206D01*
X55735D01*
Y276912D01*
X55441D01*
Y276324D01*
X55147D01*
Y276029D01*
X54853D01*
Y275441D01*
X54559D01*
Y275147D01*
X54265D01*
Y274559D01*
X53971D01*
Y274265D01*
X53677D01*
Y273676D01*
X53382D01*
Y273088D01*
X53088D01*
Y272500D01*
X52794D01*
Y271912D01*
X52500D01*
Y271324D01*
X52206D01*
Y270441D01*
X51912D01*
Y269853D01*
X51618D01*
Y268676D01*
X51323D01*
Y267794D01*
X51029D01*
Y266324D01*
X51323D01*
Y266029D01*
X52500D01*
Y265735D01*
X53382D01*
Y265441D01*
X54559D01*
Y265147D01*
X55735D01*
Y264853D01*
X56912D01*
Y264559D01*
X58088D01*
Y264265D01*
X59265D01*
Y263971D01*
X59559D01*
Y264265D01*
X59853D01*
Y265441D01*
X60147D01*
Y266324D01*
X60441D01*
Y267206D01*
X60735D01*
Y267794D01*
X61029D01*
Y268382D01*
X61324D01*
Y268971D01*
X61618D01*
Y269559D01*
X61912D01*
Y270147D01*
X62206D01*
Y270441D01*
X62500D01*
Y271029D01*
X62794D01*
Y271618D01*
X63088D01*
Y271912D01*
X63382D01*
Y272206D01*
X63677D01*
Y272794D01*
X63971D01*
Y273088D01*
X64265D01*
Y273382D01*
X64559D01*
Y273676D01*
X64853D01*
Y273971D01*
X65147D01*
Y274265D01*
X65441D01*
Y274559D01*
X65735D01*
Y274853D01*
X66029D01*
Y275147D01*
X66323D01*
Y275441D01*
X66618D01*
Y275735D01*
X66912D01*
Y276029D01*
X67206D01*
Y276324D01*
X67794D01*
Y276618D01*
X68088D01*
Y276912D01*
X68382D01*
Y277206D01*
X68971D01*
Y277500D01*
X69265D01*
Y277794D01*
X69853D01*
Y278088D01*
X70441D01*
Y278382D01*
X71029D01*
Y278676D01*
X71618D01*
Y278971D01*
X72206D01*
Y279265D01*
X72794D01*
Y279559D01*
X73677D01*
Y279853D01*
X74853D01*
Y280147D01*
X75735D01*
Y280441D01*
X77206D01*
Y280735D01*
X83677D01*
Y280441D01*
X85441D01*
Y280147D01*
X86324D01*
Y279853D01*
X87500D01*
Y279559D01*
X88088D01*
Y279265D01*
X88971D01*
Y278971D01*
X89559D01*
Y278676D01*
X90147D01*
Y278382D01*
X90735D01*
Y278088D01*
X91323D01*
Y277794D01*
X91618D01*
Y277500D01*
X92206D01*
Y277206D01*
X92794D01*
Y276912D01*
X93088D01*
Y276618D01*
X93382D01*
Y276324D01*
X93677D01*
Y276029D01*
X94265D01*
Y275735D01*
X94559D01*
Y275441D01*
X94853D01*
Y275147D01*
X95147D01*
Y274853D01*
X95441D01*
Y274559D01*
X95735D01*
Y274265D01*
X96029D01*
Y273971D01*
X96324D01*
Y273676D01*
X96618D01*
Y273382D01*
X96912D01*
Y273088D01*
X97206D01*
Y272500D01*
X97500D01*
Y272206D01*
X97794D01*
Y271912D01*
X98088D01*
Y271324D01*
X98382D01*
Y271029D01*
X98677D01*
Y270441D01*
X98971D01*
Y269853D01*
X99265D01*
Y269559D01*
X99559D01*
Y268971D01*
X99853D01*
Y268382D01*
X100147D01*
Y267794D01*
X100441D01*
Y266912D01*
X100735D01*
Y266029D01*
X101029D01*
Y265147D01*
X101323D01*
Y263971D01*
X101618D01*
Y262500D01*
X101912D01*
Y261324D01*
X112206D01*
Y262206D01*
X111912D01*
Y263382D01*
X111618D01*
Y264559D01*
X111324D01*
Y265735D01*
X111029D01*
Y266912D01*
X110735D01*
Y268088D01*
X110441D01*
Y268971D01*
X110147D01*
Y270147D01*
X109853D01*
Y271029D01*
X109559D01*
Y271618D01*
X109265D01*
Y272500D01*
X108971D01*
Y273088D01*
X108677D01*
Y273676D01*
X108382D01*
Y274265D01*
X108088D01*
Y274853D01*
X107794D01*
Y275441D01*
X107500D01*
Y276029D01*
X107206D01*
Y276324D01*
X106912D01*
Y276912D01*
X106618D01*
Y277500D01*
X106323D01*
Y277794D01*
X106029D01*
Y278382D01*
X105735D01*
Y278676D01*
X105441D01*
Y279265D01*
X105147D01*
Y279559D01*
X104853D01*
Y279853D01*
X104559D01*
Y280147D01*
X104265D01*
Y280735D01*
X103971D01*
Y281029D01*
X103677D01*
Y281324D01*
X103382D01*
Y281618D01*
X103088D01*
Y281912D01*
X102794D01*
Y282206D01*
X102500D01*
Y282500D01*
X102206D01*
Y282794D01*
X101912D01*
Y283088D01*
X101323D01*
Y283382D01*
X101029D01*
Y283676D01*
X100735D01*
Y283971D01*
X100441D01*
Y284265D01*
X99853D01*
Y284559D01*
X99559D01*
Y284853D01*
X99265D01*
Y285147D01*
X98677D01*
Y285441D01*
X98382D01*
Y285735D01*
X98088D01*
Y286029D01*
X97500D01*
Y286324D01*
X97206D01*
Y286618D01*
X96912D01*
Y286912D01*
X96324D01*
Y287206D01*
X96029D01*
Y287500D01*
X95735D01*
Y287794D01*
X95147D01*
Y288088D01*
X94853D01*
Y288382D01*
X93971D01*
Y288676D01*
X93088D01*
Y288971D01*
X92206D01*
Y289265D01*
X91618D01*
Y289559D01*
X90735D01*
Y289853D01*
X89853D01*
Y290147D01*
X88971D01*
Y290441D01*
X88088D01*
Y290735D01*
X86912D01*
Y291029D01*
X85735D01*
Y291324D01*
X83088D01*
Y291618D01*
D02*
G37*
G36*
X47500Y297500D02*
X47206D01*
Y297206D01*
X47500D01*
Y296912D01*
X47794D01*
Y296618D01*
X48088D01*
Y296324D01*
X48382D01*
Y296029D01*
X48677D01*
Y295735D01*
X48971D01*
Y295441D01*
X49265D01*
Y295147D01*
X49559D01*
Y294853D01*
X49853D01*
Y294559D01*
X50147D01*
Y294265D01*
X51029D01*
Y293971D01*
X51618D01*
Y293676D01*
X52500D01*
Y293382D01*
X53382D01*
Y293088D01*
X54265D01*
Y292794D01*
X54853D01*
Y292500D01*
X55735D01*
Y292206D01*
X56618D01*
Y291912D01*
X57500D01*
Y291618D01*
X58088D01*
Y291324D01*
X58971D01*
Y291029D01*
X59853D01*
Y290735D01*
X60441D01*
Y290441D01*
X61324D01*
Y290147D01*
X62206D01*
Y289853D01*
X63088D01*
Y289559D01*
X63677D01*
Y289265D01*
X63971D01*
Y289559D01*
X64559D01*
Y289853D01*
X64853D01*
Y290147D01*
X65441D01*
Y290735D01*
X64559D01*
Y291029D01*
X63971D01*
Y291324D01*
X63088D01*
Y291618D01*
X62206D01*
Y291912D01*
X61618D01*
Y292206D01*
X60735D01*
Y292500D01*
X60147D01*
Y292794D01*
X59265D01*
Y293088D01*
X58382D01*
Y293382D01*
X57794D01*
Y293676D01*
X56912D01*
Y293971D01*
X56029D01*
Y294265D01*
X55441D01*
Y294559D01*
X54559D01*
Y294853D01*
X53677D01*
Y295147D01*
X52794D01*
Y295441D01*
X52206D01*
Y295735D01*
X51323D01*
Y296029D01*
X50735D01*
Y296324D01*
X49853D01*
Y296618D01*
X48971D01*
Y296912D01*
X48382D01*
Y297206D01*
X47500D01*
Y297500D01*
D02*
G37*
G36*
X51618Y293382D02*
X51323D01*
Y293088D01*
X51618D01*
Y292794D01*
X51912D01*
Y292206D01*
X52206D01*
Y291912D01*
X52500D01*
Y291618D01*
X52794D01*
Y291324D01*
X53088D01*
Y291029D01*
X53382D01*
Y290735D01*
X53677D01*
Y290441D01*
X53971D01*
Y290147D01*
X54265D01*
Y289853D01*
X54559D01*
Y289559D01*
X54853D01*
Y289265D01*
X55147D01*
Y288971D01*
X55441D01*
Y288676D01*
X55735D01*
Y288382D01*
X56029D01*
Y288088D01*
X56618D01*
Y288382D01*
X57500D01*
Y288088D01*
X57794D01*
Y287794D01*
X58088D01*
Y287500D01*
X58677D01*
Y287206D01*
X58971D01*
Y286912D01*
X59265D01*
Y286618D01*
X60441D01*
Y286912D01*
X60735D01*
Y287206D01*
X61029D01*
Y287500D01*
X61324D01*
Y287794D01*
X61912D01*
Y288088D01*
X62206D01*
Y288382D01*
X62500D01*
Y288676D01*
X63088D01*
Y288971D01*
X62794D01*
Y289265D01*
X62206D01*
Y289559D01*
X61324D01*
Y289853D01*
X60441D01*
Y290147D01*
X59559D01*
Y290441D01*
X58971D01*
Y290735D01*
X58088D01*
Y291029D01*
X57206D01*
Y291324D01*
X56324D01*
Y291618D01*
X55735D01*
Y291912D01*
X54853D01*
Y292206D01*
X53971D01*
Y292500D01*
X53382D01*
Y292794D01*
X52500D01*
Y293088D01*
X51618D01*
Y293382D01*
D02*
G37*
G36*
X260147Y299853D02*
X257500D01*
Y299559D01*
X256324D01*
Y299265D01*
X255441D01*
Y298971D01*
X254853D01*
Y298676D01*
X254559D01*
Y298382D01*
X254265D01*
Y297794D01*
X253971D01*
Y297206D01*
X253676D01*
Y296324D01*
X253382D01*
Y295441D01*
X253088D01*
Y294265D01*
X252794D01*
Y292500D01*
X252500D01*
Y288971D01*
X252794D01*
Y288382D01*
X253088D01*
Y287794D01*
X253676D01*
Y287500D01*
X253971D01*
Y287206D01*
X254265D01*
Y286912D01*
X254853D01*
Y286618D01*
X255735D01*
Y286324D01*
X256324D01*
Y286029D01*
X256912D01*
Y285735D01*
X257500D01*
Y286029D01*
X258382D01*
Y286324D01*
X259265D01*
Y286618D01*
X259853D01*
Y286912D01*
X260441D01*
Y287206D01*
X261029D01*
Y287500D01*
X261324D01*
Y287794D01*
X261618D01*
Y288088D01*
X261912D01*
Y288382D01*
X262206D01*
Y288971D01*
X262500D01*
Y289853D01*
X262794D01*
Y290735D01*
X263088D01*
Y291912D01*
X263382D01*
Y295735D01*
X263088D01*
Y296324D01*
X262794D01*
Y296912D01*
X262500D01*
Y297206D01*
X262206D01*
Y297500D01*
X261912D01*
Y298088D01*
X261618D01*
Y298382D01*
X261324D01*
Y298676D01*
X261029D01*
Y298971D01*
X260735D01*
Y299265D01*
X260441D01*
Y299559D01*
X260147D01*
Y299853D01*
D02*
G37*
G36*
X46029Y297794D02*
X45441D01*
Y297500D01*
X44853D01*
Y297206D01*
X44559D01*
Y296912D01*
X43971D01*
Y294853D01*
X44265D01*
Y294559D01*
X44559D01*
Y294265D01*
X44853D01*
Y293971D01*
X45147D01*
Y293676D01*
X45441D01*
Y293088D01*
X45735D01*
Y292794D01*
X46029D01*
Y292500D01*
X46324D01*
Y292206D01*
X46618D01*
Y291912D01*
X46912D01*
Y291618D01*
X47206D01*
Y291324D01*
X47500D01*
Y291029D01*
X47794D01*
Y290735D01*
X48088D01*
Y290441D01*
X48382D01*
Y290147D01*
X48677D01*
Y289853D01*
X48971D01*
Y289559D01*
X49265D01*
Y289265D01*
X49559D01*
Y288971D01*
X49853D01*
Y288676D01*
X50147D01*
Y288382D01*
X50441D01*
Y288088D01*
X50735D01*
Y287794D01*
X51029D01*
Y287500D01*
X51323D01*
Y287206D01*
X51618D01*
Y286912D01*
X51912D01*
Y286618D01*
X52206D01*
Y286324D01*
X52500D01*
Y286029D01*
X52794D01*
Y285735D01*
X53088D01*
Y285441D01*
X53382D01*
Y285735D01*
X53677D01*
Y286029D01*
X53971D01*
Y286324D01*
X54559D01*
Y286618D01*
X54853D01*
Y286912D01*
X55147D01*
Y287206D01*
X55441D01*
Y287500D01*
X55735D01*
Y287794D01*
X55441D01*
Y288088D01*
X55147D01*
Y288382D01*
X54853D01*
Y288676D01*
X54559D01*
Y288971D01*
X54265D01*
Y289265D01*
X53971D01*
Y289559D01*
X53677D01*
Y289853D01*
X53382D01*
Y290147D01*
X53088D01*
Y290441D01*
X52794D01*
Y290735D01*
X52500D01*
Y291029D01*
X52206D01*
Y291324D01*
X51912D01*
Y291912D01*
X51618D01*
Y292206D01*
X51323D01*
Y292500D01*
X51029D01*
Y292794D01*
X50735D01*
Y293088D01*
X50441D01*
Y293382D01*
X50147D01*
Y293676D01*
X49853D01*
Y293971D01*
X49559D01*
Y294265D01*
X49265D01*
Y294559D01*
X48971D01*
Y294853D01*
X48677D01*
Y295147D01*
X48382D01*
Y295441D01*
X48088D01*
Y295735D01*
X47794D01*
Y296029D01*
X47500D01*
Y296324D01*
X47206D01*
Y296618D01*
X46912D01*
Y296912D01*
X46618D01*
Y297206D01*
X46324D01*
Y297500D01*
X46029D01*
Y297794D01*
D02*
G37*
G36*
X57206Y287794D02*
X56912D01*
Y287500D01*
X56324D01*
Y287206D01*
X56029D01*
Y286912D01*
X55735D01*
Y286618D01*
X55441D01*
Y286324D01*
X54853D01*
Y286029D01*
X54559D01*
Y285735D01*
X54265D01*
Y285441D01*
X53971D01*
Y285147D01*
X53677D01*
Y284559D01*
X53382D01*
Y284265D01*
X53677D01*
Y283971D01*
X53971D01*
Y283382D01*
X54265D01*
Y283088D01*
X54559D01*
Y282794D01*
X54853D01*
Y282500D01*
X55147D01*
Y282206D01*
X55441D01*
Y281912D01*
X55735D01*
Y282500D01*
X56029D01*
Y282794D01*
X56324D01*
Y283088D01*
X56618D01*
Y283382D01*
X56912D01*
Y283676D01*
X57206D01*
Y283971D01*
X57500D01*
Y284265D01*
X57794D01*
Y284559D01*
X58088D01*
Y284853D01*
X58382D01*
Y285147D01*
X58677D01*
Y285441D01*
X58971D01*
Y285735D01*
X59265D01*
Y286324D01*
X58677D01*
Y286618D01*
X58382D01*
Y286912D01*
X58088D01*
Y287206D01*
X57500D01*
Y287500D01*
X57206D01*
Y287794D01*
D02*
G37*
G36*
X211324Y278971D02*
X211029D01*
Y278676D01*
X210735D01*
Y278971D01*
X208382D01*
Y278676D01*
X208676D01*
Y278088D01*
X208971D01*
Y277794D01*
X209265D01*
Y277500D01*
X209559D01*
Y277206D01*
X209853D01*
Y276912D01*
X210147D01*
Y276618D01*
X210441D01*
Y276324D01*
X210735D01*
Y276029D01*
X211029D01*
Y275735D01*
X211324D01*
Y275441D01*
X211618D01*
Y275147D01*
X211912D01*
Y274853D01*
X212206D01*
Y274559D01*
X212500D01*
Y274265D01*
X212794D01*
Y273971D01*
X213088D01*
Y273676D01*
X213382D01*
Y273382D01*
X213676D01*
Y273088D01*
X213971D01*
Y272794D01*
X214265D01*
Y272500D01*
X214559D01*
Y272206D01*
X214853D01*
Y271912D01*
X215147D01*
Y271618D01*
X215441D01*
Y271324D01*
X215735D01*
Y271029D01*
X216029D01*
Y263088D01*
X216324D01*
Y262794D01*
X216618D01*
Y262500D01*
X216912D01*
Y262206D01*
X217206D01*
Y261912D01*
X217500D01*
Y261618D01*
X217794D01*
Y261324D01*
X217500D01*
Y261029D01*
X218088D01*
Y260735D01*
X218382D01*
Y259853D01*
X218676D01*
Y259265D01*
X218971D01*
Y258676D01*
X219265D01*
Y258088D01*
X219559D01*
Y257500D01*
X219853D01*
Y256618D01*
X220147D01*
Y255735D01*
X220441D01*
Y249265D01*
X220147D01*
Y247794D01*
X235441D01*
Y248088D01*
X235735D01*
Y248382D01*
X236029D01*
Y248971D01*
X236324D01*
Y249559D01*
X236618D01*
Y250441D01*
X236912D01*
Y251324D01*
X237206D01*
Y252500D01*
X237500D01*
Y256618D01*
X237206D01*
Y256912D01*
X220441D01*
Y257500D01*
X220735D01*
Y257206D01*
X237206D01*
Y258971D01*
X236912D01*
Y260441D01*
X236618D01*
Y261324D01*
X236324D01*
Y261618D01*
X236029D01*
Y261912D01*
X235735D01*
Y262500D01*
X235441D01*
Y262794D01*
X235147D01*
Y263088D01*
X234853D01*
Y263676D01*
X234559D01*
Y263971D01*
X234265D01*
Y264265D01*
X233971D01*
Y264853D01*
X233676D01*
Y265147D01*
X233382D01*
Y265441D01*
X233088D01*
Y266029D01*
X232794D01*
Y266324D01*
X232500D01*
Y266618D01*
X232206D01*
Y267206D01*
X231912D01*
Y267500D01*
X231618D01*
Y267794D01*
X231324D01*
Y268382D01*
X231029D01*
Y268676D01*
X230735D01*
Y268971D01*
X230441D01*
Y269559D01*
X230147D01*
Y269853D01*
X229853D01*
Y270147D01*
X229559D01*
Y270735D01*
X229265D01*
Y271029D01*
X228971D01*
Y271324D01*
X228676D01*
Y271912D01*
X228382D01*
Y272206D01*
X228088D01*
Y272500D01*
X227500D01*
Y272794D01*
X227206D01*
Y273088D01*
X226912D01*
Y273382D01*
X226324D01*
Y273676D01*
X226029D01*
Y273971D01*
X225441D01*
Y274265D01*
X225147D01*
Y274559D01*
X224853D01*
Y274853D01*
X224265D01*
Y275147D01*
X223971D01*
Y275441D01*
X223382D01*
Y275735D01*
X223088D01*
Y276029D01*
X222794D01*
Y276324D01*
X222206D01*
Y276618D01*
X221912D01*
Y276912D01*
X221618D01*
Y277206D01*
X221029D01*
Y277500D01*
X220735D01*
Y277794D01*
X220147D01*
Y278088D01*
X219853D01*
Y278382D01*
X219559D01*
Y278088D01*
X218971D01*
Y278382D01*
X215147D01*
Y278676D01*
X211324D01*
Y278971D01*
D02*
G37*
G36*
X97206Y295147D02*
X96029D01*
Y294853D01*
X95441D01*
Y294559D01*
X94559D01*
Y294265D01*
X93677D01*
Y293971D01*
X92794D01*
Y293676D01*
X91912D01*
Y293382D01*
X91323D01*
Y293088D01*
X90735D01*
Y292794D01*
X91618D01*
Y292500D01*
X92500D01*
Y292206D01*
X93088D01*
Y291912D01*
X93971D01*
Y291618D01*
X94559D01*
Y291324D01*
X95147D01*
Y291029D01*
X95735D01*
Y290735D01*
X96324D01*
Y290441D01*
X96912D01*
Y290147D01*
X97500D01*
Y289853D01*
X97794D01*
Y289559D01*
X98382D01*
Y289265D01*
X98677D01*
Y288971D01*
X99265D01*
Y288676D01*
X99559D01*
Y288382D01*
X100147D01*
Y288088D01*
X100441D01*
Y287794D01*
X100735D01*
Y287500D01*
X101323D01*
Y287206D01*
X101618D01*
Y286912D01*
X101912D01*
Y286618D01*
X102206D01*
Y286324D01*
X102794D01*
Y286029D01*
X103088D01*
Y285735D01*
X103382D01*
Y285441D01*
X103677D01*
Y285147D01*
X103971D01*
Y284853D01*
X104265D01*
Y284559D01*
X104559D01*
Y284265D01*
X104853D01*
Y283971D01*
X105147D01*
Y283676D01*
X105441D01*
Y283382D01*
X105735D01*
Y283088D01*
X106029D01*
Y282794D01*
X106323D01*
Y282206D01*
X106618D01*
Y281912D01*
X106912D01*
Y281618D01*
X107206D01*
Y281324D01*
X107500D01*
Y280735D01*
X107794D01*
Y280441D01*
X108088D01*
Y280147D01*
X108382D01*
Y279559D01*
X108677D01*
Y279265D01*
X108971D01*
Y278676D01*
X109265D01*
Y278382D01*
X109559D01*
Y277794D01*
X109853D01*
Y277206D01*
X110147D01*
Y276618D01*
X110441D01*
Y276324D01*
X110735D01*
Y275735D01*
X111029D01*
Y275147D01*
X111324D01*
Y274559D01*
X111618D01*
Y273971D01*
X111912D01*
Y273088D01*
X112206D01*
Y272500D01*
X112500D01*
Y271618D01*
X112794D01*
Y271029D01*
X113088D01*
Y270441D01*
X113382D01*
Y270735D01*
X113677D01*
Y270441D01*
X114559D01*
Y270735D01*
X114853D01*
Y270441D01*
X138971D01*
Y270735D01*
X139265D01*
Y270441D01*
X139559D01*
Y270735D01*
X140147D01*
Y270441D01*
X140441D01*
Y270735D01*
X141029D01*
Y271029D01*
X140735D01*
Y271324D01*
X140441D01*
Y271618D01*
X140147D01*
Y272206D01*
X139853D01*
Y272500D01*
X139559D01*
Y273088D01*
X139265D01*
Y273382D01*
X138971D01*
Y273971D01*
X138677D01*
Y274265D01*
X138382D01*
Y274853D01*
X138088D01*
Y275147D01*
X137794D01*
Y275735D01*
X137500D01*
Y276029D01*
X137206D01*
Y276618D01*
X136912D01*
Y277206D01*
X136618D01*
Y277500D01*
X136324D01*
Y277794D01*
X135735D01*
Y278088D01*
X135441D01*
Y278382D01*
X135147D01*
Y278676D01*
X134853D01*
Y278971D01*
X134559D01*
Y279265D01*
X133971D01*
Y279559D01*
X133677D01*
Y279853D01*
X133382D01*
Y280147D01*
X133088D01*
Y280441D01*
X132794D01*
Y280735D01*
X132206D01*
Y281029D01*
X131912D01*
Y281324D01*
X131618D01*
Y281618D01*
X131323D01*
Y281912D01*
X130735D01*
Y282206D01*
X130441D01*
Y282500D01*
X130147D01*
Y282794D01*
X129853D01*
Y283088D01*
X129559D01*
Y283382D01*
X128971D01*
Y283676D01*
X128677D01*
Y283971D01*
X128382D01*
Y284265D01*
X128088D01*
Y284559D01*
X127794D01*
Y284853D01*
X127206D01*
Y285147D01*
X126912D01*
Y285441D01*
X126618D01*
Y285735D01*
X126323D01*
Y286029D01*
X125735D01*
Y286324D01*
X125441D01*
Y286618D01*
X125147D01*
Y286912D01*
X124265D01*
Y287206D01*
X123088D01*
Y287500D01*
X122206D01*
Y287794D01*
X121323D01*
Y288088D01*
X120147D01*
Y288382D01*
X119265D01*
Y288676D01*
X118088D01*
Y288971D01*
X117206D01*
Y289265D01*
X116323D01*
Y289559D01*
X115147D01*
Y289853D01*
X114265D01*
Y290147D01*
X113088D01*
Y290441D01*
X112206D01*
Y290735D01*
X111324D01*
Y291029D01*
X110147D01*
Y291324D01*
X109265D01*
Y291618D01*
X108382D01*
Y291912D01*
X107206D01*
Y292206D01*
X106323D01*
Y292500D01*
X105147D01*
Y292794D01*
X104265D01*
Y293088D01*
X103382D01*
Y293382D01*
X102206D01*
Y293676D01*
X101323D01*
Y293971D01*
X100147D01*
Y294265D01*
X99265D01*
Y294559D01*
X98382D01*
Y294853D01*
X97206D01*
Y295147D01*
D02*
G37*
G36*
X157500Y270147D02*
X142794D01*
Y269853D01*
X142500D01*
Y270147D01*
X142206D01*
Y269853D01*
X140735D01*
Y270147D01*
X140441D01*
Y269853D01*
X139559D01*
Y270147D01*
X138677D01*
Y269853D01*
X138382D01*
Y270147D01*
X114853D01*
Y269853D01*
X114559D01*
Y270147D01*
X114265D01*
Y269853D01*
X113971D01*
Y270147D01*
X113382D01*
Y268971D01*
X113677D01*
Y267794D01*
X113971D01*
Y266618D01*
X114265D01*
Y265147D01*
X114559D01*
Y263088D01*
X114853D01*
Y258382D01*
X114559D01*
Y258088D01*
X114265D01*
Y257794D01*
X113971D01*
Y257206D01*
X113677D01*
Y256912D01*
X113382D01*
Y256618D01*
X113088D01*
Y256324D01*
X112794D01*
Y256029D01*
X112500D01*
Y255735D01*
X112206D01*
Y255147D01*
X111912D01*
Y254853D01*
X111618D01*
Y254559D01*
X111324D01*
Y254265D01*
X159853D01*
Y254559D01*
X160147D01*
Y256324D01*
X160441D01*
Y261029D01*
X160147D01*
Y263676D01*
X159853D01*
Y265147D01*
X159559D01*
Y266324D01*
X159265D01*
Y267206D01*
X158971D01*
Y267794D01*
X158677D01*
Y268382D01*
X158382D01*
Y268971D01*
X158088D01*
Y269559D01*
X157794D01*
Y269853D01*
X157500D01*
Y270147D01*
D02*
G37*
G36*
X40441D02*
X39853D01*
Y269853D01*
X40441D01*
Y270147D01*
D02*
G37*
G36*
X39265Y273088D02*
X36618D01*
Y272794D01*
X36323D01*
Y272500D01*
X36029D01*
Y271912D01*
X36323D01*
Y271618D01*
X36912D01*
Y271324D01*
X38088D01*
Y271029D01*
X38971D01*
Y270735D01*
X40441D01*
Y270441D01*
X41912D01*
Y270147D01*
X43382D01*
Y269853D01*
X45147D01*
Y269559D01*
X46618D01*
Y269265D01*
X47206D01*
Y269559D01*
X47500D01*
Y270147D01*
X47794D01*
Y271029D01*
X46618D01*
Y271324D01*
X45441D01*
Y271618D01*
X44265D01*
Y271912D01*
X43088D01*
Y272206D01*
X41618D01*
Y272500D01*
X40441D01*
Y272794D01*
X39265D01*
Y273088D01*
D02*
G37*
G36*
X49265Y271029D02*
X48677D01*
Y270441D01*
X48382D01*
Y270147D01*
X48088D01*
Y269559D01*
X47794D01*
Y268676D01*
X48382D01*
Y268382D01*
X48677D01*
Y268676D01*
Y269265D01*
X48971D01*
Y270147D01*
X49265D01*
Y271029D01*
D02*
G37*
G36*
X203382Y268088D02*
X203088D01*
Y267794D01*
X202794D01*
Y268088D01*
X202500D01*
Y267794D01*
X202206D01*
Y268088D01*
X199559D01*
Y267794D01*
X199265D01*
Y268088D01*
X197500D01*
Y267500D01*
X198382D01*
Y267206D01*
X199265D01*
Y266912D01*
X200147D01*
Y266618D01*
X201029D01*
Y266324D01*
X201912D01*
Y266029D01*
X202794D01*
Y265735D01*
X203088D01*
Y264559D01*
X203382D01*
Y263382D01*
X203676D01*
Y262206D01*
X203971D01*
Y260441D01*
X204265D01*
Y258382D01*
Y258088D01*
Y257794D01*
X204559D01*
Y254559D01*
X204265D01*
Y252794D01*
X193088D01*
Y250735D01*
X192794D01*
Y248971D01*
X192500D01*
Y247500D01*
X192206D01*
Y246029D01*
X191912D01*
Y244559D01*
X191618D01*
Y243971D01*
X191324D01*
Y242794D01*
X191029D01*
Y242206D01*
X191324D01*
Y241912D01*
X191618D01*
Y241618D01*
X191912D01*
Y241324D01*
X192206D01*
Y241029D01*
X192500D01*
Y240735D01*
X192794D01*
Y240441D01*
X193088D01*
Y240147D01*
X193382D01*
Y239853D01*
X193676D01*
Y239265D01*
X193971D01*
Y238971D01*
X194265D01*
Y238088D01*
X194559D01*
Y236618D01*
X194853D01*
Y234853D01*
X195147D01*
Y231912D01*
X195735D01*
Y231618D01*
X196618D01*
Y231912D01*
X202206D01*
Y231618D01*
X202500D01*
Y231912D01*
X203088D01*
Y231618D01*
X203382D01*
Y231912D01*
X203676D01*
Y232500D01*
X203971D01*
Y233382D01*
X204265D01*
Y234265D01*
X204559D01*
Y235441D01*
X204853D01*
Y236618D01*
X205147D01*
Y237794D01*
X205441D01*
Y239265D01*
X205735D01*
Y241029D01*
X206029D01*
Y243971D01*
X206324D01*
Y247500D01*
X206618D01*
Y257794D01*
X206324D01*
Y259559D01*
X206029D01*
Y260735D01*
X205735D01*
Y261912D01*
X205441D01*
Y263088D01*
X205147D01*
Y264265D01*
X204853D01*
Y265147D01*
X204559D01*
Y266029D01*
X204265D01*
Y266912D01*
X203971D01*
Y267794D01*
X203382D01*
Y268088D01*
D02*
G37*
G36*
X197206D02*
X196912D01*
Y267794D01*
X197206D01*
Y268088D01*
D02*
G37*
G36*
X194853D02*
X194559D01*
Y267794D01*
X194265D01*
Y268088D01*
X193971D01*
Y267794D01*
X193676D01*
Y268088D01*
X193382D01*
Y267794D01*
X193088D01*
Y268088D01*
X192794D01*
Y265735D01*
X193088D01*
Y263676D01*
X193382D01*
Y260735D01*
X193676D01*
Y256618D01*
X193382D01*
Y253382D01*
X203676D01*
Y254559D01*
X203971D01*
Y258088D01*
X203676D01*
Y260441D01*
X203382D01*
Y261912D01*
X203088D01*
Y263382D01*
X202794D01*
Y264559D01*
X202500D01*
Y265441D01*
X201912D01*
Y265735D01*
X201029D01*
Y266029D01*
X200147D01*
Y266324D01*
X199265D01*
Y266618D01*
X198382D01*
Y266912D01*
X197500D01*
Y267206D01*
X196618D01*
Y267500D01*
X195735D01*
Y267794D01*
X194853D01*
Y268088D01*
D02*
G37*
G36*
X191618D02*
X191029D01*
Y267794D01*
X190441D01*
Y268088D01*
X190147D01*
Y267794D01*
X189559D01*
Y266618D01*
X189853D01*
Y263088D01*
X190147D01*
Y255147D01*
X189853D01*
Y252206D01*
X189559D01*
Y249559D01*
X189265D01*
Y248088D01*
X188971D01*
Y246324D01*
X188676D01*
Y246029D01*
Y245735D01*
Y244853D01*
X188971D01*
Y244559D01*
X189265D01*
Y244265D01*
X189559D01*
Y243971D01*
X189853D01*
Y243676D01*
X190147D01*
Y243382D01*
X190441D01*
Y243088D01*
X190735D01*
Y244265D01*
X191029D01*
Y245147D01*
X191324D01*
Y246029D01*
X191618D01*
Y247500D01*
X191912D01*
Y248971D01*
X192206D01*
Y250735D01*
X192500D01*
Y253088D01*
X192794D01*
Y256618D01*
X193088D01*
Y260735D01*
X192794D01*
Y263382D01*
X192500D01*
Y265735D01*
X192206D01*
Y267794D01*
X191618D01*
Y268088D01*
D02*
G37*
G36*
X188676D02*
X188382D01*
Y267794D01*
X188088D01*
Y268088D01*
X178382D01*
Y267794D01*
X177794D01*
Y268088D01*
X177500D01*
Y267794D01*
X177206D01*
Y268088D01*
X176618D01*
Y266912D01*
X176324D01*
Y265147D01*
X176029D01*
Y263382D01*
X175735D01*
Y260441D01*
X175441D01*
Y254265D01*
X175735D01*
Y253382D01*
X180147D01*
Y253676D01*
X180735D01*
Y253382D01*
X188088D01*
Y253676D01*
X188676D01*
Y253382D01*
X188971D01*
Y253676D01*
X189265D01*
Y255441D01*
X189559D01*
Y263088D01*
X189265D01*
Y266324D01*
X188971D01*
Y267794D01*
X188676D01*
Y268088D01*
D02*
G37*
G36*
X175735D02*
X175147D01*
Y267794D01*
X174853D01*
Y268088D01*
X174265D01*
Y267794D01*
X173971D01*
Y268088D01*
X173676D01*
Y267206D01*
X173382D01*
Y265735D01*
X173088D01*
Y263971D01*
X172794D01*
Y261618D01*
X172500D01*
Y252500D01*
X172794D01*
Y251618D01*
X175147D01*
Y254559D01*
X174853D01*
Y260147D01*
X175147D01*
Y263382D01*
X175441D01*
Y265147D01*
X175735D01*
Y266912D01*
X176029D01*
Y267794D01*
X175735D01*
Y268088D01*
D02*
G37*
G36*
X172794D02*
X172206D01*
Y267794D01*
X171912D01*
Y268088D01*
X171618D01*
Y267794D01*
X171324D01*
Y268088D01*
X163971D01*
Y267794D01*
X163676D01*
Y266029D01*
X163382D01*
Y264265D01*
X163088D01*
Y261912D01*
X162794D01*
Y259853D01*
X162500D01*
Y257794D01*
X162206D01*
Y255735D01*
X161912D01*
Y253676D01*
X161618D01*
Y253382D01*
X171912D01*
Y261618D01*
X172206D01*
Y263971D01*
X172500D01*
Y265735D01*
X172794D01*
Y267206D01*
X173088D01*
Y267794D01*
X172794D01*
Y268088D01*
D02*
G37*
G36*
X163088D02*
X162794D01*
Y267794D01*
X162500D01*
Y268088D01*
X161618D01*
Y267794D01*
X160735D01*
Y267500D01*
X160441D01*
Y263971D01*
X160735D01*
Y261029D01*
X161029D01*
Y256324D01*
X160735D01*
Y254265D01*
X160441D01*
Y253971D01*
X160147D01*
Y253382D01*
X159853D01*
Y253088D01*
X159559D01*
Y252794D01*
X159265D01*
Y252500D01*
X158971D01*
Y252206D01*
X158677D01*
Y250441D01*
X158382D01*
Y248382D01*
X158088D01*
Y246029D01*
X157794D01*
Y243382D01*
X157500D01*
Y239853D01*
X157206D01*
Y236029D01*
Y235735D01*
Y233676D01*
X156912D01*
Y233382D01*
X157206D01*
Y232794D01*
X156912D01*
Y232500D01*
X157206D01*
Y232206D01*
X157794D01*
Y231912D01*
X158971D01*
Y232206D01*
X159265D01*
Y236618D01*
X159559D01*
Y241029D01*
X159853D01*
Y244265D01*
X160147D01*
Y246912D01*
X160441D01*
Y249265D01*
X160735D01*
Y251618D01*
X161029D01*
Y253971D01*
X161324D01*
Y256029D01*
X161618D01*
Y257794D01*
X161912D01*
Y260147D01*
X162206D01*
Y261912D01*
X162500D01*
Y263971D01*
X162794D01*
Y266029D01*
X163088D01*
Y268088D01*
D02*
G37*
G36*
X160147Y267794D02*
X159559D01*
Y267206D01*
X159853D01*
Y267500D01*
X160147D01*
Y267794D01*
D02*
G37*
G36*
X41912Y269853D02*
X40735D01*
Y269559D01*
X41323D01*
Y269265D01*
X42206D01*
Y268971D01*
X42794D01*
Y268676D01*
X43677D01*
Y268382D01*
X44265D01*
Y268088D01*
X45147D01*
Y267794D01*
X45735D01*
Y267500D01*
X46618D01*
Y267206D01*
X47206D01*
Y266912D01*
X48382D01*
Y268088D01*
X47794D01*
Y268382D01*
X47206D01*
Y268676D01*
X46618D01*
Y268971D01*
X44853D01*
Y269265D01*
X43382D01*
Y269559D01*
X41912D01*
Y269853D01*
D02*
G37*
G36*
X50735Y262500D02*
X50147D01*
Y261912D01*
X50441D01*
Y261324D01*
X50735D01*
Y261029D01*
X52794D01*
Y260735D01*
X54853D01*
Y260441D01*
X56912D01*
Y260147D01*
X59265D01*
Y260735D01*
X58382D01*
Y261029D01*
X56912D01*
Y261324D01*
X55441D01*
Y261618D01*
X53677D01*
Y261912D01*
X52206D01*
Y262206D01*
X50735D01*
Y262500D01*
D02*
G37*
G36*
X85147Y293676D02*
X77206D01*
Y293382D01*
X75441D01*
Y293088D01*
X73971D01*
Y292794D01*
X72794D01*
Y292500D01*
X71912D01*
Y292206D01*
X70735D01*
Y291912D01*
X70147D01*
Y291618D01*
X69265D01*
Y291324D01*
X68677D01*
Y291029D01*
X67794D01*
Y290735D01*
X67206D01*
Y290441D01*
X66618D01*
Y290147D01*
X66323D01*
Y289853D01*
X65735D01*
Y289559D01*
X65147D01*
Y289265D01*
X64559D01*
Y288971D01*
X63971D01*
Y288676D01*
X63677D01*
Y288382D01*
X63088D01*
Y288088D01*
X62794D01*
Y287794D01*
X62500D01*
Y287500D01*
X61912D01*
Y287206D01*
X61618D01*
Y286912D01*
X61324D01*
Y286618D01*
X60735D01*
Y286324D01*
X60441D01*
Y286029D01*
X60147D01*
Y285735D01*
X59853D01*
Y285441D01*
X59559D01*
Y285147D01*
X59265D01*
Y284853D01*
X58971D01*
Y284559D01*
X58677D01*
Y284265D01*
X58382D01*
Y283971D01*
X58088D01*
Y283676D01*
X57794D01*
Y283382D01*
X57500D01*
Y283088D01*
X57206D01*
Y282794D01*
X56912D01*
Y282500D01*
X56618D01*
Y282206D01*
X56324D01*
Y281912D01*
X56029D01*
Y281324D01*
X55735D01*
Y281029D01*
X55441D01*
Y280735D01*
X55147D01*
Y280441D01*
X54853D01*
Y279853D01*
X54559D01*
Y279559D01*
X54265D01*
Y278971D01*
X53971D01*
Y278676D01*
X53677D01*
Y278088D01*
X53382D01*
Y277794D01*
X53088D01*
Y277206D01*
X52794D01*
Y276618D01*
X52500D01*
Y276029D01*
X52206D01*
Y275735D01*
X51912D01*
Y275147D01*
X51618D01*
Y274559D01*
X51323D01*
Y273971D01*
X51029D01*
Y273088D01*
X50735D01*
Y272500D01*
X50441D01*
Y271618D01*
X50147D01*
Y271029D01*
X49853D01*
Y270147D01*
X49559D01*
Y268971D01*
X49265D01*
Y268088D01*
X48971D01*
Y266912D01*
X48677D01*
Y265147D01*
X48382D01*
Y263382D01*
X48088D01*
Y260147D01*
X47794D01*
Y257206D01*
X48088D01*
Y253971D01*
X48382D01*
Y251912D01*
X48677D01*
Y250441D01*
X48971D01*
Y249265D01*
X49265D01*
Y248088D01*
X49559D01*
Y247206D01*
X49853D01*
Y246324D01*
X50147D01*
Y245735D01*
X50441D01*
Y244853D01*
X50735D01*
Y243971D01*
X51029D01*
Y243382D01*
X51323D01*
Y242794D01*
X51618D01*
Y242206D01*
X51912D01*
Y241618D01*
X52206D01*
Y241029D01*
X52500D01*
Y240441D01*
X52794D01*
Y240147D01*
X53088D01*
Y239559D01*
X53382D01*
Y238971D01*
X53677D01*
Y238676D01*
X53971D01*
Y238088D01*
X54265D01*
Y237794D01*
X54559D01*
Y237206D01*
X54853D01*
Y236912D01*
X55147D01*
Y236618D01*
X55441D01*
Y236029D01*
X55735D01*
Y235735D01*
X56029D01*
Y235441D01*
X56324D01*
Y235147D01*
X56618D01*
Y234853D01*
X56912D01*
Y234559D01*
X57206D01*
Y233971D01*
X57500D01*
Y233676D01*
X57794D01*
Y233382D01*
X58088D01*
Y233088D01*
X58382D01*
Y232794D01*
X58677D01*
Y232500D01*
X58971D01*
Y232206D01*
X59265D01*
Y231912D01*
X59853D01*
Y231618D01*
X60147D01*
Y231324D01*
X60441D01*
Y231029D01*
X60735D01*
Y230735D01*
X61029D01*
Y230441D01*
X61618D01*
Y230147D01*
X61912D01*
Y229853D01*
X62206D01*
Y229559D01*
X62794D01*
Y229265D01*
X63088D01*
Y228971D01*
X63382D01*
Y228676D01*
X63971D01*
Y228382D01*
X64559D01*
Y228088D01*
X64853D01*
Y227794D01*
X65441D01*
Y227500D01*
X66029D01*
Y227206D01*
X66618D01*
Y226912D01*
X67206D01*
Y226618D01*
X67794D01*
Y226324D01*
X68382D01*
Y226029D01*
X68971D01*
Y225735D01*
X69853D01*
Y225441D01*
X70735D01*
Y225147D01*
X71618D01*
Y224853D01*
X72500D01*
Y224559D01*
X73677D01*
Y224265D01*
X74853D01*
Y223971D01*
X76618D01*
Y223676D01*
X79853D01*
Y223382D01*
X80147D01*
Y223676D01*
X80441D01*
Y223382D01*
X80735D01*
Y223676D01*
X81029D01*
Y223382D01*
X81323D01*
Y223676D01*
X85441D01*
Y224265D01*
X85147D01*
Y228088D01*
X84853D01*
Y231324D01*
X84559D01*
Y234559D01*
X84265D01*
Y237500D01*
X81912D01*
Y237206D01*
X81618D01*
Y237500D01*
X81323D01*
Y236912D01*
X81029D01*
Y236324D01*
X81323D01*
Y228971D01*
X81618D01*
Y224265D01*
X81029D01*
Y223971D01*
X80735D01*
Y224265D01*
X78382D01*
Y224559D01*
X78088D01*
Y224265D01*
X77794D01*
Y224559D01*
X76029D01*
Y224853D01*
X74559D01*
Y225147D01*
X73677D01*
Y225441D01*
X72794D01*
Y225735D01*
X71912D01*
Y226029D01*
X71324D01*
Y226324D01*
X70441D01*
Y227794D01*
X70735D01*
Y228971D01*
X71029D01*
Y230147D01*
X71324D01*
Y231029D01*
X71618D01*
Y232206D01*
X71912D01*
Y233382D01*
X72206D01*
Y234265D01*
X72500D01*
Y235441D01*
X72794D01*
Y236324D01*
X73088D01*
Y237500D01*
X73382D01*
Y238676D01*
X72794D01*
Y238971D01*
X71912D01*
Y239265D01*
X71324D01*
Y239559D01*
X70735D01*
Y239853D01*
X70147D01*
Y240147D01*
X69853D01*
Y240441D01*
X69265D01*
Y240735D01*
X68677D01*
Y241029D01*
X68382D01*
Y241324D01*
X68088D01*
Y241618D01*
X67500D01*
Y241912D01*
X67206D01*
Y242206D01*
X66912D01*
Y242500D01*
X66618D01*
Y242794D01*
X66323D01*
Y243088D01*
X65735D01*
Y243382D01*
X65147D01*
Y242794D01*
X64853D01*
Y242500D01*
X64559D01*
Y241912D01*
X64265D01*
Y241618D01*
X63971D01*
Y241324D01*
X63677D01*
Y240735D01*
X63382D01*
Y240441D01*
X63088D01*
Y239853D01*
X62794D01*
Y239559D01*
X62500D01*
Y239265D01*
X62206D01*
Y238676D01*
X61912D01*
Y238382D01*
X61618D01*
Y237794D01*
X61324D01*
Y237500D01*
X61029D01*
Y236912D01*
X60735D01*
Y236618D01*
X60441D01*
Y236029D01*
X60147D01*
Y235735D01*
X59853D01*
Y235441D01*
X59559D01*
Y234853D01*
X59265D01*
Y234559D01*
X58971D01*
Y234265D01*
X58677D01*
Y234559D01*
X58382D01*
Y234853D01*
X58088D01*
Y235147D01*
X57794D01*
Y235441D01*
X57500D01*
Y235735D01*
X57206D01*
Y236029D01*
X56912D01*
Y236324D01*
X56618D01*
Y236618D01*
X56324D01*
Y236912D01*
X56029D01*
Y237206D01*
X55735D01*
Y237794D01*
X55441D01*
Y238088D01*
X55147D01*
Y238382D01*
X54853D01*
Y238676D01*
X54559D01*
Y239265D01*
X54265D01*
Y239853D01*
X53971D01*
Y240441D01*
X53677D01*
Y241029D01*
X53382D01*
Y241618D01*
X53088D01*
Y242500D01*
X52794D01*
Y243088D01*
X53382D01*
Y243382D01*
X53677D01*
Y243676D01*
X54265D01*
Y243971D01*
X54559D01*
Y244265D01*
X54853D01*
Y244559D01*
X55441D01*
Y244853D01*
X55735D01*
Y245147D01*
X56324D01*
Y245441D01*
X56618D01*
Y245735D01*
X57206D01*
Y246029D01*
X57500D01*
Y246324D01*
X57794D01*
Y246618D01*
X58382D01*
Y246912D01*
X58677D01*
Y247206D01*
X59265D01*
Y247500D01*
X59559D01*
Y247794D01*
X59853D01*
Y248088D01*
X60441D01*
Y248382D01*
X60735D01*
Y248676D01*
X61324D01*
Y248971D01*
X61618D01*
Y249265D01*
X61324D01*
Y249853D01*
X61029D01*
Y250441D01*
X60735D01*
Y251029D01*
X60441D01*
Y251912D01*
X60147D01*
Y252794D01*
X59853D01*
Y253971D01*
X59559D01*
Y255441D01*
X58382D01*
Y255147D01*
X56912D01*
Y254853D01*
X55441D01*
Y254559D01*
X53971D01*
Y254265D01*
X52500D01*
Y253971D01*
X51029D01*
Y253676D01*
X48971D01*
Y253971D01*
X48677D01*
Y261618D01*
X48971D01*
Y263088D01*
X50735D01*
Y262794D01*
X52206D01*
Y262500D01*
X53677D01*
Y262206D01*
X55441D01*
Y261912D01*
X56912D01*
Y261618D01*
X58382D01*
Y261324D01*
X59265D01*
Y262794D01*
X59559D01*
Y263382D01*
X58971D01*
Y263676D01*
X58088D01*
Y263971D01*
X56912D01*
Y264265D01*
X55735D01*
Y264559D01*
X54559D01*
Y264853D01*
X53382D01*
Y265147D01*
X52500D01*
Y265441D01*
X51029D01*
Y265735D01*
X50147D01*
Y266618D01*
X50441D01*
Y267794D01*
X50735D01*
Y268971D01*
X51029D01*
Y269853D01*
X51323D01*
Y270735D01*
X51618D01*
Y271618D01*
X51912D01*
Y272206D01*
X52206D01*
Y272794D01*
X52500D01*
Y273382D01*
X52794D01*
Y273971D01*
X53088D01*
Y274559D01*
X53382D01*
Y274853D01*
X53677D01*
Y275147D01*
X53971D01*
Y275735D01*
X54265D01*
Y276029D01*
X54559D01*
Y276618D01*
X54853D01*
Y276912D01*
X55147D01*
Y277500D01*
X55441D01*
Y277794D01*
X55735D01*
Y278382D01*
X56029D01*
Y278676D01*
X56324D01*
Y278971D01*
X56618D01*
Y279559D01*
X56912D01*
Y279853D01*
X57206D01*
Y280147D01*
X57500D01*
Y280735D01*
X57794D01*
Y281029D01*
X58088D01*
Y281324D01*
X58382D01*
Y281618D01*
X58677D01*
Y282206D01*
X58971D01*
Y282500D01*
X59265D01*
Y282794D01*
X59559D01*
Y283088D01*
X59853D01*
Y283382D01*
X60147D01*
Y283676D01*
X60441D01*
Y283971D01*
X60735D01*
Y284265D01*
X61029D01*
Y284559D01*
X61324D01*
Y284853D01*
X61618D01*
Y285147D01*
X62206D01*
Y285441D01*
X62500D01*
Y285735D01*
X62794D01*
Y286029D01*
X63382D01*
Y286324D01*
X63677D01*
Y286618D01*
X64265D01*
Y286912D01*
X64559D01*
Y287206D01*
X65147D01*
Y287500D01*
X65441D01*
Y287794D01*
X66029D01*
Y288088D01*
X66618D01*
Y288382D01*
X67206D01*
Y288676D01*
X67500D01*
Y288971D01*
X68088D01*
Y289265D01*
X68382D01*
Y289559D01*
X68971D01*
Y289853D01*
X69853D01*
Y290147D01*
X70441D01*
Y290441D01*
X71324D01*
Y290735D01*
X71912D01*
Y291029D01*
X73088D01*
Y291324D01*
X73971D01*
Y291618D01*
X75735D01*
Y291912D01*
X78382D01*
Y292206D01*
X83088D01*
Y291912D01*
X85735D01*
Y291618D01*
X86912D01*
Y291324D01*
X88088D01*
Y291029D01*
X88971D01*
Y290735D01*
X89853D01*
Y290441D01*
X90735D01*
Y290147D01*
X91618D01*
Y289853D01*
X92500D01*
Y289559D01*
X93382D01*
Y289265D01*
X93971D01*
Y288971D01*
X94853D01*
Y288676D01*
X95441D01*
Y288382D01*
X95735D01*
Y288088D01*
X96029D01*
Y287794D01*
X96618D01*
Y287500D01*
X96912D01*
Y287206D01*
X97500D01*
Y286912D01*
X97794D01*
Y286618D01*
X98088D01*
Y286324D01*
X98677D01*
Y286029D01*
X98971D01*
Y285735D01*
X99265D01*
Y285441D01*
X99853D01*
Y285147D01*
X100147D01*
Y284853D01*
X100441D01*
Y284559D01*
X101029D01*
Y284265D01*
X101323D01*
Y283971D01*
X101618D01*
Y283676D01*
X101912D01*
Y283382D01*
X102206D01*
Y283088D01*
X102794D01*
Y282794D01*
X103088D01*
Y282500D01*
X103382D01*
Y282206D01*
X103677D01*
Y281912D01*
X103971D01*
Y281618D01*
X104265D01*
Y281029D01*
X104559D01*
Y280735D01*
X104853D01*
Y280441D01*
X105147D01*
Y280147D01*
X105441D01*
Y279853D01*
X105735D01*
Y279265D01*
X106029D01*
Y278971D01*
X106323D01*
Y278382D01*
X106618D01*
Y278088D01*
X106912D01*
Y277500D01*
X107206D01*
Y277206D01*
X107500D01*
Y276618D01*
X107794D01*
Y276029D01*
X108088D01*
Y275441D01*
X108382D01*
Y274853D01*
X108677D01*
Y274265D01*
X108971D01*
Y273676D01*
X109265D01*
Y273088D01*
X109559D01*
Y272500D01*
X109853D01*
Y271912D01*
X110147D01*
Y271029D01*
X110441D01*
Y270147D01*
X110735D01*
Y269265D01*
X111029D01*
Y268088D01*
X111324D01*
Y266912D01*
X111618D01*
Y266029D01*
X111912D01*
Y264853D01*
X112206D01*
Y263382D01*
X112500D01*
Y262206D01*
X112794D01*
Y260735D01*
X101912D01*
Y259265D01*
X114265D01*
Y263088D01*
X113971D01*
Y265147D01*
X113677D01*
Y266618D01*
X113382D01*
Y267794D01*
X113088D01*
Y268971D01*
X112794D01*
Y269853D01*
X112500D01*
Y270735D01*
X112206D01*
Y271618D01*
X111912D01*
Y272206D01*
X111618D01*
Y273088D01*
X111324D01*
Y273676D01*
X111029D01*
Y274265D01*
X110735D01*
Y274853D01*
X110441D01*
Y275441D01*
X110147D01*
Y276029D01*
X109853D01*
Y276618D01*
X109559D01*
Y277206D01*
X109265D01*
Y277500D01*
X108971D01*
Y278088D01*
X108677D01*
Y278676D01*
X108382D01*
Y278971D01*
X108088D01*
Y279265D01*
X107794D01*
Y279853D01*
X107500D01*
Y280147D01*
X107206D01*
Y280735D01*
X106912D01*
Y281029D01*
X106618D01*
Y281324D01*
X106323D01*
Y281912D01*
X106029D01*
Y282206D01*
X105735D01*
Y282500D01*
X105441D01*
Y282794D01*
X105147D01*
Y283088D01*
X104853D01*
Y283382D01*
X104559D01*
Y283676D01*
X104265D01*
Y283971D01*
X103971D01*
Y284265D01*
X103677D01*
Y284559D01*
X103382D01*
Y284853D01*
X103088D01*
Y285147D01*
X102794D01*
Y285441D01*
X102500D01*
Y285735D01*
X102206D01*
Y286029D01*
X101912D01*
Y286324D01*
X101323D01*
Y286618D01*
X101029D01*
Y286912D01*
X100735D01*
Y287206D01*
X100147D01*
Y287500D01*
X99853D01*
Y287794D01*
X99559D01*
Y288088D01*
X98971D01*
Y288382D01*
X98677D01*
Y288676D01*
X98088D01*
Y288971D01*
X97794D01*
Y289265D01*
X97206D01*
Y289559D01*
X96618D01*
Y289853D01*
X96029D01*
Y290147D01*
X95441D01*
Y290441D01*
X94853D01*
Y290735D01*
X94265D01*
Y291029D01*
X93677D01*
Y291324D01*
X93088D01*
Y291618D01*
X92206D01*
Y291912D01*
X91323D01*
Y292206D01*
X90441D01*
Y292500D01*
X89559D01*
Y292794D01*
X88382D01*
Y293088D01*
X86912D01*
Y293382D01*
X85147D01*
Y293676D01*
D02*
G37*
G36*
X83677Y280147D02*
X77206D01*
Y279853D01*
X75735D01*
Y279559D01*
X74853D01*
Y279265D01*
X73677D01*
Y278971D01*
X73088D01*
Y278676D01*
X72206D01*
Y278382D01*
X71618D01*
Y278088D01*
X71029D01*
Y277794D01*
X70441D01*
Y277500D01*
X70147D01*
Y277206D01*
X69559D01*
Y276912D01*
X69265D01*
Y276618D01*
X68677D01*
Y276324D01*
X68382D01*
Y276029D01*
X67794D01*
Y275735D01*
X67500D01*
Y275441D01*
X67206D01*
Y275147D01*
X66912D01*
Y274853D01*
X66618D01*
Y274559D01*
X66323D01*
Y274265D01*
X65735D01*
Y273971D01*
X65441D01*
Y273382D01*
X65147D01*
Y273088D01*
X64853D01*
Y272794D01*
X64559D01*
Y272500D01*
X64265D01*
Y272206D01*
X63971D01*
Y271618D01*
X63677D01*
Y271324D01*
X63382D01*
Y271029D01*
X63088D01*
Y270441D01*
X62794D01*
Y269853D01*
X62500D01*
Y269559D01*
X62206D01*
Y268971D01*
X61912D01*
Y268382D01*
X61618D01*
Y267500D01*
X61324D01*
Y266912D01*
X61029D01*
Y266029D01*
X60735D01*
Y265147D01*
X60441D01*
Y264265D01*
X60147D01*
Y262794D01*
X59853D01*
Y260441D01*
X59559D01*
Y260147D01*
X59853D01*
Y259853D01*
X59559D01*
Y259559D01*
X59853D01*
Y259265D01*
X59559D01*
Y258676D01*
X59853D01*
Y258088D01*
X59559D01*
Y257794D01*
X59853D01*
Y255441D01*
X60147D01*
Y253971D01*
X60441D01*
Y252794D01*
X60735D01*
Y251912D01*
X61029D01*
Y251324D01*
X61324D01*
Y250735D01*
Y250441D01*
X61618D01*
Y249853D01*
X61912D01*
Y249265D01*
X62206D01*
Y248676D01*
X62500D01*
Y248382D01*
X62794D01*
Y247794D01*
X63088D01*
Y247206D01*
X63382D01*
Y246912D01*
X63677D01*
Y246324D01*
X63971D01*
Y246029D01*
X64265D01*
Y245735D01*
X64559D01*
Y245441D01*
X64853D01*
Y245147D01*
X65147D01*
Y244559D01*
X65441D01*
Y244265D01*
X65735D01*
Y243971D01*
X66029D01*
Y243676D01*
X66323D01*
Y243382D01*
X66618D01*
Y243088D01*
X66912D01*
Y242794D01*
X67500D01*
Y242500D01*
X67794D01*
Y242206D01*
X68088D01*
Y241912D01*
X68677D01*
Y241618D01*
X68971D01*
Y241324D01*
X69559D01*
Y241029D01*
X69853D01*
Y240735D01*
X70441D01*
Y240441D01*
X71029D01*
Y240147D01*
X71618D01*
Y239853D01*
X72206D01*
Y239559D01*
X72794D01*
Y239265D01*
X73677D01*
Y238971D01*
X74559D01*
Y238676D01*
X75441D01*
Y238382D01*
X76912D01*
Y238088D01*
X78971D01*
Y237794D01*
X79265D01*
Y238088D01*
X79853D01*
Y237794D01*
X81323D01*
Y238088D01*
X81618D01*
Y237794D01*
X81912D01*
Y238088D01*
X84265D01*
Y243971D01*
X83971D01*
Y243676D01*
X77500D01*
Y243971D01*
X76323D01*
Y244265D01*
X75441D01*
Y244559D01*
X74853D01*
Y244853D01*
X74265D01*
Y245147D01*
X73677D01*
Y245441D01*
X73088D01*
Y245735D01*
X72500D01*
Y246029D01*
X72206D01*
Y246324D01*
X71618D01*
Y246618D01*
X71324D01*
Y246912D01*
X71029D01*
Y247206D01*
X70735D01*
Y247500D01*
X70441D01*
Y247794D01*
X70147D01*
Y248088D01*
X69853D01*
Y248382D01*
X69559D01*
Y248676D01*
X69265D01*
Y248971D01*
X68971D01*
Y249265D01*
X68677D01*
Y249559D01*
X68382D01*
Y250147D01*
X68088D01*
Y250441D01*
X67794D01*
Y251029D01*
X67500D01*
Y251324D01*
X67206D01*
Y251912D01*
X66912D01*
Y252500D01*
X66618D01*
Y253088D01*
X66323D01*
Y253971D01*
X66029D01*
Y254853D01*
X65735D01*
Y256324D01*
X65441D01*
Y259265D01*
X65147D01*
Y259559D01*
X65441D01*
Y262500D01*
X65735D01*
Y263676D01*
X66029D01*
Y264559D01*
X66323D01*
Y265441D01*
X66618D01*
Y266029D01*
X66912D01*
Y266912D01*
X67206D01*
Y267206D01*
X67500D01*
Y267794D01*
X67794D01*
Y268382D01*
X68088D01*
Y268676D01*
X68382D01*
Y269265D01*
X68677D01*
Y269559D01*
X68971D01*
Y269853D01*
X69265D01*
Y270147D01*
X69559D01*
Y270441D01*
X69853D01*
Y270735D01*
X70147D01*
Y271029D01*
X70441D01*
Y271324D01*
X70735D01*
Y271618D01*
X71029D01*
Y271912D01*
X71324D01*
Y272206D01*
X71912D01*
Y272500D01*
X72206D01*
Y272794D01*
X72794D01*
Y273088D01*
X73088D01*
Y273382D01*
X73677D01*
Y273676D01*
X74265D01*
Y273971D01*
X75147D01*
Y274265D01*
X75735D01*
Y274559D01*
X76618D01*
Y274853D01*
X78088D01*
Y275147D01*
X83382D01*
Y274853D01*
X84559D01*
Y274559D01*
X85735D01*
Y274265D01*
X86324D01*
Y273971D01*
X86912D01*
Y273676D01*
X87500D01*
Y273382D01*
X88088D01*
Y273088D01*
X88677D01*
Y272794D01*
X89265D01*
Y272500D01*
X89559D01*
Y272206D01*
X89853D01*
Y271912D01*
X90441D01*
Y271618D01*
X90735D01*
Y271324D01*
X91029D01*
Y271029D01*
X91323D01*
Y270735D01*
X91618D01*
Y270441D01*
X91912D01*
Y270147D01*
X92206D01*
Y269853D01*
X92500D01*
Y269559D01*
X92794D01*
Y268971D01*
X93088D01*
Y268676D01*
X93382D01*
Y268088D01*
X93677D01*
Y267794D01*
X93971D01*
Y267206D01*
X94265D01*
Y266618D01*
X94559D01*
Y266029D01*
X94853D01*
Y265441D01*
X95147D01*
Y264559D01*
X95441D01*
Y263382D01*
X95735D01*
Y262206D01*
X96029D01*
Y259559D01*
X96324D01*
Y259265D01*
X101323D01*
Y262500D01*
X101029D01*
Y263971D01*
X100735D01*
Y265147D01*
X100441D01*
Y266029D01*
X100147D01*
Y266912D01*
X99853D01*
Y267500D01*
X99559D01*
Y268088D01*
X99265D01*
Y268676D01*
X98971D01*
Y269265D01*
X98677D01*
Y269853D01*
X98382D01*
Y270441D01*
X98088D01*
Y270735D01*
X97794D01*
Y271324D01*
X97500D01*
Y271618D01*
X97206D01*
Y271912D01*
X96912D01*
Y272500D01*
X96618D01*
Y272794D01*
X96324D01*
Y273088D01*
X96029D01*
Y273382D01*
X95735D01*
Y273676D01*
X95441D01*
Y273971D01*
X95147D01*
Y274265D01*
X94853D01*
Y274559D01*
X94559D01*
Y274853D01*
X94265D01*
Y275147D01*
X93971D01*
Y275441D01*
X93677D01*
Y275735D01*
X93088D01*
Y276029D01*
X92794D01*
Y276324D01*
X92500D01*
Y276618D01*
X91912D01*
Y276912D01*
X91618D01*
Y277206D01*
X91029D01*
Y277500D01*
X90735D01*
Y277794D01*
X90147D01*
Y278088D01*
X89559D01*
Y278382D01*
X88971D01*
Y278676D01*
X88088D01*
Y278971D01*
X87206D01*
Y279265D01*
X86324D01*
Y279559D01*
X85147D01*
Y279853D01*
X83677D01*
Y280147D01*
D02*
G37*
G36*
X255147Y260147D02*
X253382D01*
Y259559D01*
X253676D01*
Y259265D01*
X254265D01*
Y258971D01*
X254559D01*
Y258676D01*
X254853D01*
Y258382D01*
X255147D01*
Y258088D01*
X255441D01*
Y259559D01*
X255147D01*
Y260147D01*
D02*
G37*
G36*
X259265Y285735D02*
X258382D01*
Y285441D01*
X257794D01*
Y285147D01*
X257500D01*
Y284853D01*
X257794D01*
Y284265D01*
X257500D01*
Y283088D01*
X257794D01*
Y258382D01*
X258088D01*
Y258088D01*
X257794D01*
Y257500D01*
X258382D01*
Y257206D01*
X258971D01*
Y257500D01*
X259559D01*
Y269265D01*
Y269559D01*
Y270441D01*
X259265D01*
Y283676D01*
X258971D01*
Y284265D01*
X259265D01*
Y284853D01*
X258971D01*
Y285147D01*
X259265D01*
Y285735D01*
D02*
G37*
G36*
X251618Y260735D02*
X239559D01*
Y259559D01*
X239853D01*
Y257500D01*
X240441D01*
Y257206D01*
X241324D01*
Y257500D01*
X241912D01*
Y257206D01*
X253676D01*
Y257500D01*
X254265D01*
Y257206D01*
X254853D01*
Y257794D01*
X254559D01*
Y258088D01*
X254265D01*
Y258382D01*
X253971D01*
Y258676D01*
X253676D01*
Y258971D01*
X253382D01*
Y259265D01*
X252794D01*
Y259559D01*
X252500D01*
Y259853D01*
X252206D01*
Y260147D01*
X251912D01*
Y260441D01*
X251618D01*
Y260735D01*
D02*
G37*
G36*
X259559Y256912D02*
X259265D01*
Y256618D01*
X258676D01*
Y256912D01*
X258382D01*
Y256618D01*
X257794D01*
Y253676D01*
X257500D01*
Y252206D01*
X257206D01*
Y251029D01*
X256912D01*
Y249853D01*
X256618D01*
Y248971D01*
X256324D01*
Y248382D01*
X256029D01*
Y247794D01*
X259559D01*
Y248382D01*
X259853D01*
Y249559D01*
X260147D01*
Y250735D01*
X260441D01*
Y253971D01*
X260147D01*
Y255441D01*
X259853D01*
Y256618D01*
X259559D01*
Y256912D01*
D02*
G37*
G36*
X254853D02*
X254559D01*
Y256618D01*
X254265D01*
Y256912D01*
X253971D01*
Y256618D01*
X253676D01*
Y256912D01*
X241029D01*
Y256618D01*
X240735D01*
Y256912D01*
X240147D01*
Y256618D01*
X239853D01*
Y256029D01*
X240147D01*
Y253088D01*
Y252794D01*
Y252500D01*
X239853D01*
Y250735D01*
X239559D01*
Y249853D01*
X239265D01*
Y249265D01*
X238971D01*
Y248382D01*
X238676D01*
Y247794D01*
X252794D01*
Y248088D01*
X253088D01*
Y248676D01*
X253382D01*
Y249265D01*
X253676D01*
Y249853D01*
X253971D01*
Y250441D01*
X254265D01*
Y251618D01*
X254559D01*
Y253088D01*
X254853D01*
Y254853D01*
X255147D01*
Y256618D01*
X254853D01*
Y256912D01*
D02*
G37*
G36*
X52794Y260441D02*
X50735D01*
Y254265D01*
X51029D01*
Y254559D01*
X52500D01*
Y254853D01*
X53971D01*
Y255147D01*
X55441D01*
Y255441D01*
X56912D01*
Y255735D01*
X58382D01*
Y256029D01*
X59265D01*
Y257794D01*
X58971D01*
Y258088D01*
X59265D01*
Y259265D01*
X58677D01*
Y259559D01*
X56618D01*
Y259853D01*
X54853D01*
Y260147D01*
X52794D01*
Y260441D01*
D02*
G37*
G36*
X49853Y261912D02*
X49559D01*
Y261618D01*
X49265D01*
Y258382D01*
Y258088D01*
Y254265D01*
X50147D01*
Y261324D01*
X49853D01*
Y261912D01*
D02*
G37*
G36*
X188971Y253088D02*
X188382D01*
Y252794D01*
X187794D01*
Y253088D01*
X180735D01*
Y252794D01*
X180441D01*
Y253088D01*
X180147D01*
Y252794D01*
X175735D01*
Y251618D01*
X178382D01*
Y251324D01*
X178676D01*
Y251618D01*
X178971D01*
Y251324D01*
X179559D01*
Y249265D01*
X180735D01*
Y248971D01*
X183088D01*
Y249265D01*
X183382D01*
Y248971D01*
X183971D01*
Y249265D01*
X184559D01*
Y248971D01*
X185147D01*
Y248382D01*
X185735D01*
Y247794D01*
X186029D01*
Y247500D01*
X186324D01*
Y247206D01*
X186618D01*
Y246912D01*
X186912D01*
Y246618D01*
X187206D01*
Y246324D01*
X187500D01*
Y246029D01*
X187794D01*
Y245735D01*
X188088D01*
Y246618D01*
X188382D01*
Y248088D01*
X188676D01*
Y249853D01*
X188971D01*
Y251912D01*
X189265D01*
Y252794D01*
X188971D01*
Y253088D01*
D02*
G37*
G36*
X159265Y253676D02*
X110735D01*
Y253382D01*
X110441D01*
Y253088D01*
X110147D01*
Y252794D01*
X109853D01*
Y252500D01*
X109559D01*
Y251912D01*
X157500D01*
Y252206D01*
X158382D01*
Y252794D01*
X158677D01*
Y253088D01*
X158971D01*
Y253382D01*
X159265D01*
Y253676D01*
D02*
G37*
G36*
X171912Y252794D02*
X161618D01*
Y251324D01*
X161324D01*
Y249265D01*
X161029D01*
Y247206D01*
X160735D01*
Y244265D01*
X160441D01*
Y241029D01*
X160147D01*
Y236912D01*
X159853D01*
Y232794D01*
X161029D01*
Y233382D01*
X161324D01*
Y237500D01*
X161618D01*
Y237794D01*
X162500D01*
Y238088D01*
X163676D01*
Y238382D01*
X163971D01*
Y238676D01*
X162206D01*
Y238971D01*
X161912D01*
Y240441D01*
X162206D01*
Y243676D01*
X162794D01*
Y243971D01*
X164265D01*
Y244265D01*
X165441D01*
Y244559D01*
X166618D01*
Y244853D01*
X161618D01*
Y245147D01*
X161324D01*
Y245441D01*
X161029D01*
Y245735D01*
X161324D01*
Y246029D01*
X161618D01*
Y246324D01*
X161912D01*
Y246618D01*
X162206D01*
Y246912D01*
X162794D01*
Y247206D01*
X163088D01*
Y247500D01*
X163382D01*
Y247794D01*
X163676D01*
Y248088D01*
X163971D01*
Y248382D01*
X164559D01*
Y248676D01*
X164853D01*
Y248971D01*
X165147D01*
Y249265D01*
X165441D01*
Y249559D01*
X165735D01*
Y249853D01*
X166029D01*
Y250147D01*
X166324D01*
Y250441D01*
X166912D01*
Y250735D01*
X167206D01*
Y251029D01*
X167500D01*
Y251324D01*
X168382D01*
Y251618D01*
X168676D01*
Y251324D01*
X168971D01*
Y251618D01*
X171618D01*
Y251324D01*
X171912D01*
Y251618D01*
X172206D01*
Y252500D01*
X171912D01*
Y252794D01*
D02*
G37*
G36*
X178971Y251029D02*
X178382D01*
Y250735D01*
X176029D01*
Y251029D01*
X175735D01*
Y250735D01*
X175441D01*
Y251029D01*
X174853D01*
Y250735D01*
X174265D01*
Y251029D01*
X173971D01*
Y250735D01*
X172206D01*
Y251029D01*
X171912D01*
Y250735D01*
X171618D01*
Y251029D01*
X171324D01*
Y250735D01*
X168971D01*
Y251029D01*
X168676D01*
Y250735D01*
X168382D01*
Y251029D01*
X168088D01*
Y250735D01*
X167794D01*
Y250441D01*
X167500D01*
Y250147D01*
X166912D01*
Y249853D01*
X166618D01*
Y249559D01*
X166324D01*
Y249265D01*
X166029D01*
Y248971D01*
X165735D01*
Y248676D01*
X165441D01*
Y248382D01*
X164853D01*
Y248088D01*
X164559D01*
Y247794D01*
X164265D01*
Y247500D01*
X163971D01*
Y247206D01*
X163676D01*
Y246912D01*
X163382D01*
Y246618D01*
X162794D01*
Y246324D01*
X162500D01*
Y246029D01*
X162206D01*
Y245735D01*
X161912D01*
Y245441D01*
X169265D01*
Y245147D01*
X178088D01*
Y245441D01*
X178676D01*
Y244853D01*
X178382D01*
Y244559D01*
X168382D01*
Y244853D01*
X168088D01*
Y244559D01*
X167794D01*
Y244265D01*
X167500D01*
Y243676D01*
X167206D01*
Y238971D01*
X167500D01*
Y238676D01*
X168088D01*
Y238971D01*
X168676D01*
Y238676D01*
X168971D01*
Y238971D01*
X178971D01*
Y251029D01*
D02*
G37*
G36*
X280147Y252500D02*
X276912D01*
Y250735D01*
X277206D01*
Y250441D01*
X277500D01*
Y250735D01*
X278971D01*
Y250441D01*
X279265D01*
Y250735D01*
X280147D01*
Y252500D01*
D02*
G37*
G36*
X281912Y254853D02*
X280147D01*
Y254559D01*
X279559D01*
Y254265D01*
X279265D01*
Y253971D01*
X278971D01*
Y253382D01*
X278676D01*
Y253088D01*
X280147D01*
Y252794D01*
X280441D01*
Y252500D01*
X280735D01*
Y250147D01*
X280441D01*
Y249853D01*
X279559D01*
Y249559D01*
X279853D01*
Y249265D01*
X280735D01*
Y248971D01*
X281324D01*
Y249265D01*
X282206D01*
Y249559D01*
X282500D01*
Y249853D01*
X282794D01*
Y250147D01*
X283088D01*
Y250735D01*
X283382D01*
Y253382D01*
X283088D01*
Y253971D01*
X282794D01*
Y254265D01*
X282500D01*
Y254559D01*
X281912D01*
Y254853D01*
D02*
G37*
G36*
X184265Y248676D02*
X183676D01*
Y248382D01*
X183382D01*
Y248676D01*
X183088D01*
Y248382D01*
X180441D01*
Y248676D01*
X180147D01*
Y248382D01*
X179853D01*
Y248676D01*
X179559D01*
Y226912D01*
X179265D01*
Y220735D01*
Y220441D01*
Y219265D01*
X179559D01*
Y218971D01*
X179853D01*
Y219265D01*
X183382D01*
Y219559D01*
X183971D01*
Y219853D01*
X184559D01*
Y220147D01*
X185147D01*
Y220441D01*
X185735D01*
Y220735D01*
X186324D01*
Y221029D01*
X186912D01*
Y221324D01*
X187794D01*
Y221618D01*
X188382D01*
Y221912D01*
X188971D01*
Y222206D01*
X189559D01*
Y222500D01*
X190147D01*
Y222794D01*
X190735D01*
Y223088D01*
X191324D01*
Y223382D01*
X191912D01*
Y223676D01*
X192500D01*
Y223971D01*
X193382D01*
Y225147D01*
X193676D01*
Y226324D01*
X193971D01*
Y227500D01*
X194265D01*
Y229265D01*
X194559D01*
Y234559D01*
X194265D01*
Y236324D01*
X193971D01*
Y237794D01*
X193676D01*
Y238971D01*
X193382D01*
Y239265D01*
X193088D01*
Y239559D01*
X192794D01*
Y239853D01*
X192500D01*
Y240147D01*
X192206D01*
Y240441D01*
X191912D01*
Y240735D01*
X191618D01*
Y241029D01*
X191324D01*
Y241324D01*
X191029D01*
Y241618D01*
X190735D01*
Y241912D01*
X190441D01*
Y242206D01*
X190147D01*
Y242500D01*
X189853D01*
Y242794D01*
X189559D01*
Y243382D01*
X189265D01*
Y243676D01*
X188676D01*
Y243971D01*
X188382D01*
Y244265D01*
X188088D01*
Y244853D01*
X187794D01*
Y245147D01*
X187500D01*
Y245441D01*
X187206D01*
Y245735D01*
X186912D01*
Y246029D01*
X186618D01*
Y246324D01*
X186324D01*
Y246618D01*
X186029D01*
Y247206D01*
X185735D01*
Y247500D01*
X185441D01*
Y247794D01*
X185147D01*
Y248088D01*
X184853D01*
Y248382D01*
X184265D01*
Y248676D01*
D02*
G37*
G36*
X252206Y247206D02*
X250147D01*
Y246912D01*
X250441D01*
Y246618D01*
X251912D01*
Y246912D01*
X252206D01*
Y247206D01*
D02*
G37*
G36*
X234853D02*
X233088D01*
Y246324D01*
X233676D01*
Y246029D01*
X233971D01*
Y246324D01*
X234265D01*
Y246618D01*
X234559D01*
Y246912D01*
X234853D01*
Y247206D01*
D02*
G37*
G36*
X260441Y258088D02*
X260147D01*
Y256912D01*
X260441D01*
Y255441D01*
X260735D01*
Y253971D01*
X261029D01*
Y250735D01*
X260735D01*
Y249265D01*
X260441D01*
Y248088D01*
X260147D01*
Y247206D01*
X256324D01*
Y246912D01*
X256618D01*
Y246618D01*
X256912D01*
Y246324D01*
X257500D01*
Y246029D01*
X258382D01*
Y245735D01*
X258971D01*
Y246029D01*
X259853D01*
Y246324D01*
X260441D01*
Y246618D01*
X260735D01*
Y246912D01*
X261029D01*
Y247206D01*
X261324D01*
Y247794D01*
X261618D01*
Y248382D01*
X261912D01*
Y248971D01*
X262206D01*
Y250147D01*
X262500D01*
Y254559D01*
X262206D01*
Y255735D01*
X261912D01*
Y256324D01*
X261618D01*
Y256912D01*
X261324D01*
Y257206D01*
X261029D01*
Y257794D01*
X260441D01*
Y258088D01*
D02*
G37*
G36*
X256029Y262500D02*
X254265D01*
Y262206D01*
X252500D01*
Y261912D01*
X251324D01*
Y261618D01*
X250735D01*
Y261324D01*
X251912D01*
Y261029D01*
X252206D01*
Y260735D01*
X252500D01*
Y260441D01*
X252794D01*
Y260735D01*
X255441D01*
Y260441D01*
X255735D01*
Y259559D01*
X256029D01*
Y256912D01*
X255735D01*
Y254853D01*
X255441D01*
Y253088D01*
X255147D01*
Y251618D01*
X254853D01*
Y250441D01*
X254559D01*
Y249559D01*
X254265D01*
Y248971D01*
X253971D01*
Y248382D01*
X253676D01*
Y248088D01*
X253382D01*
Y247500D01*
X253088D01*
Y247206D01*
X252794D01*
Y246618D01*
X252500D01*
Y246324D01*
X252206D01*
Y246029D01*
X251912D01*
Y245441D01*
X251618D01*
Y245147D01*
X251029D01*
Y244853D01*
X250147D01*
Y245441D01*
X250735D01*
Y245735D01*
X251324D01*
Y246029D01*
X250147D01*
Y246324D01*
X249853D01*
Y246618D01*
X249559D01*
Y246912D01*
X249265D01*
Y247206D01*
X247206D01*
Y246324D01*
X247500D01*
Y245441D01*
X247794D01*
Y244853D01*
X248088D01*
Y244559D01*
X248676D01*
Y244265D01*
X248971D01*
Y243971D01*
X249853D01*
Y243676D01*
X252206D01*
Y243971D01*
X252794D01*
Y244265D01*
X253088D01*
Y244853D01*
X253382D01*
Y245147D01*
X253676D01*
Y245441D01*
X253971D01*
Y246029D01*
X254265D01*
Y246324D01*
X254559D01*
Y246912D01*
X254853D01*
Y247500D01*
X255147D01*
Y247794D01*
X255441D01*
Y248382D01*
X255735D01*
Y249265D01*
X256029D01*
Y250147D01*
X256324D01*
Y251029D01*
X256618D01*
Y252206D01*
X256912D01*
Y253676D01*
X257206D01*
Y257206D01*
X257500D01*
Y257794D01*
X257206D01*
Y260441D01*
X256912D01*
Y261324D01*
X256618D01*
Y262206D01*
X256029D01*
Y262500D01*
D02*
G37*
G36*
X83382Y274559D02*
X78088D01*
Y274265D01*
X76912D01*
Y273971D01*
X75735D01*
Y273676D01*
X75147D01*
Y273382D01*
X74559D01*
Y273088D01*
X73971D01*
Y272794D01*
X73382D01*
Y272500D01*
X72794D01*
Y272206D01*
X72500D01*
Y271912D01*
X71912D01*
Y271618D01*
X71618D01*
Y271324D01*
X71324D01*
Y271029D01*
X71029D01*
Y270735D01*
X70735D01*
Y270441D01*
X70441D01*
Y270147D01*
X70147D01*
Y269853D01*
X69853D01*
Y269559D01*
X69559D01*
Y269265D01*
X69265D01*
Y268971D01*
X68971D01*
Y268382D01*
X68677D01*
Y268088D01*
X68382D01*
Y267794D01*
X68088D01*
Y267206D01*
X67794D01*
Y266618D01*
X67500D01*
Y266029D01*
X67206D01*
Y265441D01*
X66912D01*
Y264559D01*
X66618D01*
Y263676D01*
X66323D01*
Y262500D01*
X66029D01*
Y260147D01*
X65735D01*
Y259265D01*
X66029D01*
Y256324D01*
X66323D01*
Y254853D01*
X66618D01*
Y254265D01*
X66912D01*
Y253382D01*
X67206D01*
Y252794D01*
X67500D01*
Y252206D01*
X67794D01*
Y251618D01*
X68088D01*
Y251029D01*
X68382D01*
Y250735D01*
X68677D01*
Y250147D01*
X68971D01*
Y249853D01*
X69265D01*
Y249559D01*
X69559D01*
Y249265D01*
X69853D01*
Y248676D01*
X70147D01*
Y248382D01*
X70441D01*
Y248088D01*
X70735D01*
Y247794D01*
X71029D01*
Y247500D01*
X71618D01*
Y247206D01*
X71912D01*
Y246912D01*
X72206D01*
Y246618D01*
X72794D01*
Y246324D01*
X73088D01*
Y246029D01*
X73677D01*
Y245735D01*
X74265D01*
Y245441D01*
X74853D01*
Y245147D01*
X75735D01*
Y244853D01*
X76618D01*
Y244559D01*
X77794D01*
Y244265D01*
X79265D01*
Y243971D01*
X81912D01*
Y244265D01*
X83971D01*
Y244559D01*
X84265D01*
Y245441D01*
X84559D01*
Y246324D01*
X84853D01*
Y247206D01*
X85147D01*
Y248088D01*
X85441D01*
Y248971D01*
X85735D01*
Y249559D01*
X86029D01*
Y250147D01*
X86324D01*
Y250441D01*
X86618D01*
Y251029D01*
X86912D01*
Y251618D01*
X87206D01*
Y251912D01*
X87500D01*
Y252206D01*
X87794D01*
Y252794D01*
X88088D01*
Y253088D01*
X88382D01*
Y253382D01*
X88677D01*
Y253676D01*
X88971D01*
Y253971D01*
X89265D01*
Y254265D01*
X89559D01*
Y254559D01*
X89853D01*
Y254853D01*
X90147D01*
Y255147D01*
X90441D01*
Y255441D01*
X90735D01*
Y255735D01*
X91029D01*
Y256029D01*
X91618D01*
Y256324D01*
X91912D01*
Y256618D01*
X92206D01*
Y256912D01*
X92794D01*
Y257206D01*
X93088D01*
Y257500D01*
X93382D01*
Y257794D01*
X93971D01*
Y258088D01*
X94265D01*
Y258382D01*
X94853D01*
Y258676D01*
X95147D01*
Y258971D01*
X95441D01*
Y262206D01*
X95147D01*
Y263382D01*
X94853D01*
Y264559D01*
X94559D01*
Y265147D01*
X94265D01*
Y266029D01*
X93971D01*
Y266618D01*
X93677D01*
Y267206D01*
X93382D01*
Y267500D01*
X93088D01*
Y268088D01*
X92794D01*
Y268382D01*
X92500D01*
Y268676D01*
X92206D01*
Y269265D01*
X91912D01*
Y269559D01*
X91618D01*
Y269853D01*
X91323D01*
Y270147D01*
X91029D01*
Y270441D01*
X90735D01*
Y270735D01*
X90441D01*
Y271029D01*
X90147D01*
Y271324D01*
X89853D01*
Y271618D01*
X89265D01*
Y271912D01*
X88971D01*
Y272206D01*
X88382D01*
Y272500D01*
X88088D01*
Y272794D01*
X87500D01*
Y273088D01*
X86912D01*
Y273382D01*
X86324D01*
Y273676D01*
X85441D01*
Y273971D01*
X84559D01*
Y274265D01*
X83382D01*
Y274559D01*
D02*
G37*
G36*
X97206Y258676D02*
X95441D01*
Y258382D01*
X95147D01*
Y258088D01*
X94853D01*
Y257794D01*
X94559D01*
Y257500D01*
X93971D01*
Y257206D01*
X93677D01*
Y256912D01*
X93382D01*
Y256618D01*
X92794D01*
Y256324D01*
X92500D01*
Y256029D01*
X92206D01*
Y255735D01*
X91618D01*
Y255441D01*
X91323D01*
Y255147D01*
X91029D01*
Y254853D01*
X90735D01*
Y254559D01*
X90441D01*
Y254265D01*
X90147D01*
Y253971D01*
X89853D01*
Y253676D01*
X89559D01*
Y253382D01*
X89265D01*
Y253088D01*
X88971D01*
Y252794D01*
X88677D01*
Y252500D01*
X88382D01*
Y252206D01*
X88088D01*
Y251618D01*
X87794D01*
Y251324D01*
X87500D01*
Y250735D01*
X87206D01*
Y250441D01*
X86912D01*
Y249853D01*
X86618D01*
Y249265D01*
X86324D01*
Y248676D01*
X86029D01*
Y248088D01*
X85735D01*
Y247206D01*
X85441D01*
Y246324D01*
X85147D01*
Y245441D01*
X84853D01*
Y243382D01*
X85147D01*
Y243971D01*
X85441D01*
Y244559D01*
X85735D01*
Y245147D01*
X86029D01*
Y245735D01*
X86324D01*
Y246324D01*
X86618D01*
Y246912D01*
X86912D01*
Y247500D01*
X87206D01*
Y248088D01*
X87500D01*
Y248676D01*
X87794D01*
Y248971D01*
X88088D01*
Y249559D01*
X88382D01*
Y249853D01*
X88677D01*
Y250441D01*
X88971D01*
Y250735D01*
X89265D01*
Y251029D01*
X89559D01*
Y251324D01*
X89853D01*
Y251912D01*
X90147D01*
Y252206D01*
X90441D01*
Y252500D01*
X90735D01*
Y252794D01*
X91029D01*
Y253088D01*
X91323D01*
Y253382D01*
X91618D01*
Y253676D01*
X91912D01*
Y253971D01*
X92206D01*
Y254265D01*
X92500D01*
Y254559D01*
X92794D01*
Y254853D01*
X93088D01*
Y255147D01*
X93382D01*
Y255441D01*
X93677D01*
Y255735D01*
X93971D01*
Y256029D01*
X94265D01*
Y256324D01*
X94853D01*
Y256618D01*
X95147D01*
Y256912D01*
X95441D01*
Y257206D01*
X95735D01*
Y257500D01*
X96029D01*
Y257794D01*
X96324D01*
Y258088D01*
X96912D01*
Y258382D01*
X97206D01*
Y258676D01*
D02*
G37*
G36*
X275441Y261618D02*
X274853D01*
Y261324D01*
X273382D01*
Y261029D01*
X271912D01*
Y260735D01*
X270441D01*
Y260441D01*
X268971D01*
Y260147D01*
X267794D01*
Y259853D01*
X266324D01*
Y259559D01*
X264853D01*
Y259265D01*
X263382D01*
Y258971D01*
X261912D01*
Y258676D01*
X260735D01*
Y258382D01*
X261029D01*
Y258088D01*
X261324D01*
Y257794D01*
X261618D01*
Y257500D01*
X261912D01*
Y256912D01*
X262206D01*
Y256324D01*
X262500D01*
Y255735D01*
X262794D01*
Y254559D01*
X263088D01*
Y249853D01*
X262794D01*
Y248971D01*
X262500D01*
Y248088D01*
X262206D01*
Y247500D01*
X261912D01*
Y247206D01*
X261618D01*
Y246618D01*
X261324D01*
Y246324D01*
X261029D01*
Y246029D01*
X260441D01*
Y245735D01*
X260147D01*
Y245441D01*
X261029D01*
Y245147D01*
X262500D01*
Y244853D01*
X263971D01*
Y244559D01*
X265441D01*
Y244265D01*
X267206D01*
Y243971D01*
X268676D01*
Y243676D01*
X270147D01*
Y243382D01*
X271618D01*
Y243088D01*
X273382D01*
Y242794D01*
X274265D01*
Y243676D01*
X274559D01*
Y244265D01*
X274853D01*
Y244853D01*
X275147D01*
Y245735D01*
X275441D01*
Y246618D01*
X275735D01*
Y247794D01*
X276029D01*
Y249559D01*
X276324D01*
Y256324D01*
X276029D01*
Y258382D01*
X275735D01*
Y260147D01*
X275441D01*
Y261029D01*
Y261324D01*
Y261618D01*
D02*
G37*
G36*
X61912Y248382D02*
X61324D01*
Y248088D01*
X61029D01*
Y247794D01*
X60735D01*
Y247500D01*
X60147D01*
Y247206D01*
X59853D01*
Y246912D01*
X59265D01*
Y246618D01*
X58971D01*
Y246324D01*
X58382D01*
Y246029D01*
X58088D01*
Y245735D01*
X57794D01*
Y245441D01*
X57206D01*
Y245147D01*
X56912D01*
Y244853D01*
X56324D01*
Y244559D01*
X56029D01*
Y244265D01*
X55441D01*
Y243971D01*
X55147D01*
Y243676D01*
X54853D01*
Y243382D01*
X54265D01*
Y243088D01*
X53971D01*
Y242794D01*
X54265D01*
Y242500D01*
X54853D01*
Y242794D01*
X55441D01*
Y243088D01*
X55735D01*
Y243382D01*
X56324D01*
Y243676D01*
X56618D01*
Y243971D01*
X56912D01*
Y244265D01*
X57500D01*
Y244559D01*
X57794D01*
Y244853D01*
X58088D01*
Y245147D01*
X58677D01*
Y245441D01*
X58971D01*
Y245735D01*
X59559D01*
Y246029D01*
X59853D01*
Y246324D01*
X60147D01*
Y246618D01*
X60735D01*
Y246912D01*
X61029D01*
Y247206D01*
X61618D01*
Y247500D01*
X61912D01*
Y247794D01*
X62206D01*
Y248088D01*
X61912D01*
Y248382D01*
D02*
G37*
G36*
X166912Y243971D02*
X165441D01*
Y243676D01*
X164265D01*
Y243382D01*
X163088D01*
Y243088D01*
X162794D01*
Y241618D01*
Y241324D01*
Y240147D01*
X162500D01*
Y239265D01*
X164265D01*
Y238971D01*
X166618D01*
Y243676D01*
X166912D01*
Y243971D01*
D02*
G37*
G36*
X62794Y247206D02*
X62206D01*
Y246912D01*
X61618D01*
Y246618D01*
X61324D01*
Y246324D01*
X60735D01*
Y246029D01*
X60441D01*
Y245735D01*
X60147D01*
Y245441D01*
X59559D01*
Y245147D01*
X59265D01*
Y244853D01*
X58677D01*
Y244559D01*
X58382D01*
Y244265D01*
X58088D01*
Y243971D01*
X57500D01*
Y243676D01*
X57206D01*
Y243382D01*
X56912D01*
Y243088D01*
X56324D01*
Y242794D01*
X56029D01*
Y242500D01*
X55441D01*
Y241618D01*
X55735D01*
Y241324D01*
Y240735D01*
X56029D01*
Y240147D01*
X56324D01*
Y239559D01*
X56618D01*
Y239265D01*
X56912D01*
Y238971D01*
X57206D01*
Y238676D01*
X57500D01*
Y238382D01*
X57794D01*
Y238088D01*
X58088D01*
Y237794D01*
X58382D01*
Y237500D01*
X58677D01*
Y237206D01*
X59265D01*
Y236912D01*
X59559D01*
Y236618D01*
X59853D01*
Y236912D01*
X60147D01*
Y237206D01*
X60441D01*
Y237500D01*
X60735D01*
Y238088D01*
X61029D01*
Y238382D01*
X61324D01*
Y238971D01*
X61618D01*
Y239265D01*
X61912D01*
Y239853D01*
X62206D01*
Y240147D01*
X62500D01*
Y240441D01*
X62794D01*
Y241029D01*
X63088D01*
Y241324D01*
X63382D01*
Y241912D01*
X63677D01*
Y242206D01*
X63971D01*
Y242500D01*
X64265D01*
Y243088D01*
X64559D01*
Y243382D01*
X64853D01*
Y244559D01*
X64559D01*
Y244853D01*
X64265D01*
Y245147D01*
X63971D01*
Y245441D01*
X63677D01*
Y245735D01*
X63382D01*
Y246324D01*
X63088D01*
Y246618D01*
X62794D01*
Y247206D01*
D02*
G37*
G36*
X54265Y242206D02*
X53677D01*
Y241912D01*
X53971D01*
Y241029D01*
X54265D01*
Y240441D01*
X54559D01*
Y239853D01*
X54853D01*
Y239559D01*
X55147D01*
Y238971D01*
X55441D01*
Y238676D01*
X55735D01*
Y238382D01*
X56029D01*
Y237794D01*
X56324D01*
Y237500D01*
X56618D01*
Y237206D01*
X56912D01*
Y236912D01*
X57206D01*
Y236618D01*
X57500D01*
Y236324D01*
X57794D01*
Y236029D01*
X58088D01*
Y235735D01*
X58382D01*
Y235441D01*
X58677D01*
Y235147D01*
X58971D01*
Y235441D01*
X59265D01*
Y236324D01*
X58971D01*
Y236618D01*
X58677D01*
Y236912D01*
X58088D01*
Y237206D01*
X57794D01*
Y237500D01*
X57500D01*
Y237794D01*
X57206D01*
Y238088D01*
X56912D01*
Y238382D01*
X56618D01*
Y238676D01*
X56324D01*
Y238971D01*
X56029D01*
Y239559D01*
X55735D01*
Y240147D01*
X55441D01*
Y240735D01*
X55147D01*
Y241324D01*
X54853D01*
Y241912D01*
X54265D01*
Y242206D01*
D02*
G37*
G36*
X205147Y268088D02*
X204559D01*
Y267206D01*
X204853D01*
Y266029D01*
X205147D01*
Y265147D01*
X205441D01*
Y264265D01*
X205735D01*
Y263382D01*
X206029D01*
Y262206D01*
X206324D01*
Y261029D01*
X206618D01*
Y259559D01*
X206912D01*
Y257794D01*
X207206D01*
Y247500D01*
X206912D01*
Y243676D01*
X206618D01*
Y241029D01*
X206324D01*
Y239265D01*
X206029D01*
Y237794D01*
X205735D01*
Y236324D01*
X205441D01*
Y235441D01*
X205147D01*
Y234265D01*
X204853D01*
Y233382D01*
X204559D01*
Y232500D01*
X205441D01*
Y232794D01*
X206029D01*
Y233088D01*
X206912D01*
Y233382D01*
X207500D01*
Y233676D01*
X208382D01*
Y233971D01*
X208971D01*
Y234265D01*
X209853D01*
Y234559D01*
X210441D01*
Y234853D01*
X211324D01*
Y235147D01*
X211618D01*
Y235441D01*
X211912D01*
Y236029D01*
X212206D01*
Y236324D01*
X212500D01*
Y236618D01*
X212794D01*
Y236912D01*
X213088D01*
Y237500D01*
X213382D01*
Y237794D01*
X213676D01*
Y238088D01*
X213971D01*
Y238382D01*
X214265D01*
Y238971D01*
X214559D01*
Y239265D01*
X214853D01*
Y239559D01*
X215147D01*
Y240147D01*
X215441D01*
Y240441D01*
X215735D01*
Y240735D01*
X216029D01*
Y241029D01*
X216324D01*
Y241618D01*
X216618D01*
Y241912D01*
X216912D01*
Y242500D01*
X217206D01*
Y242794D01*
X217500D01*
Y243382D01*
X217794D01*
Y243676D01*
X218088D01*
Y244265D01*
X218382D01*
Y244853D01*
X218676D01*
Y245735D01*
X218971D01*
Y246618D01*
X219265D01*
Y247500D01*
X219559D01*
Y249265D01*
X219853D01*
Y253088D01*
X220147D01*
Y253676D01*
X219853D01*
Y255735D01*
X219559D01*
Y256618D01*
X219265D01*
Y257206D01*
X218971D01*
Y258088D01*
X218676D01*
Y258676D01*
X218382D01*
Y259265D01*
X218088D01*
Y259853D01*
X217794D01*
Y260441D01*
X217500D01*
Y261029D01*
X217206D01*
Y261324D01*
X216912D01*
Y261618D01*
X216618D01*
Y261912D01*
X216324D01*
Y262206D01*
X216029D01*
Y262500D01*
X215735D01*
Y262794D01*
X215441D01*
Y263088D01*
X215147D01*
Y263382D01*
X214853D01*
Y263676D01*
X214559D01*
Y263971D01*
X214265D01*
Y264265D01*
X213971D01*
Y264559D01*
X213676D01*
Y264853D01*
X213382D01*
Y265147D01*
X213088D01*
Y265441D01*
X212794D01*
Y265735D01*
X212500D01*
Y266029D01*
X212206D01*
Y266324D01*
X211912D01*
Y266618D01*
X210441D01*
Y266912D01*
X209265D01*
Y267206D01*
X207794D01*
Y267500D01*
X206618D01*
Y267794D01*
X205147D01*
Y268088D01*
D02*
G37*
G36*
X157794Y249853D02*
X157500D01*
Y249559D01*
Y249265D01*
Y248676D01*
X157206D01*
Y247794D01*
X156912D01*
Y246912D01*
X156618D01*
Y245735D01*
X156323D01*
Y244853D01*
X156029D01*
Y243971D01*
X155735D01*
Y243088D01*
X155441D01*
Y242500D01*
X155147D01*
Y241618D01*
X154853D01*
Y240735D01*
X154559D01*
Y240147D01*
X154265D01*
Y239559D01*
X153971D01*
Y238971D01*
X153677D01*
Y238676D01*
X153382D01*
Y238088D01*
X153088D01*
Y237500D01*
X152794D01*
Y237206D01*
X152500D01*
Y236618D01*
X152206D01*
Y236029D01*
X151912D01*
Y235735D01*
X151618D01*
Y235147D01*
X151323D01*
Y234853D01*
X151029D01*
Y234265D01*
X150735D01*
Y233971D01*
X150441D01*
Y233382D01*
X151029D01*
Y233088D01*
X152794D01*
Y232794D01*
X154265D01*
Y232500D01*
X156029D01*
Y232206D01*
X156323D01*
Y232794D01*
X156618D01*
Y239853D01*
X156912D01*
Y243382D01*
X157206D01*
Y246324D01*
X157500D01*
Y248382D01*
X157794D01*
Y249853D01*
D02*
G37*
G36*
X204559Y232500D02*
X204265D01*
Y232206D01*
X204559D01*
Y232500D01*
D02*
G37*
G36*
X178382Y238382D02*
X168088D01*
Y238088D01*
X167500D01*
Y237794D01*
X167206D01*
Y237206D01*
X166912D01*
Y236029D01*
X166618D01*
Y232500D01*
X166912D01*
Y231912D01*
X167206D01*
Y231618D01*
X167500D01*
Y231912D01*
X167794D01*
Y231618D01*
X168382D01*
Y231912D01*
X178382D01*
Y231618D01*
X178676D01*
Y231912D01*
X178971D01*
Y238088D01*
X178382D01*
Y238382D01*
D02*
G37*
G36*
X161618Y232206D02*
X159853D01*
Y231912D01*
X159559D01*
Y231618D01*
X161029D01*
Y231324D01*
X162500D01*
Y231618D01*
X161912D01*
Y231912D01*
X161618D01*
Y232206D01*
D02*
G37*
G36*
X178382Y231324D02*
X168971D01*
Y231029D01*
X168676D01*
Y231324D01*
X168382D01*
Y231029D01*
X166912D01*
Y226324D01*
X166618D01*
Y217794D01*
X166324D01*
Y217500D01*
X166618D01*
Y216912D01*
X166912D01*
Y216618D01*
X168382D01*
Y216324D01*
X168676D01*
Y216618D01*
X168971D01*
Y216324D01*
X173676D01*
Y216618D01*
X173971D01*
Y216324D01*
X174265D01*
Y216618D01*
X176029D01*
Y216324D01*
X178676D01*
Y220441D01*
Y220735D01*
Y227206D01*
X178971D01*
Y231029D01*
X178382D01*
Y231324D01*
D02*
G37*
G36*
X166912Y238088D02*
X165441D01*
Y237794D01*
X163676D01*
Y237500D01*
X162794D01*
Y237206D01*
X161912D01*
Y233382D01*
X161618D01*
Y233088D01*
X161912D01*
Y232500D01*
X162206D01*
Y232206D01*
X162500D01*
Y231912D01*
X162794D01*
Y231618D01*
X163382D01*
Y231324D01*
X163676D01*
Y231029D01*
X164265D01*
Y230735D01*
X164559D01*
Y230441D01*
X164853D01*
Y230147D01*
X165147D01*
Y229853D01*
X165441D01*
Y229559D01*
X165735D01*
Y229265D01*
X166324D01*
Y232206D01*
X166029D01*
Y236324D01*
X166324D01*
Y237206D01*
X166618D01*
Y237794D01*
X166912D01*
Y238088D01*
D02*
G37*
G36*
X151029Y232794D02*
X149853D01*
Y232500D01*
X149559D01*
Y231912D01*
X149265D01*
Y231618D01*
X150735D01*
Y231324D01*
X152206D01*
Y231029D01*
X153971D01*
Y230735D01*
X155735D01*
Y230441D01*
X157500D01*
Y230147D01*
X158971D01*
Y229853D01*
X160735D01*
Y229559D01*
X162500D01*
Y229265D01*
X164853D01*
Y229559D01*
X164559D01*
Y229853D01*
X164265D01*
Y230147D01*
X163676D01*
Y230441D01*
X162500D01*
Y230735D01*
X160735D01*
Y231029D01*
X159265D01*
Y231324D01*
X157794D01*
Y231618D01*
X156029D01*
Y231912D01*
X154265D01*
Y232206D01*
X152794D01*
Y232500D01*
X151029D01*
Y232794D01*
D02*
G37*
G36*
X157500Y251324D02*
X108677D01*
Y251029D01*
X108382D01*
Y250735D01*
X108088D01*
Y250441D01*
X107794D01*
Y249853D01*
X107500D01*
Y249559D01*
X107206D01*
Y249265D01*
X106912D01*
Y248971D01*
X106618D01*
Y248676D01*
X106323D01*
Y248088D01*
X106029D01*
Y247794D01*
X105735D01*
Y247500D01*
X105441D01*
Y247206D01*
X105147D01*
Y246912D01*
X104853D01*
Y246618D01*
X104559D01*
Y246029D01*
X104265D01*
Y245735D01*
X103971D01*
Y245441D01*
X103677D01*
Y245147D01*
X103382D01*
Y244853D01*
X103088D01*
Y244559D01*
X102794D01*
Y243971D01*
X102500D01*
Y243676D01*
X102206D01*
Y243382D01*
X101912D01*
Y243088D01*
X101618D01*
Y242794D01*
X101323D01*
Y242500D01*
X101029D01*
Y242206D01*
X100735D01*
Y241912D01*
X100441D01*
Y241618D01*
X100147D01*
Y241029D01*
X99853D01*
Y240735D01*
X99559D01*
Y240441D01*
X99265D01*
Y240147D01*
X98971D01*
Y239853D01*
X98677D01*
Y239559D01*
X98382D01*
Y239265D01*
X98088D01*
Y238971D01*
X97794D01*
Y238382D01*
X97500D01*
Y238088D01*
X97206D01*
Y237794D01*
X96912D01*
Y237500D01*
X96618D01*
Y237206D01*
X96324D01*
Y236912D01*
X96029D01*
Y236324D01*
X95735D01*
Y236029D01*
X95441D01*
Y235735D01*
X95147D01*
Y235441D01*
X94853D01*
Y234853D01*
X94559D01*
Y234559D01*
X94265D01*
Y234265D01*
X93971D01*
Y233971D01*
X93677D01*
Y233382D01*
X93382D01*
Y233088D01*
X93088D01*
Y232794D01*
X92794D01*
Y232206D01*
X92500D01*
Y231912D01*
X92206D01*
Y231618D01*
X91912D01*
Y231029D01*
X91618D01*
Y230735D01*
X91323D01*
Y230147D01*
X91029D01*
Y229853D01*
X90735D01*
Y229559D01*
X90441D01*
Y228971D01*
X90147D01*
Y228676D01*
X89853D01*
Y228088D01*
X89559D01*
Y227794D01*
X89265D01*
Y227500D01*
X88971D01*
Y226912D01*
X88677D01*
Y226618D01*
X88382D01*
Y226029D01*
X88088D01*
Y225735D01*
X87794D01*
Y225147D01*
X87500D01*
Y224853D01*
X87206D01*
Y224559D01*
X86912D01*
Y224265D01*
X87500D01*
Y224559D01*
X88382D01*
Y224853D01*
X88971D01*
Y225147D01*
X89853D01*
Y225441D01*
X90441D01*
Y225735D01*
X91029D01*
Y226029D01*
X91912D01*
Y226324D01*
X92500D01*
Y226618D01*
X93382D01*
Y226912D01*
X93971D01*
Y227206D01*
X94853D01*
Y227500D01*
X95441D01*
Y227794D01*
X96324D01*
Y228088D01*
X96912D01*
Y228382D01*
X97500D01*
Y228676D01*
X97794D01*
Y228382D01*
X98382D01*
Y228676D01*
X105441D01*
Y228382D01*
X105735D01*
Y228676D01*
X106323D01*
Y228382D01*
X106618D01*
Y228676D01*
X107206D01*
Y228382D01*
X107500D01*
Y228676D01*
X126912D01*
Y228382D01*
X127206D01*
Y228676D01*
X127794D01*
Y228382D01*
X128971D01*
Y228676D01*
X133677D01*
Y228382D01*
X133971D01*
Y228676D01*
X134853D01*
Y228382D01*
X135441D01*
Y228676D01*
X135735D01*
Y228382D01*
X136029D01*
Y228676D01*
X141029D01*
Y228382D01*
X141618D01*
Y228676D01*
X141912D01*
Y228382D01*
X142500D01*
Y228676D01*
X142794D01*
Y228382D01*
X143088D01*
Y228676D01*
X143382D01*
Y228382D01*
X143677D01*
Y228676D01*
X143971D01*
Y228382D01*
X144265D01*
Y228676D01*
X144559D01*
Y228382D01*
X145147D01*
Y228676D01*
X146618D01*
Y228971D01*
X146912D01*
Y229559D01*
X147206D01*
Y229853D01*
X147500D01*
Y230441D01*
X147794D01*
Y230735D01*
X148088D01*
Y231324D01*
X148382D01*
Y231618D01*
X148677D01*
Y232206D01*
X148971D01*
Y232500D01*
X149265D01*
Y233088D01*
X149559D01*
Y233382D01*
X149853D01*
Y233971D01*
X150147D01*
Y234559D01*
X150441D01*
Y234853D01*
X150735D01*
Y235441D01*
X151029D01*
Y235735D01*
X151323D01*
Y236324D01*
X151618D01*
Y236912D01*
X151912D01*
Y237206D01*
X152206D01*
Y237794D01*
X152500D01*
Y238382D01*
X152794D01*
Y238676D01*
X153088D01*
Y239265D01*
X153382D01*
Y239853D01*
X153677D01*
Y240441D01*
X153971D01*
Y241029D01*
X154265D01*
Y241618D01*
X154559D01*
Y242500D01*
X154853D01*
Y243088D01*
X155147D01*
Y243971D01*
X155441D01*
Y245147D01*
X155735D01*
Y246029D01*
X156029D01*
Y246912D01*
X156323D01*
Y247794D01*
X156618D01*
Y248971D01*
X156912D01*
Y249853D01*
X157206D01*
Y251029D01*
X157500D01*
Y251324D01*
D02*
G37*
G36*
X149265Y231618D02*
X148971D01*
Y231029D01*
X148677D01*
Y230735D01*
X148382D01*
Y230147D01*
X148088D01*
Y229853D01*
X147794D01*
Y229265D01*
X147500D01*
Y228971D01*
X147206D01*
Y228382D01*
X146912D01*
Y228088D01*
X146029D01*
Y227794D01*
X145735D01*
Y228088D01*
X145147D01*
Y227794D01*
X144265D01*
Y228088D01*
X143971D01*
Y227794D01*
X143677D01*
Y227206D01*
X143382D01*
Y224853D01*
X143677D01*
Y224559D01*
X144265D01*
Y224265D01*
X144853D01*
Y223971D01*
X145441D01*
Y223676D01*
X147794D01*
Y223971D01*
X151029D01*
Y223676D01*
X152794D01*
Y223382D01*
X154265D01*
Y223088D01*
X156029D01*
Y222794D01*
X157794D01*
Y222500D01*
X159559D01*
Y222206D01*
X161324D01*
Y221912D01*
X163382D01*
Y221618D01*
X163676D01*
Y221324D01*
X163971D01*
Y220735D01*
X164265D01*
Y220441D01*
X164559D01*
Y219853D01*
X164853D01*
Y219559D01*
X165147D01*
Y218971D01*
X165441D01*
Y218676D01*
X165735D01*
Y218382D01*
X166029D01*
Y223676D01*
X165441D01*
Y223971D01*
X165147D01*
Y224265D01*
X164853D01*
Y224559D01*
X164559D01*
Y224853D01*
X164265D01*
Y225147D01*
X163971D01*
Y225441D01*
X161324D01*
Y225735D01*
X159559D01*
Y226029D01*
X157500D01*
Y226324D01*
X155441D01*
Y226618D01*
X153677D01*
Y226912D01*
X151618D01*
Y227206D01*
X151323D01*
Y227794D01*
X151618D01*
Y227500D01*
X153677D01*
Y227206D01*
X155735D01*
Y226912D01*
X157500D01*
Y226618D01*
X159559D01*
Y226324D01*
X161618D01*
Y226029D01*
X163676D01*
Y225735D01*
X164559D01*
Y225441D01*
X164853D01*
Y225147D01*
X165147D01*
Y224853D01*
X165441D01*
Y224559D01*
X165735D01*
Y224265D01*
X166029D01*
Y226324D01*
X166324D01*
Y226618D01*
X166029D01*
Y226912D01*
X166324D01*
Y228676D01*
X166029D01*
Y228382D01*
X164853D01*
Y228676D01*
X164559D01*
Y228382D01*
X163971D01*
Y228676D01*
X162206D01*
Y228971D01*
X160735D01*
Y229265D01*
X158971D01*
Y229559D01*
X157206D01*
Y229853D01*
X155735D01*
Y230147D01*
X153971D01*
Y230441D01*
X152206D01*
Y230735D01*
X150735D01*
Y231029D01*
X149265D01*
Y231618D01*
D02*
G37*
G36*
X133971Y228088D02*
X128971D01*
Y227794D01*
X128088D01*
Y228088D01*
X127500D01*
Y227794D01*
X127206D01*
Y225441D01*
X126912D01*
Y223088D01*
X127206D01*
Y221618D01*
X127500D01*
Y220441D01*
X127794D01*
Y219853D01*
X128088D01*
Y219265D01*
X128382D01*
Y218676D01*
X128677D01*
Y218382D01*
X128971D01*
Y218088D01*
X129265D01*
Y217500D01*
X129559D01*
Y217206D01*
X130147D01*
Y217500D01*
X130735D01*
Y217794D01*
X131029D01*
Y218088D01*
X131323D01*
Y218382D01*
X131618D01*
Y218676D01*
X132206D01*
Y218971D01*
X132500D01*
Y219265D01*
X132794D01*
Y219559D01*
X133088D01*
Y219853D01*
X133382D01*
Y220147D01*
X133677D01*
Y220441D01*
X134265D01*
Y220735D01*
X134559D01*
Y221029D01*
X134853D01*
Y221324D01*
X135441D01*
Y221618D01*
X135735D01*
Y221912D01*
X136029D01*
Y222206D01*
X136618D01*
Y222500D01*
X135735D01*
Y222206D01*
X135441D01*
Y222500D01*
X134559D01*
Y222794D01*
X134265D01*
Y223382D01*
X133971D01*
Y228088D01*
D02*
G37*
G36*
X126618D02*
X107794D01*
Y227794D01*
X107206D01*
Y228088D01*
X106912D01*
Y227500D01*
X106618D01*
Y226618D01*
X106323D01*
Y225735D01*
X106029D01*
Y224265D01*
X105735D01*
Y221324D01*
X106029D01*
Y220441D01*
X106323D01*
Y219853D01*
X106618D01*
Y219265D01*
X106912D01*
Y218676D01*
X107206D01*
Y218088D01*
X107500D01*
Y217500D01*
X107794D01*
Y217206D01*
X110147D01*
Y216912D01*
X115147D01*
Y217206D01*
X115441D01*
Y216912D01*
X115735D01*
Y217206D01*
X116029D01*
Y216912D01*
X116618D01*
Y217206D01*
X116912D01*
Y216912D01*
X124853D01*
Y217206D01*
X125441D01*
Y216912D01*
X125735D01*
Y217206D01*
X126323D01*
Y216912D01*
X126618D01*
Y217206D01*
X126912D01*
Y216912D01*
X127206D01*
Y217206D01*
X127500D01*
Y216912D01*
X127794D01*
Y217206D01*
X128382D01*
Y216912D01*
X128677D01*
Y217206D01*
X128971D01*
Y217500D01*
X128677D01*
Y217794D01*
X128382D01*
Y218088D01*
X128088D01*
Y218676D01*
X127794D01*
Y219265D01*
X127500D01*
Y219853D01*
X127206D01*
Y220441D01*
X126912D01*
Y221324D01*
X126618D01*
Y223088D01*
X126323D01*
Y225147D01*
X126618D01*
Y228088D01*
D02*
G37*
G36*
X112500Y258676D02*
X98088D01*
Y258382D01*
X97794D01*
Y258088D01*
X97500D01*
Y257794D01*
X96912D01*
Y257500D01*
X96618D01*
Y257206D01*
X96324D01*
Y256912D01*
X96029D01*
Y256618D01*
X95735D01*
Y256324D01*
X95147D01*
Y256029D01*
X94853D01*
Y255735D01*
X94559D01*
Y255441D01*
X94265D01*
Y255147D01*
X93971D01*
Y254853D01*
X93677D01*
Y254559D01*
X93382D01*
Y254265D01*
X93088D01*
Y253971D01*
X92794D01*
Y253676D01*
X92206D01*
Y253088D01*
X91912D01*
Y252794D01*
X91618D01*
Y252500D01*
X91323D01*
Y252206D01*
X91029D01*
Y251912D01*
X90735D01*
Y251618D01*
X90441D01*
Y251324D01*
X90147D01*
Y250735D01*
X89853D01*
Y250441D01*
X89559D01*
Y250147D01*
X89265D01*
Y249559D01*
X88971D01*
Y249265D01*
X88677D01*
Y248676D01*
X88382D01*
Y248382D01*
X88088D01*
Y247794D01*
X87794D01*
Y247500D01*
X87500D01*
Y246912D01*
X87206D01*
Y246324D01*
X86912D01*
Y245735D01*
X86618D01*
Y245147D01*
X86324D01*
Y244559D01*
X86029D01*
Y243676D01*
X85735D01*
Y243088D01*
X85441D01*
Y242500D01*
X85147D01*
Y241912D01*
X84853D01*
Y234559D01*
X85147D01*
Y231029D01*
X85441D01*
Y227794D01*
X85735D01*
Y226029D01*
X86029D01*
Y226324D01*
X86324D01*
Y226912D01*
X86618D01*
Y227206D01*
X86912D01*
Y227794D01*
X87206D01*
Y228382D01*
X87500D01*
Y228676D01*
X87794D01*
Y229265D01*
X88088D01*
Y229559D01*
X88382D01*
Y230147D01*
X88677D01*
Y230441D01*
X88971D01*
Y231029D01*
X89265D01*
Y231324D01*
X89559D01*
Y231912D01*
X89853D01*
Y232206D01*
X90147D01*
Y232794D01*
X90441D01*
Y233088D01*
X90735D01*
Y233676D01*
X91029D01*
Y233971D01*
X91323D01*
Y234559D01*
X91618D01*
Y234853D01*
X91912D01*
Y235147D01*
X92206D01*
Y235735D01*
X92500D01*
Y236029D01*
X92794D01*
Y236324D01*
X93088D01*
Y236912D01*
X93382D01*
Y237206D01*
X93677D01*
Y237500D01*
X93971D01*
Y237794D01*
X94265D01*
Y238382D01*
X94559D01*
Y238676D01*
X94853D01*
Y238971D01*
X95147D01*
Y239265D01*
X95441D01*
Y239559D01*
X95735D01*
Y239853D01*
X96029D01*
Y240441D01*
X96324D01*
Y240735D01*
X96618D01*
Y241029D01*
X96912D01*
Y241324D01*
X97206D01*
Y241618D01*
X97500D01*
Y241912D01*
X97794D01*
Y242206D01*
X98088D01*
Y242794D01*
X98382D01*
Y243088D01*
X98677D01*
Y243382D01*
X98971D01*
Y243676D01*
X99265D01*
Y243971D01*
X99559D01*
Y244265D01*
X99853D01*
Y244559D01*
X100147D01*
Y244853D01*
X100441D01*
Y245147D01*
X100735D01*
Y245735D01*
X101029D01*
Y246029D01*
X101323D01*
Y246324D01*
X101618D01*
Y246618D01*
X101912D01*
Y246912D01*
X102206D01*
Y247206D01*
X102500D01*
Y247500D01*
X102794D01*
Y247794D01*
X103088D01*
Y248088D01*
X103382D01*
Y248676D01*
X103677D01*
Y248971D01*
X103971D01*
Y249265D01*
X104265D01*
Y249559D01*
X104559D01*
Y249853D01*
X104853D01*
Y250147D01*
X105147D01*
Y250441D01*
X105441D01*
Y250735D01*
X105735D01*
Y251324D01*
X106029D01*
Y251618D01*
X106323D01*
Y251912D01*
X106618D01*
Y252206D01*
X106912D01*
Y252500D01*
X107206D01*
Y252794D01*
X107500D01*
Y253088D01*
X107794D01*
Y253382D01*
X108088D01*
Y253676D01*
X108382D01*
Y253971D01*
X108677D01*
Y254559D01*
X108971D01*
Y254853D01*
X109265D01*
Y255147D01*
X109559D01*
Y255441D01*
X109853D01*
Y255735D01*
X110147D01*
Y256029D01*
X110441D01*
Y256324D01*
X110735D01*
Y256618D01*
X111029D01*
Y256912D01*
X111324D01*
Y257206D01*
X111618D01*
Y257500D01*
X111912D01*
Y258088D01*
X112206D01*
Y258382D01*
X112500D01*
Y258676D01*
D02*
G37*
G36*
X74265Y238382D02*
X73971D01*
Y237500D01*
X73677D01*
Y236324D01*
X73382D01*
Y235147D01*
X73088D01*
Y234265D01*
X72794D01*
Y233088D01*
X72500D01*
Y232206D01*
X72206D01*
Y231029D01*
X71912D01*
Y229853D01*
X71618D01*
Y228971D01*
X71324D01*
Y228088D01*
X71029D01*
Y226912D01*
X71324D01*
Y227206D01*
X71618D01*
Y227500D01*
X71912D01*
Y227794D01*
X72206D01*
Y228971D01*
X72500D01*
Y230147D01*
X72794D01*
Y231324D01*
X73088D01*
Y232500D01*
X73382D01*
Y233382D01*
X73677D01*
Y234559D01*
X73971D01*
Y235735D01*
X74265D01*
Y236912D01*
X74559D01*
Y237794D01*
X75147D01*
Y236618D01*
X74853D01*
Y235735D01*
X74559D01*
Y234559D01*
X74265D01*
Y233382D01*
X73971D01*
Y232206D01*
X73677D01*
Y231029D01*
X73382D01*
Y229853D01*
X73088D01*
Y228971D01*
X72794D01*
Y227794D01*
X73382D01*
Y227500D01*
X74265D01*
Y227206D01*
X75441D01*
Y226912D01*
X76912D01*
Y226618D01*
X78088D01*
Y226324D01*
X79559D01*
Y226029D01*
X81029D01*
Y228971D01*
X80735D01*
Y236324D01*
X80441D01*
Y237500D01*
X80147D01*
Y237206D01*
X79853D01*
Y237500D01*
X79265D01*
Y237206D01*
X78971D01*
Y237500D01*
X76618D01*
Y237794D01*
X75441D01*
Y238088D01*
X74265D01*
Y238382D01*
D02*
G37*
G36*
X73382Y227206D02*
X72500D01*
Y226912D01*
X71912D01*
Y226324D01*
X72794D01*
Y226029D01*
X73677D01*
Y225735D01*
X74559D01*
Y225441D01*
X76029D01*
Y225147D01*
X77794D01*
Y224853D01*
X78088D01*
Y225147D01*
X78382D01*
Y224853D01*
X80441D01*
Y224559D01*
X81029D01*
Y225147D01*
X80735D01*
Y225441D01*
X79559D01*
Y225735D01*
X78088D01*
Y226029D01*
X76912D01*
Y226324D01*
X75441D01*
Y226618D01*
X74265D01*
Y226912D01*
X73382D01*
Y227206D01*
D02*
G37*
G36*
X113971Y258676D02*
X113382D01*
Y258382D01*
X113088D01*
Y258088D01*
X112794D01*
Y257794D01*
X112500D01*
Y257500D01*
X112206D01*
Y257206D01*
X111912D01*
Y256912D01*
X111618D01*
Y256324D01*
X111324D01*
Y256029D01*
X111029D01*
Y255735D01*
X110735D01*
Y255441D01*
X110441D01*
Y255147D01*
X110147D01*
Y254853D01*
X109853D01*
Y254559D01*
X109559D01*
Y254265D01*
X109265D01*
Y253971D01*
X108971D01*
Y253676D01*
X108677D01*
Y253088D01*
X108382D01*
Y252794D01*
X108088D01*
Y252500D01*
X107794D01*
Y252206D01*
X107500D01*
Y251912D01*
X107206D01*
Y251618D01*
X106912D01*
Y251324D01*
X106618D01*
Y251029D01*
X106323D01*
Y250735D01*
X106029D01*
Y250441D01*
X105735D01*
Y249853D01*
X105441D01*
Y249559D01*
X105147D01*
Y249265D01*
X104853D01*
Y248971D01*
X104559D01*
Y248676D01*
X104265D01*
Y248382D01*
X103971D01*
Y248088D01*
X103677D01*
Y247794D01*
X103382D01*
Y247206D01*
X103088D01*
Y246912D01*
X102794D01*
Y246618D01*
X102500D01*
Y246324D01*
X102206D01*
Y246029D01*
X101912D01*
Y245735D01*
X101618D01*
Y245441D01*
X101323D01*
Y245147D01*
X101029D01*
Y244853D01*
X100735D01*
Y244265D01*
X100441D01*
Y243971D01*
X100147D01*
Y243676D01*
X99853D01*
Y243382D01*
X99559D01*
Y243088D01*
X99265D01*
Y242794D01*
X98971D01*
Y242500D01*
X98677D01*
Y242206D01*
X98382D01*
Y241912D01*
X98088D01*
Y241324D01*
X97794D01*
Y241029D01*
X97500D01*
Y240735D01*
X97206D01*
Y240441D01*
X96912D01*
Y240147D01*
X96618D01*
Y239853D01*
X96324D01*
Y239559D01*
X96029D01*
Y238971D01*
X95735D01*
Y238676D01*
X95441D01*
Y238382D01*
X95147D01*
Y238088D01*
X94853D01*
Y237794D01*
X94559D01*
Y237206D01*
X94265D01*
Y236912D01*
X93971D01*
Y236618D01*
X93677D01*
Y236324D01*
X93382D01*
Y235735D01*
X93088D01*
Y235441D01*
X92794D01*
Y235147D01*
X92500D01*
Y234559D01*
X92206D01*
Y234265D01*
X91912D01*
Y233971D01*
X91618D01*
Y233382D01*
X91323D01*
Y233088D01*
X91029D01*
Y232500D01*
X90735D01*
Y232206D01*
X90441D01*
Y231618D01*
X90147D01*
Y231324D01*
X89853D01*
Y230735D01*
X89559D01*
Y230441D01*
X89265D01*
Y229853D01*
X88971D01*
Y229559D01*
X88677D01*
Y228971D01*
X88382D01*
Y228676D01*
X88088D01*
Y228088D01*
X87794D01*
Y227794D01*
X87500D01*
Y227206D01*
X87206D01*
Y226618D01*
X86912D01*
Y226324D01*
X86618D01*
Y225735D01*
X86324D01*
Y225441D01*
X86029D01*
Y224853D01*
X85735D01*
Y224559D01*
X86029D01*
Y224265D01*
X86324D01*
Y224559D01*
X86618D01*
Y225147D01*
X86912D01*
Y225441D01*
X87206D01*
Y226029D01*
X87500D01*
Y226324D01*
X87794D01*
Y226618D01*
X88088D01*
Y227206D01*
X88382D01*
Y227500D01*
X88677D01*
Y228088D01*
X88971D01*
Y228382D01*
X89265D01*
Y228676D01*
X89559D01*
Y229265D01*
X89853D01*
Y229559D01*
X90147D01*
Y230147D01*
X90441D01*
Y230441D01*
X90735D01*
Y230735D01*
X91029D01*
Y231324D01*
X91323D01*
Y231618D01*
X91618D01*
Y232206D01*
X91912D01*
Y232500D01*
X92206D01*
Y232794D01*
X92500D01*
Y233382D01*
X92794D01*
Y233676D01*
X93088D01*
Y233971D01*
X93382D01*
Y234559D01*
X93677D01*
Y234853D01*
X93971D01*
Y235147D01*
X94265D01*
Y235441D01*
X94559D01*
Y236029D01*
X94853D01*
Y236324D01*
X95147D01*
Y236618D01*
X95441D01*
Y236912D01*
X95735D01*
Y237206D01*
X96029D01*
Y237794D01*
X96324D01*
Y238088D01*
X96618D01*
Y238382D01*
X96912D01*
Y238676D01*
X97206D01*
Y238971D01*
X97500D01*
Y239265D01*
X97794D01*
Y239853D01*
X98088D01*
Y240147D01*
X98382D01*
Y240441D01*
X98677D01*
Y240735D01*
X98971D01*
Y241029D01*
X99265D01*
Y241324D01*
X99559D01*
Y241618D01*
X99853D01*
Y241912D01*
X100147D01*
Y242500D01*
X100441D01*
Y242794D01*
X100735D01*
Y243088D01*
X101029D01*
Y243382D01*
X101323D01*
Y243676D01*
X101618D01*
Y243971D01*
X101912D01*
Y244265D01*
X102206D01*
Y244559D01*
X102500D01*
Y245147D01*
X102794D01*
Y245441D01*
X103088D01*
Y245735D01*
X103382D01*
Y246029D01*
X103677D01*
Y246324D01*
X103971D01*
Y246618D01*
X104265D01*
Y246912D01*
X104559D01*
Y247500D01*
X104853D01*
Y247794D01*
X105147D01*
Y248088D01*
X105441D01*
Y248382D01*
X105735D01*
Y248676D01*
X106029D01*
Y248971D01*
X106323D01*
Y249559D01*
X106618D01*
Y249853D01*
X106912D01*
Y250147D01*
X107206D01*
Y250441D01*
X107500D01*
Y250735D01*
X107794D01*
Y251324D01*
X108088D01*
Y251618D01*
X108382D01*
Y251912D01*
X108677D01*
Y252206D01*
X108971D01*
Y252794D01*
X109265D01*
Y253088D01*
X109559D01*
Y253382D01*
X109853D01*
Y253676D01*
X110147D01*
Y253971D01*
X110441D01*
Y254265D01*
X110735D01*
Y254853D01*
X111029D01*
Y255147D01*
X111324D01*
Y255441D01*
X111618D01*
Y255735D01*
X111912D01*
Y256029D01*
X112206D01*
Y256618D01*
X112500D01*
Y256912D01*
X112794D01*
Y257206D01*
X113088D01*
Y257500D01*
X113382D01*
Y257794D01*
X113677D01*
Y258382D01*
X113971D01*
Y258676D01*
D02*
G37*
G36*
X140735Y228088D02*
X135735D01*
Y227794D01*
X134559D01*
Y223382D01*
X134853D01*
Y223088D01*
X135147D01*
Y222794D01*
X136029D01*
Y223088D01*
X137206D01*
Y223382D01*
X137794D01*
Y223676D01*
X138382D01*
Y223971D01*
X138971D01*
Y224265D01*
X139265D01*
Y224559D01*
X139559D01*
Y224853D01*
X139853D01*
Y225441D01*
X140147D01*
Y225735D01*
X140441D01*
Y226324D01*
X140735D01*
Y226618D01*
X141029D01*
Y227206D01*
X141323D01*
Y227500D01*
X141029D01*
Y227794D01*
X140735D01*
Y228088D01*
D02*
G37*
G36*
X133677Y219265D02*
X133382D01*
Y218971D01*
X133088D01*
Y218676D01*
X132794D01*
Y218382D01*
X132206D01*
Y218088D01*
X131912D01*
Y217794D01*
X131618D01*
Y217500D01*
X131029D01*
Y217206D01*
X130735D01*
Y216912D01*
X130441D01*
Y216618D01*
X130147D01*
Y216324D01*
X129265D01*
Y216618D01*
X128971D01*
Y216324D01*
X128677D01*
Y216618D01*
X127500D01*
Y216324D01*
X127206D01*
Y216618D01*
X126912D01*
Y216324D01*
X126323D01*
Y216618D01*
X125735D01*
Y216029D01*
X125441D01*
Y215441D01*
X125147D01*
Y214853D01*
X124853D01*
Y214265D01*
X124559D01*
Y213382D01*
X124265D01*
Y212794D01*
X123971D01*
Y211912D01*
X123677D01*
Y211324D01*
X123971D01*
Y211029D01*
X124559D01*
Y210735D01*
X125147D01*
Y210441D01*
X125735D01*
Y210147D01*
X126618D01*
Y209853D01*
X127206D01*
Y209559D01*
X127794D01*
Y209265D01*
X128677D01*
Y208971D01*
X129265D01*
Y208676D01*
X129853D01*
Y208382D01*
X130735D01*
Y208088D01*
X131323D01*
Y207794D01*
X131912D01*
Y207500D01*
X132500D01*
Y207206D01*
X133382D01*
Y206912D01*
X133971D01*
Y206618D01*
X134265D01*
Y211029D01*
X133971D01*
Y216618D01*
X133677D01*
Y219265D01*
D02*
G37*
G36*
X135735Y221029D02*
X135441D01*
Y220735D01*
X135147D01*
Y220441D01*
X134853D01*
Y220147D01*
X134265D01*
Y216618D01*
X134559D01*
Y211029D01*
X134853D01*
Y206912D01*
X136324D01*
Y212500D01*
X136029D01*
Y218088D01*
X135735D01*
Y221029D01*
D02*
G37*
G36*
X142500Y228088D02*
X142206D01*
Y227500D01*
X141912D01*
Y226912D01*
X141618D01*
Y226324D01*
X141323D01*
Y226029D01*
X141029D01*
Y225441D01*
X140735D01*
Y225147D01*
X140441D01*
Y224853D01*
X140147D01*
Y224265D01*
X139853D01*
Y223971D01*
X139559D01*
Y223676D01*
X138971D01*
Y223382D01*
X138677D01*
Y223088D01*
X138382D01*
Y222794D01*
X138088D01*
Y222500D01*
X137500D01*
Y222206D01*
X137206D01*
Y221912D01*
X136618D01*
Y221618D01*
X136324D01*
Y218382D01*
X136618D01*
Y212500D01*
X136912D01*
Y208676D01*
Y208382D01*
Y206618D01*
X136324D01*
Y206324D01*
X135147D01*
Y206029D01*
X133971D01*
Y206324D01*
X133088D01*
Y206618D01*
X132500D01*
Y206912D01*
X131912D01*
Y207206D01*
X131029D01*
Y207500D01*
X130441D01*
Y207794D01*
X129853D01*
Y208088D01*
X128971D01*
Y208382D01*
X128382D01*
Y208676D01*
X127794D01*
Y208971D01*
X127206D01*
Y208382D01*
X126912D01*
Y207794D01*
X126618D01*
Y207206D01*
X126323D01*
Y206324D01*
X126029D01*
Y205735D01*
X125735D01*
Y205147D01*
X125441D01*
Y204559D01*
X125147D01*
Y203971D01*
X124853D01*
Y203382D01*
X124559D01*
Y202794D01*
X124265D01*
Y201912D01*
X123971D01*
Y201324D01*
X123677D01*
Y200441D01*
X123382D01*
Y199853D01*
X123088D01*
Y199265D01*
X122794D01*
Y198382D01*
X122500D01*
Y197500D01*
X122206D01*
Y196618D01*
X121912D01*
Y195735D01*
X121618D01*
Y194853D01*
X121323D01*
Y193676D01*
X121029D01*
Y191912D01*
X120735D01*
Y190441D01*
X120441D01*
Y189265D01*
X120735D01*
Y186912D01*
X121029D01*
Y184559D01*
X121323D01*
Y184265D01*
X122500D01*
Y183971D01*
X123677D01*
Y183676D01*
X125147D01*
Y183382D01*
X126323D01*
Y183088D01*
X127794D01*
Y182794D01*
X128971D01*
Y182500D01*
X130147D01*
Y182206D01*
X131618D01*
Y181912D01*
X132206D01*
Y181618D01*
X132500D01*
Y181029D01*
X132794D01*
Y180735D01*
X133088D01*
Y180441D01*
X133382D01*
Y179853D01*
X133677D01*
Y179559D01*
X133971D01*
Y178971D01*
X134265D01*
Y178676D01*
X134559D01*
Y178088D01*
X134853D01*
Y177794D01*
X135147D01*
Y177500D01*
X135441D01*
Y176912D01*
X135735D01*
Y177206D01*
X136029D01*
Y177500D01*
X136618D01*
Y177794D01*
X136912D01*
Y178088D01*
X137206D01*
Y178382D01*
X137794D01*
Y178676D01*
X138088D01*
Y178971D01*
X138677D01*
Y179265D01*
X138971D01*
Y179559D01*
X139265D01*
Y179853D01*
X139853D01*
Y180147D01*
X140147D01*
Y180441D01*
X140735D01*
Y180735D01*
X141029D01*
Y181029D01*
X141323D01*
Y181324D01*
X141912D01*
Y181618D01*
X142206D01*
Y181912D01*
X142794D01*
Y182206D01*
X143088D01*
Y182500D01*
X143382D01*
Y182794D01*
X143971D01*
Y183088D01*
X144265D01*
Y183382D01*
X144559D01*
Y183676D01*
X145147D01*
Y183971D01*
X145441D01*
Y184265D01*
X146029D01*
Y184559D01*
X146323D01*
Y184853D01*
X146618D01*
Y185147D01*
X147206D01*
Y185441D01*
X147500D01*
Y185735D01*
X148088D01*
Y186029D01*
X148382D01*
Y186324D01*
X148677D01*
Y186618D01*
X149265D01*
Y186912D01*
X149559D01*
Y187206D01*
X150147D01*
Y187500D01*
X150441D01*
Y187794D01*
X150735D01*
Y188088D01*
X151323D01*
Y188382D01*
X151618D01*
Y188676D01*
X151912D01*
Y188971D01*
X152500D01*
Y189265D01*
X152794D01*
Y189559D01*
X153382D01*
Y189853D01*
X153677D01*
Y190147D01*
X153971D01*
Y190441D01*
X154559D01*
Y190735D01*
X154853D01*
Y191029D01*
X155441D01*
Y191324D01*
X155735D01*
Y191618D01*
X156029D01*
Y191912D01*
X156618D01*
Y192206D01*
X156912D01*
Y192500D01*
X157500D01*
Y192794D01*
X157794D01*
Y193088D01*
X158088D01*
Y193382D01*
X158677D01*
Y193676D01*
X158971D01*
Y193971D01*
X159265D01*
Y194265D01*
X159853D01*
Y194559D01*
X160147D01*
Y194853D01*
X160441D01*
Y195147D01*
X160735D01*
Y195735D01*
X161029D01*
Y196324D01*
X161324D01*
Y196912D01*
X161618D01*
Y197206D01*
X161912D01*
Y197794D01*
X162206D01*
Y198382D01*
X162500D01*
Y198971D01*
X162794D01*
Y199265D01*
X163088D01*
Y199853D01*
X163382D01*
Y200441D01*
X163676D01*
Y200735D01*
X163971D01*
Y201324D01*
X164265D01*
Y201912D01*
X164559D01*
Y202500D01*
X164853D01*
Y202794D01*
X165147D01*
Y203382D01*
X165441D01*
Y204265D01*
X165147D01*
Y205147D01*
X164853D01*
Y206029D01*
X164559D01*
Y206912D01*
X164265D01*
Y207794D01*
X163971D01*
Y208382D01*
X163676D01*
Y209265D01*
X163382D01*
Y210147D01*
X163088D01*
Y211029D01*
X162794D01*
Y211912D01*
X162500D01*
Y212794D01*
X162206D01*
Y213971D01*
X161912D01*
Y214853D01*
X161618D01*
Y215735D01*
X161324D01*
Y216618D01*
X161029D01*
Y217794D01*
X160735D01*
Y218676D01*
X160441D01*
Y219559D01*
X160147D01*
Y220735D01*
X159853D01*
Y221618D01*
X159559D01*
Y221912D01*
X157794D01*
Y222206D01*
X156029D01*
Y222500D01*
X154265D01*
Y222794D01*
X152794D01*
Y223088D01*
X151029D01*
Y223382D01*
X148088D01*
Y223088D01*
X145441D01*
Y223382D01*
X144853D01*
Y223676D01*
X144265D01*
Y223971D01*
X143382D01*
Y224265D01*
X143088D01*
Y224853D01*
X142794D01*
Y227206D01*
X143088D01*
Y227794D01*
X142500D01*
Y228088D01*
D02*
G37*
G36*
X149559Y186324D02*
X149265D01*
Y186029D01*
X148971D01*
Y185735D01*
X149265D01*
X149559Y186029D01*
Y186324D01*
D02*
G37*
G36*
X148971Y185735D02*
X148677D01*
Y185441D01*
X148971D01*
Y185735D01*
D02*
G37*
G36*
X148382Y185441D02*
X148088D01*
Y185147D01*
X148382D01*
Y185441D01*
D02*
G37*
G36*
X148088Y185147D02*
X147794D01*
Y184853D01*
X148088D01*
Y185147D01*
D02*
G37*
G36*
X147794Y184853D02*
X147206D01*
Y184559D01*
X147794D01*
Y184853D01*
D02*
G37*
G36*
X147206Y184559D02*
X146912D01*
Y184265D01*
X147206D01*
Y184559D01*
D02*
G37*
G36*
X146912Y184265D02*
X146618D01*
Y183971D01*
X146912D01*
Y184265D01*
D02*
G37*
G36*
X146618Y183971D02*
X146029D01*
Y183676D01*
X145735D01*
Y183382D01*
X146323D01*
Y183676D01*
X146618D01*
Y183971D01*
D02*
G37*
G36*
X145735Y183382D02*
X145147D01*
Y183088D01*
X144853D01*
Y182794D01*
X144559D01*
Y182500D01*
X143971D01*
Y182206D01*
X143677D01*
Y181912D01*
X143088D01*
Y181618D01*
X142794D01*
Y181324D01*
X142500D01*
Y181029D01*
X141912D01*
Y180735D01*
X141618D01*
Y180441D01*
X141323D01*
Y180147D01*
X140735D01*
Y179853D01*
X140441D01*
Y179559D01*
X140147D01*
Y179265D01*
X139559D01*
Y178971D01*
X139265D01*
Y178676D01*
X138677D01*
Y178382D01*
X138382D01*
Y178088D01*
X137794D01*
Y177794D01*
X137500D01*
Y177500D01*
X137206D01*
Y177206D01*
X136618D01*
Y176912D01*
X136324D01*
Y176618D01*
X136029D01*
Y176324D01*
X135735D01*
Y176029D01*
X135147D01*
Y175735D01*
X134559D01*
Y175441D01*
X134265D01*
Y174853D01*
X133971D01*
Y174265D01*
X133677D01*
Y173676D01*
X134265D01*
Y173971D01*
X134559D01*
Y174265D01*
X134853D01*
Y174559D01*
X135441D01*
Y174853D01*
X135735D01*
Y175147D01*
X136029D01*
Y175441D01*
X136324D01*
Y175735D01*
X136618D01*
Y176029D01*
X137206D01*
Y176324D01*
X137500D01*
Y176618D01*
X137794D01*
Y176912D01*
X138088D01*
Y177206D01*
X138677D01*
Y177500D01*
X138971D01*
Y177794D01*
X139265D01*
Y178088D01*
X139559D01*
Y178382D01*
X139853D01*
Y178676D01*
X140441D01*
Y178971D01*
X140735D01*
Y179265D01*
X141029D01*
Y179559D01*
X141323D01*
Y179853D01*
X141912D01*
Y180147D01*
X142206D01*
Y180441D01*
X142500D01*
Y180735D01*
X143088D01*
Y181029D01*
X143382D01*
Y181324D01*
X143677D01*
Y181618D01*
X143971D01*
Y181912D01*
X144559D01*
Y182206D01*
X144853D01*
Y182500D01*
X145147D01*
Y182794D01*
X145441D01*
Y183088D01*
X145735D01*
Y183382D01*
D02*
G37*
G36*
X133677Y173676D02*
X133382D01*
Y173382D01*
X133677D01*
Y173676D01*
D02*
G37*
G36*
X123677Y210735D02*
X123382D01*
Y210441D01*
X123088D01*
Y209853D01*
X122794D01*
Y208971D01*
X122500D01*
Y208088D01*
X122206D01*
Y207500D01*
X121912D01*
Y206618D01*
X121618D01*
Y206029D01*
X121323D01*
Y205147D01*
X121029D01*
Y204265D01*
X120735D01*
Y203382D01*
X120441D01*
Y202794D01*
X120147D01*
Y201912D01*
X119853D01*
Y201029D01*
X119559D01*
Y200441D01*
X119265D01*
Y199559D01*
X118971D01*
Y198676D01*
X118677D01*
Y197794D01*
X118382D01*
Y196618D01*
X118088D01*
Y195735D01*
X117794D01*
Y194559D01*
X117500D01*
Y193382D01*
X117206D01*
Y191912D01*
X116912D01*
Y190735D01*
X116618D01*
Y189265D01*
X116323D01*
Y186029D01*
X116618D01*
Y184265D01*
X116912D01*
Y182500D01*
X117206D01*
Y181324D01*
Y181029D01*
Y180735D01*
X117794D01*
Y180441D01*
X118677D01*
Y180147D01*
X119853D01*
Y179853D01*
X120735D01*
Y179559D01*
X121912D01*
Y179265D01*
X123088D01*
Y178971D01*
X123971D01*
Y178676D01*
X125147D01*
Y178382D01*
X126323D01*
Y178088D01*
X127206D01*
Y177794D01*
X128382D01*
Y177500D01*
X128677D01*
Y177206D01*
X128971D01*
Y176618D01*
X129265D01*
Y176029D01*
X129559D01*
Y175441D01*
X129853D01*
Y174853D01*
X130147D01*
Y174265D01*
X130441D01*
Y173676D01*
X130735D01*
Y173088D01*
X131029D01*
Y172500D01*
X131323D01*
Y171912D01*
X131618D01*
Y171618D01*
X131912D01*
Y170735D01*
X132206D01*
Y170147D01*
X132500D01*
Y169559D01*
X132794D01*
Y169853D01*
X133088D01*
Y170735D01*
X132794D01*
Y171324D01*
X132500D01*
Y171618D01*
X132206D01*
Y172500D01*
X132500D01*
Y173088D01*
X132794D01*
Y173676D01*
X133088D01*
Y174265D01*
X133382D01*
Y175147D01*
X133677D01*
Y175735D01*
X133971D01*
Y176029D01*
X134265D01*
Y176324D01*
X134853D01*
Y176618D01*
X135147D01*
Y176912D01*
X134853D01*
Y177206D01*
X134559D01*
Y177500D01*
X134265D01*
Y178088D01*
X133971D01*
Y178382D01*
X133677D01*
Y178971D01*
X133382D01*
Y179265D01*
X133088D01*
Y179853D01*
X132794D01*
Y180147D01*
X132500D01*
Y180441D01*
X132206D01*
Y181029D01*
X131912D01*
Y181324D01*
X131323D01*
Y181618D01*
X130147D01*
Y181912D01*
X128971D01*
Y182206D01*
X127500D01*
Y182500D01*
X126323D01*
Y182794D01*
X124853D01*
Y183088D01*
X123677D01*
Y183382D01*
X122500D01*
Y183676D01*
X121029D01*
Y183971D01*
X120735D01*
Y184853D01*
X120441D01*
Y186618D01*
X120147D01*
Y189559D01*
X119853D01*
Y190441D01*
X120147D01*
Y192206D01*
X120441D01*
Y193676D01*
X120735D01*
Y194853D01*
X121029D01*
Y196029D01*
X121323D01*
Y196912D01*
X121618D01*
Y197794D01*
X121912D01*
Y198382D01*
X122206D01*
Y199265D01*
X122500D01*
Y199853D01*
X122794D01*
Y200735D01*
X123088D01*
Y201324D01*
X123382D01*
Y202206D01*
X123677D01*
Y202794D01*
X123971D01*
Y203382D01*
X124265D01*
Y203971D01*
X124559D01*
Y204853D01*
X124853D01*
Y205441D01*
X125147D01*
Y206029D01*
X125441D01*
Y206618D01*
X125735D01*
Y207206D01*
X126029D01*
Y207794D01*
X126323D01*
Y208382D01*
X126618D01*
Y208971D01*
X126912D01*
Y209265D01*
X126323D01*
Y209559D01*
X125735D01*
Y209853D01*
X125147D01*
Y210147D01*
X124265D01*
Y210441D01*
X123677D01*
Y210735D01*
D02*
G37*
G36*
X161324Y221618D02*
X160441D01*
Y220735D01*
X160735D01*
Y219853D01*
X161029D01*
Y218676D01*
X161324D01*
Y217794D01*
X161618D01*
Y216912D01*
X161912D01*
Y216029D01*
X162206D01*
Y214853D01*
X162500D01*
Y213971D01*
X162794D01*
Y213088D01*
X163088D01*
Y211912D01*
X163382D01*
Y211029D01*
X163676D01*
Y210441D01*
X163971D01*
Y209559D01*
X164265D01*
Y208676D01*
X164559D01*
Y207794D01*
X164853D01*
Y206912D01*
X165147D01*
Y206029D01*
X165441D01*
Y205147D01*
X165735D01*
Y204265D01*
X166029D01*
Y203088D01*
X165735D01*
Y202794D01*
X165441D01*
Y202206D01*
X165147D01*
Y201618D01*
X164853D01*
Y201324D01*
X164559D01*
Y200735D01*
X164265D01*
Y200147D01*
X163971D01*
Y199559D01*
X163676D01*
Y199265D01*
X163382D01*
Y198676D01*
X163088D01*
Y198088D01*
X162794D01*
Y197794D01*
X162500D01*
Y197206D01*
X162206D01*
Y196618D01*
X161912D01*
Y196029D01*
X161618D01*
Y195735D01*
X161324D01*
Y195147D01*
X161029D01*
Y194559D01*
X160735D01*
Y194265D01*
X160441D01*
Y193971D01*
X160147D01*
Y193676D01*
X159853D01*
Y193382D01*
X159265D01*
Y193088D01*
X158971D01*
Y192794D01*
X158677D01*
Y192500D01*
X158088D01*
Y192206D01*
X157794D01*
Y191912D01*
X157500D01*
Y191618D01*
X157206D01*
Y191324D01*
X156618D01*
Y191029D01*
X156323D01*
Y190735D01*
X156029D01*
Y190441D01*
X155735D01*
Y190147D01*
X155441D01*
Y189853D01*
X154853D01*
Y189559D01*
X154559D01*
Y189265D01*
X154265D01*
Y188971D01*
X153677D01*
Y188676D01*
X153382D01*
Y188382D01*
X153088D01*
Y188088D01*
X152794D01*
Y187794D01*
X152206D01*
Y187500D01*
X151912D01*
Y187206D01*
X151618D01*
Y186912D01*
X151323D01*
Y186618D01*
X150735D01*
Y186324D01*
X150441D01*
Y186029D01*
X150147D01*
Y185735D01*
X149853D01*
Y185441D01*
X149265D01*
Y185147D01*
X148971D01*
Y184853D01*
X148677D01*
Y184559D01*
X148382D01*
Y184265D01*
X147794D01*
Y183971D01*
X147500D01*
Y183676D01*
X147206D01*
Y183382D01*
X146912D01*
Y183088D01*
X146323D01*
Y182794D01*
X146029D01*
Y182500D01*
X145735D01*
Y182206D01*
X145441D01*
Y181912D01*
X144853D01*
Y181618D01*
X144559D01*
Y181324D01*
X144265D01*
Y181029D01*
X143971D01*
Y180735D01*
X143382D01*
Y180441D01*
X143088D01*
Y180147D01*
X142794D01*
Y179853D01*
X142500D01*
Y179559D01*
X141912D01*
Y179265D01*
X141618D01*
Y178971D01*
X141323D01*
Y178676D01*
X141029D01*
Y178382D01*
X140735D01*
Y178088D01*
X140147D01*
Y177794D01*
X139853D01*
Y177500D01*
X139559D01*
Y177206D01*
X139265D01*
Y176912D01*
X138677D01*
Y176618D01*
X138382D01*
Y176324D01*
X138088D01*
Y176029D01*
X137500D01*
Y175735D01*
X137206D01*
Y175147D01*
X136912D01*
Y174853D01*
X136324D01*
Y174559D01*
X136029D01*
Y174265D01*
X135441D01*
Y173971D01*
X135147D01*
Y173676D01*
X134853D01*
Y173382D01*
X134265D01*
Y173088D01*
X133971D01*
Y172794D01*
X133382D01*
Y172500D01*
X133088D01*
Y172206D01*
X132794D01*
Y171912D01*
X133088D01*
Y171324D01*
X133382D01*
Y171029D01*
X133677D01*
Y170441D01*
X133971D01*
Y169853D01*
X133382D01*
Y169265D01*
X133088D01*
Y168382D01*
X132794D01*
Y167794D01*
X132500D01*
Y167206D01*
X132206D01*
Y166618D01*
X131912D01*
Y166029D01*
X132206D01*
Y166324D01*
X132500D01*
Y166618D01*
X133088D01*
Y166912D01*
X133382D01*
Y167206D01*
X133677D01*
Y167500D01*
X134265D01*
Y167794D01*
X134559D01*
Y168088D01*
X134853D01*
Y168382D01*
X135441D01*
Y168676D01*
X135735D01*
Y168971D01*
X136029D01*
Y169265D01*
X136324D01*
Y169559D01*
X136912D01*
Y169853D01*
X137206D01*
Y170147D01*
X137794D01*
Y170441D01*
X138088D01*
Y170735D01*
X138382D01*
Y171029D01*
X138971D01*
Y171324D01*
X139265D01*
Y171618D01*
X139559D01*
Y171912D01*
X139853D01*
Y172206D01*
X140441D01*
Y172500D01*
X140735D01*
Y172794D01*
X141029D01*
Y173088D01*
X141618D01*
Y173382D01*
X141912D01*
Y173676D01*
X142206D01*
Y173971D01*
X142500D01*
Y174265D01*
X143088D01*
Y174559D01*
X143382D01*
Y174853D01*
X143677D01*
Y175147D01*
X143971D01*
Y175441D01*
X144265D01*
Y175735D01*
X144853D01*
Y176029D01*
X145147D01*
Y176324D01*
X145441D01*
Y176618D01*
X145735D01*
Y176912D01*
X146323D01*
Y177206D01*
X146618D01*
Y177500D01*
X146912D01*
Y177794D01*
X147500D01*
Y178088D01*
X147794D01*
Y178382D01*
X148088D01*
Y178676D01*
X148382D01*
Y178971D01*
X148971D01*
Y179265D01*
X149265D01*
Y179559D01*
X149559D01*
Y179853D01*
X149853D01*
Y180147D01*
X150441D01*
Y180441D01*
X150735D01*
Y180735D01*
X151029D01*
Y181029D01*
X151323D01*
Y181324D01*
X151912D01*
Y181618D01*
X152206D01*
Y181912D01*
X152500D01*
Y182206D01*
X152794D01*
Y182500D01*
X153382D01*
Y182794D01*
X153677D01*
Y183088D01*
X153971D01*
Y183382D01*
X154265D01*
Y183676D01*
X154853D01*
Y183971D01*
X155147D01*
Y184265D01*
X155441D01*
Y184559D01*
X155735D01*
Y184853D01*
X156323D01*
Y185147D01*
X156618D01*
Y185441D01*
X156912D01*
Y185735D01*
X157206D01*
Y186029D01*
X157500D01*
Y186324D01*
X158088D01*
Y186618D01*
X158382D01*
Y186912D01*
X158677D01*
Y187206D01*
X158971D01*
Y187500D01*
X159559D01*
Y187794D01*
X159853D01*
Y188088D01*
X160147D01*
Y188382D01*
X160441D01*
Y188676D01*
X160735D01*
Y188971D01*
X161324D01*
Y189265D01*
X161618D01*
Y189559D01*
X161912D01*
Y189853D01*
X162206D01*
Y190147D01*
X162500D01*
Y190441D01*
X163088D01*
Y190735D01*
X163382D01*
Y191029D01*
X163676D01*
Y191324D01*
X163971D01*
Y191618D01*
X164265D01*
Y192206D01*
X164559D01*
Y192500D01*
X164853D01*
Y193088D01*
X165147D01*
Y193382D01*
X165441D01*
Y193971D01*
X165735D01*
Y194265D01*
X166029D01*
Y194853D01*
X166324D01*
Y195147D01*
X166618D01*
Y195735D01*
X166912D01*
Y196324D01*
X167206D01*
Y196618D01*
X167500D01*
Y197206D01*
X167794D01*
Y197794D01*
X168088D01*
Y198382D01*
X168382D01*
Y198971D01*
X168676D01*
Y199559D01*
X168971D01*
Y200147D01*
X169265D01*
Y200735D01*
X169559D01*
Y201618D01*
X169853D01*
Y202206D01*
X170147D01*
Y202794D01*
X170441D01*
Y203676D01*
X170735D01*
Y204265D01*
X171029D01*
Y205147D01*
X171324D01*
Y206029D01*
X171618D01*
Y206912D01*
X171912D01*
Y207794D01*
X172206D01*
Y208971D01*
X172500D01*
Y210147D01*
X172794D01*
Y211618D01*
X173088D01*
Y213088D01*
X173382D01*
Y214853D01*
X173676D01*
Y216029D01*
X166618D01*
Y216324D01*
X166324D01*
Y216618D01*
X166029D01*
Y216912D01*
X165735D01*
Y217500D01*
X165441D01*
Y218088D01*
X165147D01*
Y218382D01*
X164853D01*
Y218971D01*
X164559D01*
Y219265D01*
X164265D01*
Y219853D01*
X163971D01*
Y220147D01*
X163676D01*
Y220735D01*
X163382D01*
Y221029D01*
X163088D01*
Y221324D01*
X161324D01*
Y221618D01*
D02*
G37*
G36*
X137206Y168971D02*
X136618D01*
Y168676D01*
X136324D01*
Y168382D01*
X136029D01*
Y168088D01*
X135441D01*
Y167794D01*
X135147D01*
Y167500D01*
X134853D01*
Y167206D01*
X134265D01*
Y166912D01*
X133971D01*
Y166618D01*
X133677D01*
Y166324D01*
X133088D01*
Y166029D01*
X132794D01*
Y165735D01*
X132500D01*
Y165441D01*
X131912D01*
Y165147D01*
X131618D01*
Y164853D01*
X131323D01*
Y164265D01*
X131029D01*
Y163382D01*
X130735D01*
Y162794D01*
X130441D01*
Y162206D01*
X130147D01*
Y161618D01*
X130441D01*
Y161912D01*
X130735D01*
Y162206D01*
X131323D01*
Y162500D01*
X131618D01*
Y162794D01*
X132206D01*
Y163088D01*
X132500D01*
Y163382D01*
X132794D01*
Y163676D01*
X133382D01*
Y163971D01*
X133677D01*
Y164265D01*
X134265D01*
Y164559D01*
X134559D01*
Y164853D01*
X135147D01*
Y165147D01*
X135441D01*
Y165441D01*
X135735D01*
Y166029D01*
X136029D01*
Y166618D01*
X136324D01*
Y167206D01*
X136618D01*
Y167794D01*
X136912D01*
Y168382D01*
X137206D01*
Y168971D01*
D02*
G37*
G36*
X105441Y228088D02*
X98382D01*
Y227794D01*
X97206D01*
Y225441D01*
X97500D01*
Y223382D01*
X97794D01*
Y221029D01*
X98088D01*
Y218971D01*
X98382D01*
Y216912D01*
X98677D01*
Y214853D01*
X98971D01*
Y211912D01*
X98677D01*
Y211324D01*
X98382D01*
Y210441D01*
X98088D01*
Y209559D01*
X97794D01*
Y208676D01*
X97500D01*
Y207794D01*
X97206D01*
Y207206D01*
X96912D01*
Y206324D01*
X96618D01*
Y205441D01*
X96324D01*
Y204559D01*
X96029D01*
Y203676D01*
X95735D01*
Y202794D01*
X95441D01*
Y201912D01*
X95147D01*
Y201029D01*
X94853D01*
Y200147D01*
X94559D01*
Y198971D01*
X94265D01*
Y198088D01*
X93971D01*
Y196912D01*
X93677D01*
Y195735D01*
X93382D01*
Y194265D01*
X93088D01*
Y193088D01*
X92794D01*
Y191618D01*
X92500D01*
Y190147D01*
X92206D01*
Y188971D01*
X91912D01*
Y187206D01*
X91618D01*
Y186029D01*
X91323D01*
Y184853D01*
X91029D01*
Y183676D01*
X90735D01*
Y182500D01*
X90441D01*
Y181324D01*
X90147D01*
Y180147D01*
X89853D01*
Y179265D01*
X89559D01*
Y178088D01*
X89265D01*
Y176912D01*
X88971D01*
Y176029D01*
X88677D01*
Y174853D01*
X88382D01*
Y173676D01*
X88088D01*
Y172794D01*
X87794D01*
Y171618D01*
X87500D01*
Y170441D01*
X87206D01*
Y168676D01*
X87500D01*
Y168088D01*
X87794D01*
Y167206D01*
X88088D01*
Y166618D01*
X88382D01*
Y165735D01*
X88677D01*
Y165147D01*
X88971D01*
Y164265D01*
X89265D01*
Y163382D01*
X89559D01*
Y162794D01*
X89853D01*
Y161912D01*
X90147D01*
Y161324D01*
X90441D01*
Y160441D01*
X90735D01*
Y159853D01*
X91618D01*
Y159559D01*
X92500D01*
Y159265D01*
X93677D01*
Y158971D01*
X94559D01*
Y158677D01*
X95735D01*
Y158382D01*
X96618D01*
Y158088D01*
X97794D01*
Y157794D01*
X98677D01*
Y157500D01*
X99853D01*
Y157206D01*
X100735D01*
Y156912D01*
X101912D01*
Y156618D01*
X102794D01*
Y156323D01*
X103971D01*
Y156029D01*
X104853D01*
Y155735D01*
X106618D01*
Y155441D01*
X106912D01*
Y155735D01*
X111912D01*
Y156029D01*
X112206D01*
Y155735D01*
X112500D01*
Y156029D01*
X117206D01*
Y156323D01*
X117500D01*
Y156029D01*
X117794D01*
Y156323D01*
X118971D01*
Y156618D01*
X119853D01*
Y156912D01*
X120441D01*
Y157206D01*
X121029D01*
Y157500D01*
X121912D01*
Y157794D01*
X122500D01*
Y158088D01*
X123088D01*
Y158382D01*
X123677D01*
Y158677D01*
X124559D01*
Y158971D01*
X125147D01*
Y159265D01*
X125735D01*
Y159559D01*
X126323D01*
Y159853D01*
X127206D01*
Y160147D01*
X127794D01*
Y160441D01*
X128382D01*
Y160735D01*
X128971D01*
Y161029D01*
X129265D01*
Y161324D01*
X129559D01*
Y162206D01*
X129853D01*
Y162794D01*
X130147D01*
Y163676D01*
X130441D01*
Y164559D01*
X130735D01*
Y165147D01*
X131029D01*
Y166029D01*
X131323D01*
Y166618D01*
X131618D01*
Y167500D01*
X131912D01*
Y168382D01*
X132206D01*
Y169559D01*
X131912D01*
Y170147D01*
X131618D01*
Y170735D01*
X131323D01*
Y171324D01*
X131029D01*
Y171912D01*
X130735D01*
Y172500D01*
X130441D01*
Y173088D01*
X130147D01*
Y173676D01*
X129853D01*
Y174265D01*
X129559D01*
Y174853D01*
X129265D01*
Y175441D01*
X128971D01*
Y176029D01*
X128677D01*
Y176618D01*
X128382D01*
Y176912D01*
X128088D01*
Y177206D01*
X127206D01*
Y177500D01*
X126029D01*
Y177794D01*
X125147D01*
Y178088D01*
X123971D01*
Y178382D01*
X122794D01*
Y178676D01*
X121912D01*
Y178971D01*
X120735D01*
Y179265D01*
X119559D01*
Y179559D01*
X118677D01*
Y179853D01*
X117500D01*
Y180147D01*
X116618D01*
Y180735D01*
X116912D01*
Y181029D01*
X116618D01*
Y182206D01*
X116323D01*
Y184265D01*
X116029D01*
Y186029D01*
X115735D01*
Y189559D01*
X116029D01*
Y190735D01*
X116323D01*
Y192206D01*
X116618D01*
Y193382D01*
X116912D01*
Y194559D01*
X117206D01*
Y195735D01*
X117500D01*
Y196912D01*
X117794D01*
Y197794D01*
X118088D01*
Y198676D01*
X118382D01*
Y199559D01*
X118677D01*
Y200441D01*
X118971D01*
Y201324D01*
X119265D01*
Y201912D01*
X119559D01*
Y202794D01*
X119853D01*
Y203676D01*
X120147D01*
Y204265D01*
X120441D01*
Y205147D01*
X120735D01*
Y206029D01*
X121029D01*
Y206618D01*
X121323D01*
Y207500D01*
X121618D01*
Y208382D01*
X121912D01*
Y208971D01*
X122206D01*
Y209853D01*
X122500D01*
Y210441D01*
X122794D01*
Y211324D01*
X123088D01*
Y211912D01*
X123382D01*
Y213088D01*
X123677D01*
Y213676D01*
X123971D01*
Y214265D01*
X124265D01*
Y214853D01*
X124559D01*
Y215441D01*
X124853D01*
Y216324D01*
X124559D01*
Y216618D01*
X124265D01*
Y216324D01*
X116912D01*
Y216618D01*
X116323D01*
Y216324D01*
X116029D01*
Y216618D01*
X115441D01*
Y216324D01*
X115147D01*
Y216618D01*
X114853D01*
Y216324D01*
X110147D01*
Y216618D01*
X108382D01*
Y216324D01*
X107500D01*
Y216912D01*
X107206D01*
Y217500D01*
X106912D01*
Y218088D01*
X106618D01*
Y218382D01*
X106323D01*
Y218971D01*
X106029D01*
Y219559D01*
X105735D01*
Y220441D01*
X105441D01*
Y221324D01*
X105147D01*
Y224265D01*
X105441D01*
Y225735D01*
X105735D01*
Y226912D01*
X106029D01*
Y227794D01*
X105441D01*
Y228088D01*
D02*
G37*
%LPD*%
G36*
X259853Y297794D02*
X260147D01*
Y297500D01*
X260441D01*
Y296912D01*
X260735D01*
Y296324D01*
X261029D01*
Y296029D01*
X261324D01*
Y295441D01*
X261618D01*
Y294559D01*
X261912D01*
Y291618D01*
X261618D01*
Y290735D01*
X261324D01*
Y290147D01*
X261029D01*
Y289853D01*
X260735D01*
Y289265D01*
X260441D01*
Y288971D01*
X260147D01*
Y288382D01*
X259559D01*
Y288088D01*
X259265D01*
Y287794D01*
X258676D01*
Y287500D01*
X258088D01*
Y287206D01*
X257206D01*
Y286912D01*
X256324D01*
Y287500D01*
X257206D01*
Y287794D01*
X256912D01*
Y288088D01*
X256324D01*
Y288382D01*
X256029D01*
Y288676D01*
X255441D01*
Y288971D01*
X255147D01*
Y289265D01*
X254853D01*
Y289559D01*
X254559D01*
Y289853D01*
X254265D01*
Y290147D01*
X253971D01*
Y293382D01*
X254265D01*
Y294265D01*
X254559D01*
Y294853D01*
X254853D01*
Y295441D01*
X255147D01*
Y295735D01*
X255441D01*
Y296029D01*
X255735D01*
Y296324D01*
X256029D01*
Y296618D01*
X256912D01*
Y296912D01*
X257794D01*
Y297206D01*
X258676D01*
Y297500D01*
X259559D01*
Y297794D01*
X259265D01*
Y298088D01*
X259559D01*
Y298382D01*
X259853D01*
Y297794D01*
D02*
G37*
%LPC*%
G36*
X260147Y296912D02*
X258676D01*
Y296618D01*
X257794D01*
Y296324D01*
X256912D01*
Y296029D01*
X256324D01*
Y295735D01*
X255735D01*
Y295441D01*
X255441D01*
Y294853D01*
X255147D01*
Y294265D01*
X254853D01*
Y293382D01*
X254559D01*
Y290441D01*
X254853D01*
Y290147D01*
X255147D01*
Y289853D01*
X255441D01*
Y289559D01*
X255735D01*
Y289265D01*
X256029D01*
Y288971D01*
X256618D01*
Y288676D01*
X256912D01*
Y288382D01*
X257500D01*
Y288088D01*
X257794D01*
Y287794D01*
X258088D01*
Y288088D01*
X258676D01*
Y288382D01*
X258971D01*
Y288676D01*
X259559D01*
Y288971D01*
X259853D01*
Y289559D01*
X260147D01*
Y289853D01*
X260441D01*
Y290441D01*
X260735D01*
Y291029D01*
X261029D01*
Y291912D01*
X261324D01*
Y292206D01*
Y294559D01*
X261029D01*
Y295147D01*
X260735D01*
Y295735D01*
X260441D01*
Y296324D01*
X260147D01*
Y296912D01*
D02*
G37*
%LPD*%
G36*
X116912Y217794D02*
X116618D01*
Y218088D01*
X116912D01*
Y217794D01*
D02*
G37*
D10*
X631250Y65400D02*
G03*
X631250Y65400I-1250J0D01*
G01*
X377350Y198100D02*
G03*
X377350Y198100I-1250J0D01*
G01*
X581750Y30000D02*
G03*
X581750Y30000I-1250J0D01*
G01*
D11*
X367000Y176500D02*
G03*
X367000Y176500I-3000J0D01*
G01*
D12*
X374000Y166350D02*
G03*
X374000Y153650I0J-6350D01*
G01*
X79557Y138353D02*
G03*
X79557Y181647I-14464J21647D01*
G01*
X694750Y204150D02*
Y230850D01*
Y204150D02*
X725250D01*
Y230850D01*
X694750D02*
X725250D01*
X244750Y201650D02*
Y228350D01*
Y201650D02*
X275250D01*
Y228350D01*
X244750D02*
X275250D01*
X188000Y128500D02*
X212000D01*
X188000D02*
Y191500D01*
X212000Y128500D02*
Y191500D01*
X188000D02*
X212000D01*
X610950Y71900D02*
Y148100D01*
Y71900D02*
X649050D01*
Y148100D01*
X610950D02*
X649050D01*
X439750Y188000D02*
X442500D01*
X417500D02*
X420250D01*
X417500Y152000D02*
Y188000D01*
X439750Y152000D02*
X442500D01*
X417500D02*
X420250D01*
X442500D02*
Y188000D01*
X439750Y108000D02*
X442500D01*
X417500D02*
X420250D01*
X417500Y72000D02*
Y108000D01*
X439750Y72000D02*
X442500D01*
X417500D02*
X420250D01*
X442500D02*
Y108000D01*
X276000Y133500D02*
Y186500D01*
X374000Y133500D02*
Y153650D01*
Y166350D02*
Y186500D01*
X276000Y133500D02*
X374000D01*
X276000Y186500D02*
X374000D01*
X159250Y19000D02*
Y41000D01*
X115750D02*
X159250D01*
X115750Y19000D02*
Y41000D01*
Y19000D02*
X159250D01*
X38000Y101500D02*
X62000D01*
Y38500D02*
Y101500D01*
X38000Y38500D02*
Y101500D01*
Y38500D02*
X62000D01*
X78000Y101500D02*
X102000D01*
Y38500D02*
Y101500D01*
X78000Y38500D02*
Y101500D01*
Y38500D02*
X102000D01*
X209750Y92500D02*
X212500D01*
X187500D02*
X190250D01*
X187500Y52500D02*
Y92500D01*
X209750Y52500D02*
X212500D01*
X187500D02*
X190250D01*
X212500D02*
Y92500D01*
X351500Y48000D02*
Y72000D01*
X288500Y48000D02*
X351500D01*
X288500Y72000D02*
X351500D01*
X288500Y48000D02*
Y72000D01*
X351500Y78000D02*
Y102000D01*
X288500Y78000D02*
X351500D01*
X288500Y102000D02*
X351500D01*
X288500Y78000D02*
Y102000D01*
X578000Y277500D02*
Y280250D01*
Y299750D02*
Y302500D01*
X542000D02*
X578000D01*
X542000Y277500D02*
Y280250D01*
Y299750D02*
Y302500D01*
Y277500D02*
X578000D01*
X600000Y237500D02*
Y240250D01*
Y259750D02*
Y262500D01*
X560000D02*
X600000D01*
X560000Y237500D02*
Y240250D01*
Y259750D02*
Y262500D01*
Y237500D02*
X600000D01*
X618500Y278000D02*
Y302000D01*
X681500D01*
X618500Y278000D02*
X681500D01*
Y302000D01*
X638000Y241500D02*
X662000D01*
Y178500D02*
Y241500D01*
X638000Y178500D02*
Y241500D01*
Y178500D02*
X662000D01*
X668000Y141500D02*
X692000D01*
Y78500D02*
Y141500D01*
X668000Y78500D02*
Y141500D01*
Y78500D02*
X692000D01*
X585000Y16550D02*
X689600D01*
X585000D02*
Y43450D01*
X689600D01*
Y16550D02*
Y43450D01*
X515000Y39250D02*
X565000D01*
X502500Y136750D02*
X552500D01*
X479750Y190000D02*
X482500D01*
X457500D02*
X460250D01*
X457500Y150000D02*
Y190000D01*
X479750Y150000D02*
X482500D01*
X457500D02*
X460250D01*
X482500D02*
Y190000D01*
X479750Y110000D02*
X482500D01*
X457500D02*
X460250D01*
X457500Y70000D02*
Y110000D01*
X479750Y70000D02*
X482500D01*
X457500D02*
X460250D01*
X482500D02*
Y110000D01*
X511500Y228000D02*
Y252000D01*
X448500Y228000D02*
X511500D01*
X448500Y252000D02*
X511500D01*
X448500Y228000D02*
Y252000D01*
X378000Y111500D02*
X402000D01*
Y48500D02*
Y111500D01*
X378000Y48500D02*
Y111500D01*
Y48500D02*
X402000D01*
X378000Y221500D02*
X402000D01*
Y158500D02*
Y221500D01*
X378000Y158500D02*
Y221500D01*
Y158500D02*
X402000D01*
X371500Y278000D02*
Y302000D01*
X308500Y278000D02*
X371500D01*
X308500Y302000D02*
X371500D01*
X308500Y278000D02*
Y302000D01*
X371500Y248000D02*
Y272000D01*
X308500Y248000D02*
X371500D01*
X308500Y272000D02*
X371500D01*
X308500Y248000D02*
Y272000D01*
X249750Y100500D02*
X252500D01*
X227500D02*
X230250D01*
X227500Y64500D02*
Y100500D01*
X249750Y64500D02*
X252500D01*
X227500D02*
X230250D01*
X252500D02*
Y100500D01*
X49125Y140474D02*
Y179526D01*
D13*
X582500Y72500D02*
G03*
X582500Y72500I-42500J0D01*
G01*
X570000Y170000D02*
G03*
X570000Y170000I-42500J0D01*
G01*
D14*
X710834Y249998D02*
X707502D01*
X709168D01*
Y241668D01*
X707502Y240002D01*
X705835D01*
X704169Y241668D01*
X714166Y248332D02*
X715832Y249998D01*
X719165D01*
X720831Y248332D01*
Y246666D01*
X719165Y245000D01*
X717498D01*
X719165D01*
X720831Y243334D01*
Y241668D01*
X719165Y240002D01*
X715832D01*
X714166Y241668D01*
X293750Y231249D02*
X291251D01*
X292501D01*
Y225001D01*
X291251Y223751D01*
X290002D01*
X288752Y225001D01*
X301248Y223751D02*
X296250D01*
X301248Y228750D01*
Y229999D01*
X299998Y231249D01*
X297499D01*
X296250Y229999D01*
X219169Y210002D02*
Y219998D01*
X224168D01*
X225834Y218332D01*
Y215000D01*
X224168Y213334D01*
X219169D01*
X222502D02*
X225834Y210002D01*
X234165D02*
Y219998D01*
X229166Y215000D01*
X235831D01*
X625834Y118332D02*
X624168Y119998D01*
X620835D01*
X619169Y118332D01*
Y111668D01*
X620835Y110002D01*
X624168D01*
X625834Y111668D01*
X629166D02*
X630832Y110002D01*
X634165D01*
X635831Y111668D01*
Y118332D01*
X634165Y119998D01*
X630832D01*
X629166Y118332D01*
Y116666D01*
X630832Y115000D01*
X635831D01*
X402502Y172499D02*
X401252Y173749D01*
X398753D01*
X397503Y172499D01*
Y167501D01*
X398753Y166251D01*
X401252D01*
X402502Y167501D01*
X409999Y173749D02*
X407500Y172499D01*
X405001Y170000D01*
Y167501D01*
X406250Y166251D01*
X408750D01*
X409999Y167501D01*
Y168750D01*
X408750Y170000D01*
X405001D01*
X417497Y166251D02*
X412498D01*
X417497Y171250D01*
Y172499D01*
X416247Y173749D01*
X413748D01*
X412498Y172499D01*
X413335Y125832D02*
X411669Y127498D01*
X408337D01*
X406671Y125832D01*
Y119168D01*
X408337Y117502D01*
X411669D01*
X413335Y119168D01*
X423332Y127498D02*
X416668D01*
Y122500D01*
X420000Y124166D01*
X421666D01*
X423332Y122500D01*
Y119168D01*
X421666Y117502D01*
X418334D01*
X416668Y119168D01*
X433329Y117502D02*
X426665D01*
X433329Y124166D01*
Y125832D01*
X431663Y127498D01*
X428331D01*
X426665Y125832D01*
X303335Y167498D02*
Y159168D01*
X305002Y157502D01*
X308334D01*
X310000Y159168D01*
Y167498D01*
X313332Y157502D02*
X316665D01*
X314998D01*
Y167498D01*
X313332Y165832D01*
X150000Y57498D02*
X146668D01*
X148334D01*
Y49168D01*
X146668Y47502D01*
X145002D01*
X143336Y49168D01*
X153332Y47502D02*
X156664D01*
X154998D01*
Y57498D01*
X153332Y55832D01*
X35004Y87502D02*
Y97498D01*
X40002D01*
X41669Y95832D01*
Y92500D01*
X40002Y90834D01*
X35004D01*
X38336D02*
X41669Y87502D01*
X45001D02*
X48333D01*
X46667D01*
Y97498D01*
X45001Y95832D01*
X53331D02*
X54998Y97498D01*
X58330D01*
X59996Y95832D01*
Y89168D01*
X58330Y87502D01*
X54998D01*
X53331Y89168D01*
Y95832D01*
X79170Y87502D02*
Y97498D01*
X84169D01*
X85835Y95832D01*
Y92500D01*
X84169Y90834D01*
X79170D01*
X82502D02*
X85835Y87502D01*
X89167D02*
X92499D01*
X90833D01*
Y97498D01*
X89167Y95832D01*
X97498Y87502D02*
X100830D01*
X99164D01*
Y97498D01*
X97498Y95832D01*
X188335Y78332D02*
X186669Y79998D01*
X183337D01*
X181671Y78332D01*
Y71668D01*
X183337Y70002D01*
X186669D01*
X188335Y71668D01*
X191668Y78332D02*
X193334Y79998D01*
X196666D01*
X198332Y78332D01*
Y76666D01*
X196666Y75000D01*
X198332Y73334D01*
Y71668D01*
X196666Y70002D01*
X193334D01*
X191668Y71668D01*
Y73334D01*
X193334Y75000D01*
X191668Y76666D01*
Y78332D01*
X193334Y75000D02*
X196666D01*
X208329Y70002D02*
X201665D01*
X208329Y76666D01*
Y78332D01*
X206663Y79998D01*
X203331D01*
X201665Y78332D01*
X313334Y63332D02*
X311668Y64998D01*
X308335D01*
X306669Y63332D01*
Y56668D01*
X308335Y55002D01*
X311668D01*
X313334Y56668D01*
X316666Y64998D02*
X323331D01*
Y63332D01*
X316666Y56668D01*
Y55002D01*
X309169Y87502D02*
Y97498D01*
X314168D01*
X315834Y95832D01*
Y92500D01*
X314168Y90834D01*
X309169D01*
X312502D02*
X315834Y87502D01*
X319166Y95832D02*
X320832Y97498D01*
X324165D01*
X325831Y95832D01*
Y94166D01*
X324165Y92500D01*
X322498D01*
X324165D01*
X325831Y90834D01*
Y89168D01*
X324165Y87502D01*
X320832D01*
X319166Y89168D01*
X512500Y293332D02*
X510834Y294998D01*
X507502D01*
X505835Y293332D01*
Y286668D01*
X507502Y285002D01*
X510834D01*
X512500Y286668D01*
X515832Y285002D02*
X519165D01*
X517498D01*
Y294998D01*
X515832Y293332D01*
X575835Y253332D02*
X574169Y254998D01*
X570836D01*
X569170Y253332D01*
Y246668D01*
X570836Y245002D01*
X574169D01*
X575835Y246668D01*
X579167Y245002D02*
X582499D01*
X580833D01*
Y254998D01*
X579167Y253332D01*
X587498Y245002D02*
X590830D01*
X589164D01*
Y254998D01*
X587498Y253332D01*
X643335Y287502D02*
Y297498D01*
X648334D01*
X650000Y295832D01*
Y292500D01*
X648334Y290834D01*
X643335D01*
X646668D02*
X650000Y287502D01*
X653332D02*
X656665D01*
X654998D01*
Y297498D01*
X653332Y295832D01*
X669169Y202502D02*
Y212498D01*
X674168D01*
X675834Y210832D01*
Y207500D01*
X674168Y205834D01*
X669169D01*
X672502D02*
X675834Y202502D01*
X679166Y210832D02*
X680832Y212498D01*
X684165D01*
X685831Y210832D01*
Y209166D01*
X684165Y207500D01*
X685831Y205834D01*
Y204168D01*
X684165Y202502D01*
X680832D01*
X679166Y204168D01*
Y205834D01*
X680832Y207500D01*
X679166Y209166D01*
Y210832D01*
X680832Y207500D02*
X684165D01*
X699169Y105002D02*
Y114998D01*
X704168D01*
X705834Y113332D01*
Y110000D01*
X704168Y108334D01*
X699169D01*
X702502D02*
X705834Y105002D01*
X709166Y106668D02*
X710832Y105002D01*
X714165D01*
X715831Y106668D01*
Y113332D01*
X714165Y114998D01*
X710832D01*
X709166Y113332D01*
Y111666D01*
X710832Y110000D01*
X715831D01*
X635835Y47502D02*
Y57498D01*
X640834D01*
X642500Y55832D01*
Y52500D01*
X640834Y50834D01*
X635835D01*
X645832Y47502D02*
X649165D01*
X647498D01*
Y57498D01*
X645832Y55832D01*
X515834Y80832D02*
X514168Y82498D01*
X510835D01*
X509169Y80832D01*
Y74168D01*
X510835Y72502D01*
X514168D01*
X515834Y74168D01*
X524165Y72502D02*
Y82498D01*
X519166Y77500D01*
X525831D01*
X505834Y173332D02*
X504168Y174998D01*
X500835D01*
X499169Y173332D01*
Y166668D01*
X500835Y165002D01*
X504168D01*
X505834Y166668D01*
X509166Y173332D02*
X510832Y174998D01*
X514165D01*
X515831Y173332D01*
Y171666D01*
X514165Y170000D01*
X512498D01*
X514165D01*
X515831Y168334D01*
Y166668D01*
X514165Y165002D01*
X510832D01*
X509166Y166668D01*
X468334Y178332D02*
X466668Y179998D01*
X463335D01*
X461669Y178332D01*
Y171668D01*
X463335Y170002D01*
X466668D01*
X468334Y171668D01*
X478331Y179998D02*
X474998Y178332D01*
X471666Y175000D01*
Y171668D01*
X473332Y170002D01*
X476665D01*
X478331Y171668D01*
Y173334D01*
X476665Y175000D01*
X471666D01*
X468334Y98332D02*
X466668Y99998D01*
X463335D01*
X461669Y98332D01*
Y91668D01*
X463335Y90002D01*
X466668D01*
X468334Y91668D01*
X478331Y99998D02*
X471666D01*
Y95000D01*
X474998Y96666D01*
X476665D01*
X478331Y95000D01*
Y91668D01*
X476665Y90002D01*
X473332D01*
X471666Y91668D01*
X461669Y235002D02*
Y244998D01*
X466668D01*
X468334Y243332D01*
Y240000D01*
X466668Y238334D01*
X461669D01*
X465002D02*
X468334Y235002D01*
X471666Y244998D02*
X478331D01*
Y243332D01*
X471666Y236668D01*
Y235002D01*
X381669Y87502D02*
Y97498D01*
X386668D01*
X388334Y95832D01*
Y92500D01*
X386668Y90834D01*
X381669D01*
X385002D02*
X388334Y87502D01*
X398331Y97498D02*
X394998Y95832D01*
X391666Y92500D01*
Y89168D01*
X393332Y87502D01*
X396665D01*
X398331Y89168D01*
Y90834D01*
X396665Y92500D01*
X391666D01*
X381669Y200002D02*
Y209998D01*
X386668D01*
X388334Y208332D01*
Y205000D01*
X386668Y203334D01*
X381669D01*
X385002D02*
X388334Y200002D01*
X398331Y209998D02*
X391666D01*
Y205000D01*
X394998Y206666D01*
X396665D01*
X398331Y205000D01*
Y201668D01*
X396665Y200002D01*
X393332D01*
X391666Y201668D01*
X335834Y293332D02*
X334168Y294998D01*
X330835D01*
X329169Y293332D01*
Y286668D01*
X330835Y285002D01*
X334168D01*
X335834Y286668D01*
X345831Y285002D02*
X339166D01*
X345831Y291666D01*
Y293332D01*
X344165Y294998D01*
X340832D01*
X339166Y293332D01*
X329169Y255002D02*
Y264998D01*
X334168D01*
X335834Y263332D01*
Y260000D01*
X334168Y258334D01*
X329169D01*
X332502D02*
X335834Y255002D01*
X345831D02*
X339166D01*
X345831Y261666D01*
Y263332D01*
X344165Y264998D01*
X340832D01*
X339166Y263332D01*
X234757Y119075D02*
X233090Y120741D01*
X229758D01*
X228092Y119075D01*
Y112410D01*
X229758Y110744D01*
X233090D01*
X234757Y112410D01*
X238089Y119075D02*
X239755Y120741D01*
X243087D01*
X244753Y119075D01*
Y117409D01*
X243087Y115742D01*
X244753Y114076D01*
Y112410D01*
X243087Y110744D01*
X239755D01*
X238089Y112410D01*
Y114076D01*
X239755Y115742D01*
X238089Y117409D01*
Y119075D01*
X239755Y115742D02*
X243087D01*
X56195Y197246D02*
Y203911D01*
X54528Y205577D01*
X51196D01*
X49530Y203911D01*
Y197246D01*
X51196Y195580D01*
X54528D01*
X52862Y198912D02*
X56195Y195580D01*
X54528D02*
X56195Y197246D01*
X59527Y195580D02*
X62859D01*
X61193D01*
Y205577D01*
X59527Y203911D01*
D15*
X245000Y308326D02*
Y290831D01*
X233337D01*
X224590Y302494D02*
X218759D01*
X215843Y299579D01*
Y290831D01*
X224590D01*
X227506Y293747D01*
X224590Y296663D01*
X215843D01*
X210011Y290831D02*
X201264D01*
X198349Y293747D01*
X201264Y296663D01*
X207096D01*
X210011Y299579D01*
X207096Y302494D01*
X198349D01*
X183770Y290831D02*
X189601D01*
X192517Y293747D01*
Y299579D01*
X189601Y302494D01*
X183770D01*
X180854Y299579D01*
Y296663D01*
X192517D01*
X175023Y302494D02*
Y290831D01*
Y296663D01*
X172107Y299579D01*
X169191Y302494D01*
X166276D01*
X157528Y308326D02*
X145865D01*
X151697D01*
Y290831D01*
X137118Y302494D02*
X131287D01*
X128371Y299579D01*
Y290831D01*
X137118D01*
X140034Y293747D01*
X137118Y296663D01*
X128371D01*
X116708Y285000D02*
X113793D01*
X110877Y287916D01*
Y302494D01*
X119624D01*
X122540Y299579D01*
Y293747D01*
X119624Y290831D01*
X110877D01*
M02*
