G04*
G04 #@! TF.GenerationSoftware,Altium Limited,Altium Designer,23.5.1 (21)*
G04*
G04 Layer_Physical_Order=2*
G04 Layer_Color=16711680*
%FSLAX44Y44*%
%MOMM*%
G71*
G04*
G04 #@! TF.SameCoordinates,E96301ED-D8BF-4372-B2D1-DF9899262BC6*
G04*
G04*
G04 #@! TF.FilePolarity,Positive*
G04*
G01*
G75*
%ADD16C,1.5700*%
%ADD17R,1.3500X1.3500*%
%ADD18C,1.3500*%
%ADD19R,1.4000X1.4000*%
%ADD20C,1.4000*%
%ADD21C,1.2000*%
%ADD22R,1.2000X1.2000*%
%ADD23C,1.5000*%
%ADD24R,1.5000X1.5000*%
%ADD25C,1.3000*%
%ADD26R,1.3000X1.3000*%
%ADD27R,1.3500X1.3500*%
%ADD28R,1.2000X1.2000*%
%ADD29C,1.6000*%
G04:AMPARAMS|DCode=30|XSize=1.6mm|YSize=1.6mm|CornerRadius=0.4mm|HoleSize=0mm|Usage=FLASHONLY|Rotation=0.000|XOffset=0mm|YOffset=0mm|HoleType=Round|Shape=RoundedRectangle|*
%AMROUNDEDRECTD30*
21,1,1.6000,0.8000,0,0,0.0*
21,1,0.8000,1.6000,0,0,0.0*
1,1,0.8000,0.4000,-0.4000*
1,1,0.8000,-0.4000,-0.4000*
1,1,0.8000,-0.4000,0.4000*
1,1,0.8000,0.4000,0.4000*
%
%ADD30ROUNDEDRECTD30*%
%ADD31R,1.3000X1.3000*%
%ADD32C,1.7000*%
%ADD33R,1.7000X1.7000*%
%ADD34C,1.4500*%
%ADD35C,0.3050*%
D16*
X710000Y217500D02*
D03*
X260000Y215000D02*
D03*
D17*
X200000Y205000D02*
D03*
X50000Y25000D02*
D03*
X90000D02*
D03*
X650000Y165000D02*
D03*
X680000Y65000D02*
D03*
X390000Y35000D02*
D03*
Y145000D02*
D03*
D18*
X200000Y115000D02*
D03*
X50000Y115000D02*
D03*
X90000D02*
D03*
X365000Y60000D02*
D03*
Y90000D02*
D03*
X605000Y290000D02*
D03*
X650000Y255000D02*
D03*
X680000Y155000D02*
D03*
X525000Y240000D02*
D03*
X390000Y125000D02*
D03*
Y235000D02*
D03*
X385000Y290000D02*
D03*
Y260000D02*
D03*
D19*
X630000Y84600D02*
D03*
D20*
Y135400D02*
D03*
D21*
X430000Y157500D02*
D03*
Y77500D02*
D03*
X200000Y47500D02*
D03*
X547500Y290000D02*
D03*
X555000Y250000D02*
D03*
X470000Y145000D02*
D03*
Y65000D02*
D03*
X240000Y70000D02*
D03*
D22*
X430000Y182500D02*
D03*
Y102500D02*
D03*
X200000Y97500D02*
D03*
X470000Y195000D02*
D03*
Y115000D02*
D03*
X240000Y95000D02*
D03*
D23*
X286900Y121900D02*
D03*
X312300D02*
D03*
X337700D02*
D03*
X363100D02*
D03*
X286900Y198100D02*
D03*
X312300D02*
D03*
X337700D02*
D03*
X580000Y185500D02*
D03*
D24*
X363100Y198100D02*
D03*
X580000Y134500D02*
D03*
D25*
X127500Y30000D02*
D03*
X540000Y90000D02*
D03*
X527500Y187500D02*
D03*
D26*
X147500Y30000D02*
D03*
D27*
X275000Y60000D02*
D03*
Y90000D02*
D03*
X695000Y290000D02*
D03*
X435000Y240000D02*
D03*
X295000Y290000D02*
D03*
Y260000D02*
D03*
D28*
X572500Y290000D02*
D03*
X605000Y250000D02*
D03*
D29*
X624600Y30000D02*
D03*
X650000D02*
D03*
X675400D02*
D03*
D30*
X599200D02*
D03*
D31*
X540000Y55000D02*
D03*
X527500Y152500D02*
D03*
D32*
X262700Y160000D02*
D03*
D33*
X237300D02*
D03*
D34*
X67206Y172700D02*
D03*
X79906Y160000D02*
D03*
X67206Y147300D02*
D03*
D35*
X445000Y92500D02*
Y184888D01*
X441335Y188553D02*
X445000Y184888D01*
X438210Y193835D02*
X441335Y190710D01*
Y188553D02*
Y190710D01*
X436787Y193835D02*
X438210D01*
X435000Y195622D02*
Y240000D01*
X430000Y77500D02*
X445000Y92500D01*
X435000Y195622D02*
X436787Y193835D01*
X365000Y49287D02*
Y90000D01*
Y49287D02*
X366787Y47500D01*
X462500D01*
X470000Y40000D01*
X157735Y19690D02*
X414690D01*
X425000Y30000D01*
X138790Y18165D02*
X156210D01*
X137265Y19690D02*
X138790Y18165D01*
X132402Y18165D02*
X133927Y19690D01*
X425000Y30000D02*
X599200D01*
X133927Y19690D02*
X137265D01*
X156210Y18165D02*
X157735Y19690D01*
X90000Y25000D02*
X115763D01*
X122598Y18165D01*
X132402D01*
X567500Y45000D02*
X635000D01*
X470000Y40000D02*
X562500D01*
X567500Y45000D01*
X281900Y198100D02*
X331300Y247500D01*
X402853D01*
X410353Y240000D01*
X295000Y290000D02*
X307500Y302500D01*
X535000D02*
X547500Y290000D01*
X307500Y302500D02*
X535000D01*
X527500Y152500D02*
Y170000D01*
X575000Y217500D02*
X710000D01*
X527500Y170000D02*
X575000Y217500D01*
X410353Y240000D02*
X435000D01*
X200000Y205000D02*
X225000Y180000D01*
X340000D01*
X358100Y198100D01*
X635000Y45000D02*
X650000Y30000D01*
X332900Y121900D02*
X364800Y90000D01*
X365000D01*
M02*
